%TF.GenerationSoftware,KiCad,Pcbnew,9.0.4*%
%TF.CreationDate,2025-09-22T14:36:08+02:00*%
%TF.ProjectId,ATmega4809A-breakout,41546d65-6761-4343-9830-39412d627265,rev?*%
%TF.SameCoordinates,Original*%
%TF.FileFunction,Copper,L2,Inr*%
%TF.FilePolarity,Positive*%
%FSLAX46Y46*%
G04 Gerber Fmt 4.6, Leading zero omitted, Abs format (unit mm)*
G04 Created by KiCad (PCBNEW 9.0.4) date 2025-09-22 14:36:08*
%MOMM*%
%LPD*%
G01*
G04 APERTURE LIST*
%TA.AperFunction,ComponentPad*%
%ADD10R,1.700000X1.700000*%
%TD*%
%TA.AperFunction,ComponentPad*%
%ADD11C,1.700000*%
%TD*%
%TA.AperFunction,ComponentPad*%
%ADD12R,1.727200X1.727200*%
%TD*%
%TA.AperFunction,ComponentPad*%
%ADD13O,1.727200X1.727200*%
%TD*%
%TA.AperFunction,ComponentPad*%
%ADD14O,1.000000X1.600000*%
%TD*%
%TA.AperFunction,ViaPad*%
%ADD15C,0.600000*%
%TD*%
G04 APERTURE END LIST*
D10*
%TO.N,GND*%
%TO.C,J3*%
X124460000Y-50800000D03*
D11*
%TO.N,/PC7*%
X124460000Y-53340000D03*
%TO.N,/PC6*%
X124460000Y-55880000D03*
%TO.N,/PC5*%
X124460000Y-58420000D03*
%TO.N,/PC4*%
X124460000Y-60960000D03*
%TO.N,/PC3*%
X124460000Y-63500000D03*
%TO.N,/PC2*%
X124460000Y-66040000D03*
%TO.N,/PC1*%
X124460000Y-68580000D03*
%TO.N,/PC0*%
X124460000Y-71120000D03*
%TO.N,/PB5*%
X124460000Y-73660000D03*
%TO.N,/PB4*%
X124460000Y-76200000D03*
%TO.N,/PB3*%
X124460000Y-78740000D03*
%TO.N,/PB2*%
X124460000Y-81280000D03*
%TO.N,/PB1*%
X124460000Y-83820000D03*
%TO.N,/PB0*%
X124460000Y-86360000D03*
%TO.N,/PA7*%
X124460000Y-88900000D03*
%TO.N,/PA6*%
X124460000Y-91440000D03*
%TO.N,/PA5*%
X124460000Y-93980000D03*
%TO.N,/PA4*%
X124460000Y-96520000D03*
%TO.N,/PA3*%
X124460000Y-99060000D03*
%TO.N,/PA2*%
X124460000Y-101600000D03*
%TO.N,/PA1*%
X124460000Y-104140000D03*
%TO.N,/PA0*%
X124460000Y-106680000D03*
%TO.N,GND*%
X124460000Y-109220000D03*
%TD*%
D12*
%TO.N,/UDPI*%
%TO.C,CONN1*%
X115189000Y-57785000D03*
D13*
%TO.N,+5V*%
X117729000Y-57785000D03*
%TO.N,unconnected-(CONN1-nc-Pad3)*%
X115189000Y-60325000D03*
%TO.N,unconnected-(CONN1-nc-Pad4)*%
X117729000Y-60325000D03*
%TO.N,unconnected-(CONN1-nc-Pad5)*%
X115189000Y-62865000D03*
%TO.N,GND*%
X117729000Y-62865000D03*
%TD*%
D10*
%TO.N,+5V*%
%TO.C,J2*%
X109220000Y-50800000D03*
D11*
%TO.N,/PD0*%
X109220000Y-53340000D03*
%TO.N,/PD1*%
X109220000Y-55880000D03*
%TO.N,/PD2*%
X109220000Y-58420000D03*
%TO.N,/PD3*%
X109220000Y-60960000D03*
%TO.N,/PD4*%
X109220000Y-63500000D03*
%TO.N,/PD5*%
X109220000Y-66040000D03*
%TO.N,/PD6*%
X109220000Y-68580000D03*
%TO.N,/PD7*%
X109220000Y-71120000D03*
%TO.N,GND*%
X109220000Y-73660000D03*
%TO.N,/PE0*%
X109220000Y-76200000D03*
%TO.N,/PE1*%
X109220000Y-78740000D03*
%TO.N,/PE2*%
X109220000Y-81280000D03*
%TO.N,/PE3*%
X109220000Y-83820000D03*
%TO.N,GND*%
X109220000Y-86360000D03*
%TO.N,/PF0*%
X109220000Y-88900000D03*
%TO.N,/PF1*%
X109220000Y-91440000D03*
%TO.N,/PF2*%
X109220000Y-93980000D03*
%TO.N,/PF3*%
X109220000Y-96520000D03*
%TO.N,/PF4*%
X109220000Y-99060000D03*
%TO.N,/PF5*%
X109220000Y-101600000D03*
%TO.N,/~{RST}_PF6*%
X109220000Y-104140000D03*
%TO.N,/UDPIR*%
X109220000Y-106680000D03*
%TO.N,+5V*%
X109220000Y-109220000D03*
%TD*%
D14*
%TO.N,GND*%
%TO.C,J1*%
X112520000Y-105372000D03*
X112520000Y-109172000D03*
X121160000Y-105372000D03*
X121160000Y-109172000D03*
%TD*%
D15*
%TO.N,GND*%
X112776000Y-100711000D03*
X119634000Y-100711000D03*
%TO.N,+5V*%
X111633000Y-50800000D03*
%TO.N,GND*%
X117094000Y-80899000D03*
X120777000Y-103505000D03*
X119253000Y-77949500D03*
X117348000Y-65024000D03*
X116586000Y-54229000D03*
X113665000Y-54229000D03*
X119634000Y-106553000D03*
X120744632Y-82364606D03*
X119253000Y-80391000D03*
X114046000Y-106553000D03*
X119126000Y-54229000D03*
X115443000Y-86614000D03*
X114427000Y-78486000D03*
X117983000Y-86614000D03*
X118999000Y-109220000D03*
X119253000Y-76200000D03*
X117221000Y-75438000D03*
X113284000Y-68580000D03*
X118110000Y-96520000D03*
X114173000Y-75311000D03*
X114300000Y-99314000D03*
X113030000Y-103251000D03*
X114427000Y-80391000D03*
X118618000Y-75057000D03*
X113919000Y-77089000D03*
X120396000Y-57658000D03*
X120904000Y-52197000D03*
X114808000Y-109347000D03*
X112649000Y-82296000D03*
X120142000Y-69469000D03*
X115570000Y-75438000D03*
X117348000Y-99187000D03*
X120523000Y-72644000D03*
%TO.N,+5V*%
X113284000Y-72517000D03*
X118903750Y-103600250D03*
X115316000Y-106553000D03*
X119888000Y-71247000D03*
X114808000Y-103759000D03*
X116967000Y-83566000D03*
X119102000Y-72390000D03*
X117221000Y-91694000D03*
X115596500Y-99160500D03*
X117221000Y-96012000D03*
X118364000Y-106553000D03*
%TO.N,/PC4*%
X118202089Y-72575000D03*
%TO.N,/UDPI*%
X116086140Y-83507413D03*
%TO.N,/UDPIR*%
X114682000Y-94868000D03*
%TO.N,Net-(U1-AVCC)*%
X114681000Y-89789000D03*
X111379000Y-76708000D03*
%TD*%
%TA.AperFunction,Conductor*%
%TO.N,+5V*%
G36*
X125934539Y-48653185D02*
G01*
X125980294Y-48705989D01*
X125991500Y-48757500D01*
X125991500Y-49657690D01*
X125971815Y-49724729D01*
X125919011Y-49770484D01*
X125849853Y-49780428D01*
X125786297Y-49751403D01*
X125760428Y-49714153D01*
X125758047Y-49715454D01*
X125753793Y-49707664D01*
X125667547Y-49592455D01*
X125667544Y-49592452D01*
X125552335Y-49506206D01*
X125552328Y-49506202D01*
X125417482Y-49455908D01*
X125417483Y-49455908D01*
X125357883Y-49449501D01*
X125357881Y-49449500D01*
X125357873Y-49449500D01*
X125357864Y-49449500D01*
X123562129Y-49449500D01*
X123562123Y-49449501D01*
X123502516Y-49455908D01*
X123367671Y-49506202D01*
X123367664Y-49506206D01*
X123252455Y-49592452D01*
X123252452Y-49592455D01*
X123166206Y-49707664D01*
X123166202Y-49707671D01*
X123115908Y-49842517D01*
X123109501Y-49902116D01*
X123109500Y-49902135D01*
X123109500Y-51697870D01*
X123109501Y-51697876D01*
X123115908Y-51757483D01*
X123166202Y-51892328D01*
X123166206Y-51892335D01*
X123252452Y-52007544D01*
X123252455Y-52007547D01*
X123367664Y-52093793D01*
X123367671Y-52093797D01*
X123499082Y-52142810D01*
X123555016Y-52184681D01*
X123579433Y-52250145D01*
X123564582Y-52318418D01*
X123543431Y-52346673D01*
X123429889Y-52460215D01*
X123304951Y-52632179D01*
X123208444Y-52821585D01*
X123142753Y-53023760D01*
X123109500Y-53233713D01*
X123109500Y-53446287D01*
X123142754Y-53656243D01*
X123205649Y-53849814D01*
X123208444Y-53858414D01*
X123304951Y-54047820D01*
X123429890Y-54219786D01*
X123580213Y-54370109D01*
X123752182Y-54495050D01*
X123760946Y-54499516D01*
X123811742Y-54547491D01*
X123828536Y-54615312D01*
X123805998Y-54681447D01*
X123760946Y-54720484D01*
X123752182Y-54724949D01*
X123580213Y-54849890D01*
X123429890Y-55000213D01*
X123304951Y-55172179D01*
X123208444Y-55361585D01*
X123142753Y-55563760D01*
X123109500Y-55773713D01*
X123109500Y-55986287D01*
X123142754Y-56196243D01*
X123170430Y-56281422D01*
X123208444Y-56398414D01*
X123304951Y-56587820D01*
X123429890Y-56759786D01*
X123580213Y-56910109D01*
X123752182Y-57035050D01*
X123760946Y-57039516D01*
X123811742Y-57087491D01*
X123828536Y-57155312D01*
X123805998Y-57221447D01*
X123760946Y-57260484D01*
X123752182Y-57264949D01*
X123580213Y-57389890D01*
X123429890Y-57540213D01*
X123304951Y-57712179D01*
X123208444Y-57901585D01*
X123142753Y-58103760D01*
X123109500Y-58313713D01*
X123109500Y-58526286D01*
X123136454Y-58696470D01*
X123142754Y-58736243D01*
X123193015Y-58890931D01*
X123208444Y-58938414D01*
X123304951Y-59127820D01*
X123429890Y-59299786D01*
X123580213Y-59450109D01*
X123752182Y-59575050D01*
X123760946Y-59579516D01*
X123811742Y-59627491D01*
X123828536Y-59695312D01*
X123805998Y-59761447D01*
X123760946Y-59800484D01*
X123752182Y-59804949D01*
X123580213Y-59929890D01*
X123429890Y-60080213D01*
X123304951Y-60252179D01*
X123208444Y-60441585D01*
X123142753Y-60643760D01*
X123109500Y-60853713D01*
X123109500Y-61066286D01*
X123132840Y-61213653D01*
X123142754Y-61276243D01*
X123170430Y-61361422D01*
X123208444Y-61478414D01*
X123304951Y-61667820D01*
X123429890Y-61839786D01*
X123580213Y-61990109D01*
X123752182Y-62115050D01*
X123760946Y-62119516D01*
X123811742Y-62167491D01*
X123828536Y-62235312D01*
X123805998Y-62301447D01*
X123760946Y-62340484D01*
X123752182Y-62344949D01*
X123580213Y-62469890D01*
X123429890Y-62620213D01*
X123304951Y-62792179D01*
X123208444Y-62981585D01*
X123142753Y-63183760D01*
X123109500Y-63393713D01*
X123109500Y-63606286D01*
X123132840Y-63753653D01*
X123142754Y-63816243D01*
X123170430Y-63901422D01*
X123208444Y-64018414D01*
X123304951Y-64207820D01*
X123429890Y-64379786D01*
X123580213Y-64530109D01*
X123752182Y-64655050D01*
X123760946Y-64659516D01*
X123811742Y-64707491D01*
X123828536Y-64775312D01*
X123805998Y-64841447D01*
X123760946Y-64880484D01*
X123752182Y-64884949D01*
X123580213Y-65009890D01*
X123429890Y-65160213D01*
X123304951Y-65332179D01*
X123208444Y-65521585D01*
X123142753Y-65723760D01*
X123109500Y-65933713D01*
X123109500Y-66146287D01*
X123142754Y-66356243D01*
X123170430Y-66441422D01*
X123208444Y-66558414D01*
X123304951Y-66747820D01*
X123429890Y-66919786D01*
X123580213Y-67070109D01*
X123752182Y-67195050D01*
X123760946Y-67199516D01*
X123811742Y-67247491D01*
X123828536Y-67315312D01*
X123805998Y-67381447D01*
X123760946Y-67420484D01*
X123752182Y-67424949D01*
X123580213Y-67549890D01*
X123429890Y-67700213D01*
X123304951Y-67872179D01*
X123208444Y-68061585D01*
X123142753Y-68263760D01*
X123129649Y-68346498D01*
X123109500Y-68473713D01*
X123109500Y-68686287D01*
X123142754Y-68896243D01*
X123205803Y-69090288D01*
X123208444Y-69098414D01*
X123304951Y-69287820D01*
X123429890Y-69459786D01*
X123580213Y-69610109D01*
X123752182Y-69735050D01*
X123760946Y-69739516D01*
X123811742Y-69787491D01*
X123828536Y-69855312D01*
X123805998Y-69921447D01*
X123760946Y-69960484D01*
X123752182Y-69964949D01*
X123580213Y-70089890D01*
X123429890Y-70240213D01*
X123304951Y-70412179D01*
X123208444Y-70601585D01*
X123142753Y-70803760D01*
X123109500Y-71013713D01*
X123109500Y-71226287D01*
X123142754Y-71436243D01*
X123170430Y-71521422D01*
X123208444Y-71638414D01*
X123304951Y-71827820D01*
X123429890Y-71999786D01*
X123580213Y-72150109D01*
X123752182Y-72275050D01*
X123760946Y-72279516D01*
X123811742Y-72327491D01*
X123828536Y-72395312D01*
X123805998Y-72461447D01*
X123760946Y-72500484D01*
X123752182Y-72504949D01*
X123580213Y-72629890D01*
X123429890Y-72780213D01*
X123304951Y-72952179D01*
X123208444Y-73141585D01*
X123142753Y-73343760D01*
X123109500Y-73553713D01*
X123109500Y-73766287D01*
X123142754Y-73976243D01*
X123170430Y-74061422D01*
X123208444Y-74178414D01*
X123304951Y-74367820D01*
X123429890Y-74539786D01*
X123580213Y-74690109D01*
X123752182Y-74815050D01*
X123760946Y-74819516D01*
X123811742Y-74867491D01*
X123828536Y-74935312D01*
X123805998Y-75001447D01*
X123760946Y-75040484D01*
X123752182Y-75044949D01*
X123580213Y-75169890D01*
X123429890Y-75320213D01*
X123304951Y-75492179D01*
X123208444Y-75681585D01*
X123208443Y-75681587D01*
X123208443Y-75681588D01*
X123190445Y-75736981D01*
X123142753Y-75883760D01*
X123111555Y-76080737D01*
X123109500Y-76093713D01*
X123109500Y-76306287D01*
X123142754Y-76516243D01*
X123205803Y-76710288D01*
X123208444Y-76718414D01*
X123304951Y-76907820D01*
X123429890Y-77079786D01*
X123580213Y-77230109D01*
X123752182Y-77355050D01*
X123760946Y-77359516D01*
X123811742Y-77407491D01*
X123828536Y-77475312D01*
X123805998Y-77541447D01*
X123760946Y-77580484D01*
X123752182Y-77584949D01*
X123580213Y-77709890D01*
X123429890Y-77860213D01*
X123304951Y-78032179D01*
X123208444Y-78221585D01*
X123142753Y-78423760D01*
X123109500Y-78633713D01*
X123109500Y-78846286D01*
X123133258Y-78996292D01*
X123142754Y-79056243D01*
X123207574Y-79255738D01*
X123208444Y-79258414D01*
X123304951Y-79447820D01*
X123429890Y-79619786D01*
X123580213Y-79770109D01*
X123752182Y-79895050D01*
X123760946Y-79899516D01*
X123811742Y-79947491D01*
X123828536Y-80015312D01*
X123805998Y-80081447D01*
X123760946Y-80120484D01*
X123752182Y-80124949D01*
X123580213Y-80249890D01*
X123429890Y-80400213D01*
X123304951Y-80572179D01*
X123208444Y-80761585D01*
X123142753Y-80963760D01*
X123109500Y-81173713D01*
X123109500Y-81386286D01*
X123142536Y-81594870D01*
X123142754Y-81596243D01*
X123204316Y-81785711D01*
X123208444Y-81798414D01*
X123304951Y-81987820D01*
X123429890Y-82159786D01*
X123580213Y-82310109D01*
X123752182Y-82435050D01*
X123760946Y-82439516D01*
X123811742Y-82487491D01*
X123828536Y-82555312D01*
X123805998Y-82621447D01*
X123760946Y-82660484D01*
X123752182Y-82664949D01*
X123580213Y-82789890D01*
X123429890Y-82940213D01*
X123304951Y-83112179D01*
X123208444Y-83301585D01*
X123142753Y-83503760D01*
X123109500Y-83713713D01*
X123109500Y-83926286D01*
X123141638Y-84129202D01*
X123142754Y-84136243D01*
X123198533Y-84307913D01*
X123208444Y-84338414D01*
X123304951Y-84527820D01*
X123429890Y-84699786D01*
X123580213Y-84850109D01*
X123752182Y-84975050D01*
X123760946Y-84979516D01*
X123811742Y-85027491D01*
X123828536Y-85095312D01*
X123805998Y-85161447D01*
X123760946Y-85200484D01*
X123752182Y-85204949D01*
X123580213Y-85329890D01*
X123429890Y-85480213D01*
X123304951Y-85652179D01*
X123208444Y-85841585D01*
X123208443Y-85841587D01*
X123208443Y-85841588D01*
X123207574Y-85844263D01*
X123142753Y-86043760D01*
X123133258Y-86103711D01*
X123109500Y-86253713D01*
X123109500Y-86466287D01*
X123142754Y-86676243D01*
X123198399Y-86847501D01*
X123208444Y-86878414D01*
X123304951Y-87067820D01*
X123429890Y-87239786D01*
X123580213Y-87390109D01*
X123752182Y-87515050D01*
X123760946Y-87519516D01*
X123811742Y-87567491D01*
X123828536Y-87635312D01*
X123805998Y-87701447D01*
X123760946Y-87740484D01*
X123752182Y-87744949D01*
X123580213Y-87869890D01*
X123429890Y-88020213D01*
X123304951Y-88192179D01*
X123208444Y-88381585D01*
X123142753Y-88583760D01*
X123109500Y-88793713D01*
X123109500Y-89006287D01*
X123142754Y-89216243D01*
X123205649Y-89409814D01*
X123208444Y-89418414D01*
X123304951Y-89607820D01*
X123429890Y-89779786D01*
X123580213Y-89930109D01*
X123752182Y-90055050D01*
X123760946Y-90059516D01*
X123811742Y-90107491D01*
X123828536Y-90175312D01*
X123805998Y-90241447D01*
X123760946Y-90280484D01*
X123752182Y-90284949D01*
X123580213Y-90409890D01*
X123429890Y-90560213D01*
X123304951Y-90732179D01*
X123208444Y-90921585D01*
X123142753Y-91123760D01*
X123109500Y-91333713D01*
X123109500Y-91546287D01*
X123142754Y-91756243D01*
X123170430Y-91841422D01*
X123208444Y-91958414D01*
X123304951Y-92147820D01*
X123429890Y-92319786D01*
X123580213Y-92470109D01*
X123752182Y-92595050D01*
X123760946Y-92599516D01*
X123811742Y-92647491D01*
X123828536Y-92715312D01*
X123805998Y-92781447D01*
X123760946Y-92820484D01*
X123752182Y-92824949D01*
X123580213Y-92949890D01*
X123429890Y-93100213D01*
X123304951Y-93272179D01*
X123208444Y-93461585D01*
X123142753Y-93663760D01*
X123109500Y-93873713D01*
X123109500Y-94086286D01*
X123134829Y-94246211D01*
X123142754Y-94296243D01*
X123205324Y-94488814D01*
X123208444Y-94498414D01*
X123304951Y-94687820D01*
X123429890Y-94859786D01*
X123580213Y-95010109D01*
X123752182Y-95135050D01*
X123760946Y-95139516D01*
X123811742Y-95187491D01*
X123828536Y-95255312D01*
X123805998Y-95321447D01*
X123760946Y-95360484D01*
X123752182Y-95364949D01*
X123580213Y-95489890D01*
X123429890Y-95640213D01*
X123304951Y-95812179D01*
X123208444Y-96001585D01*
X123142753Y-96203760D01*
X123129649Y-96286498D01*
X123109500Y-96413713D01*
X123109500Y-96626287D01*
X123142754Y-96836243D01*
X123205803Y-97030288D01*
X123208444Y-97038414D01*
X123304951Y-97227820D01*
X123429890Y-97399786D01*
X123580213Y-97550109D01*
X123752182Y-97675050D01*
X123760946Y-97679516D01*
X123811742Y-97727491D01*
X123828536Y-97795312D01*
X123805998Y-97861447D01*
X123760946Y-97900484D01*
X123752182Y-97904949D01*
X123580213Y-98029890D01*
X123429890Y-98180213D01*
X123304951Y-98352179D01*
X123208444Y-98541585D01*
X123208443Y-98541587D01*
X123208443Y-98541588D01*
X123207574Y-98544263D01*
X123142753Y-98743760D01*
X123133258Y-98803711D01*
X123109500Y-98953713D01*
X123109500Y-99166287D01*
X123142754Y-99376243D01*
X123204470Y-99566185D01*
X123208444Y-99578414D01*
X123304951Y-99767820D01*
X123429890Y-99939786D01*
X123580213Y-100090109D01*
X123752182Y-100215050D01*
X123760946Y-100219516D01*
X123811742Y-100267491D01*
X123828536Y-100335312D01*
X123805998Y-100401447D01*
X123760946Y-100440484D01*
X123752182Y-100444949D01*
X123580213Y-100569890D01*
X123429890Y-100720213D01*
X123304951Y-100892179D01*
X123208444Y-101081585D01*
X123142753Y-101283760D01*
X123111555Y-101480737D01*
X123109500Y-101493713D01*
X123109500Y-101706287D01*
X123142754Y-101916243D01*
X123170430Y-102001422D01*
X123208444Y-102118414D01*
X123304951Y-102307820D01*
X123429890Y-102479786D01*
X123580213Y-102630109D01*
X123752182Y-102755050D01*
X123760946Y-102759516D01*
X123811742Y-102807491D01*
X123828536Y-102875312D01*
X123805998Y-102941447D01*
X123760946Y-102980484D01*
X123752182Y-102984949D01*
X123580213Y-103109890D01*
X123429890Y-103260213D01*
X123304951Y-103432179D01*
X123208444Y-103621585D01*
X123142753Y-103823760D01*
X123109500Y-104033713D01*
X123109500Y-104246286D01*
X123139265Y-104434218D01*
X123142754Y-104456243D01*
X123170430Y-104541422D01*
X123208444Y-104658414D01*
X123304951Y-104847820D01*
X123429890Y-105019786D01*
X123580213Y-105170109D01*
X123752182Y-105295050D01*
X123760946Y-105299516D01*
X123811742Y-105347491D01*
X123828536Y-105415312D01*
X123805998Y-105481447D01*
X123760946Y-105520484D01*
X123752182Y-105524949D01*
X123580213Y-105649890D01*
X123429890Y-105800213D01*
X123304951Y-105972179D01*
X123208444Y-106161585D01*
X123142756Y-106363751D01*
X123142753Y-106363759D01*
X123118100Y-106519413D01*
X123109500Y-106573713D01*
X123109500Y-106786287D01*
X123142754Y-106996243D01*
X123200767Y-107174789D01*
X123208444Y-107198414D01*
X123304951Y-107387820D01*
X123429890Y-107559786D01*
X123580213Y-107710109D01*
X123752182Y-107835050D01*
X123760946Y-107839516D01*
X123811742Y-107887491D01*
X123828536Y-107955312D01*
X123805998Y-108021447D01*
X123760946Y-108060484D01*
X123752182Y-108064949D01*
X123580213Y-108189890D01*
X123429890Y-108340213D01*
X123304951Y-108512179D01*
X123208444Y-108701585D01*
X123142753Y-108903760D01*
X123109500Y-109113713D01*
X123109500Y-109326286D01*
X123142735Y-109536127D01*
X123142754Y-109536243D01*
X123205803Y-109730288D01*
X123208444Y-109738414D01*
X123304951Y-109927820D01*
X123429890Y-110099786D01*
X123580213Y-110250109D01*
X123752179Y-110375048D01*
X123752181Y-110375049D01*
X123752184Y-110375051D01*
X123941588Y-110471557D01*
X124143757Y-110537246D01*
X124353713Y-110570500D01*
X124353714Y-110570500D01*
X124566286Y-110570500D01*
X124566287Y-110570500D01*
X124776243Y-110537246D01*
X124978412Y-110471557D01*
X125167816Y-110375051D01*
X125222572Y-110335269D01*
X125339786Y-110250109D01*
X125339788Y-110250106D01*
X125339792Y-110250104D01*
X125490104Y-110099792D01*
X125490106Y-110099788D01*
X125490109Y-110099786D01*
X125613902Y-109929397D01*
X125615051Y-109927816D01*
X125711557Y-109738412D01*
X125749570Y-109621420D01*
X125789006Y-109563746D01*
X125853365Y-109536548D01*
X125922211Y-109548463D01*
X125973687Y-109595707D01*
X125991500Y-109659740D01*
X125991500Y-110754500D01*
X125971815Y-110821539D01*
X125919011Y-110867294D01*
X125867500Y-110878500D01*
X107812500Y-110878500D01*
X107745461Y-110858815D01*
X107699706Y-110806011D01*
X107688500Y-110754500D01*
X107688500Y-109658125D01*
X107708185Y-109591086D01*
X107760989Y-109545331D01*
X107830147Y-109535387D01*
X107893703Y-109564412D01*
X107930431Y-109619807D01*
X107968904Y-109738217D01*
X108065375Y-109927550D01*
X108104728Y-109981716D01*
X108737037Y-109349408D01*
X108754075Y-109412993D01*
X108819901Y-109527007D01*
X108912993Y-109620099D01*
X109027007Y-109685925D01*
X109090590Y-109702962D01*
X108458282Y-110335269D01*
X108458282Y-110335270D01*
X108512449Y-110374624D01*
X108701782Y-110471095D01*
X108903870Y-110536757D01*
X109113754Y-110570000D01*
X109326246Y-110570000D01*
X109536127Y-110536757D01*
X109536130Y-110536757D01*
X109738217Y-110471095D01*
X109927554Y-110374622D01*
X109981716Y-110335270D01*
X109981717Y-110335270D01*
X109349408Y-109702962D01*
X109412993Y-109685925D01*
X109527007Y-109620099D01*
X109620099Y-109527007D01*
X109685925Y-109412993D01*
X109702962Y-109349409D01*
X110335270Y-109981717D01*
X110335270Y-109981716D01*
X110374622Y-109927554D01*
X110471095Y-109738217D01*
X110525576Y-109570543D01*
X111519499Y-109570543D01*
X111557947Y-109763829D01*
X111557950Y-109763839D01*
X111633364Y-109945907D01*
X111633371Y-109945920D01*
X111742860Y-110109781D01*
X111742863Y-110109785D01*
X111882214Y-110249136D01*
X111882218Y-110249139D01*
X112046079Y-110358628D01*
X112046092Y-110358635D01*
X112228160Y-110434049D01*
X112228165Y-110434051D01*
X112228169Y-110434051D01*
X112228170Y-110434052D01*
X112421456Y-110472500D01*
X112421459Y-110472500D01*
X112618543Y-110472500D01*
X112748582Y-110446632D01*
X112811835Y-110434051D01*
X112993914Y-110358632D01*
X113157782Y-110249139D01*
X113297139Y-110109782D01*
X113406632Y-109945914D01*
X113482051Y-109763835D01*
X113510642Y-109620099D01*
X113520500Y-109570543D01*
X113520500Y-109268153D01*
X114007500Y-109268153D01*
X114007500Y-109425846D01*
X114038261Y-109580489D01*
X114038264Y-109580501D01*
X114098602Y-109726172D01*
X114098609Y-109726185D01*
X114186210Y-109857288D01*
X114186213Y-109857292D01*
X114297707Y-109968786D01*
X114297711Y-109968789D01*
X114428814Y-110056390D01*
X114428827Y-110056397D01*
X114557712Y-110109782D01*
X114574503Y-110116737D01*
X114729153Y-110147499D01*
X114729156Y-110147500D01*
X114729158Y-110147500D01*
X114886844Y-110147500D01*
X114886845Y-110147499D01*
X115041497Y-110116737D01*
X115187179Y-110056394D01*
X115318289Y-109968789D01*
X115429789Y-109857289D01*
X115517394Y-109726179D01*
X115577737Y-109580497D01*
X115608500Y-109425842D01*
X115608500Y-109268158D01*
X115608500Y-109268155D01*
X115608499Y-109268153D01*
X115586839Y-109159257D01*
X115583238Y-109141153D01*
X118198500Y-109141153D01*
X118198500Y-109298846D01*
X118229261Y-109453489D01*
X118229264Y-109453501D01*
X118289602Y-109599172D01*
X118289609Y-109599185D01*
X118377210Y-109730288D01*
X118377213Y-109730292D01*
X118488707Y-109841786D01*
X118488711Y-109841789D01*
X118619814Y-109929390D01*
X118619827Y-109929397D01*
X118746138Y-109981716D01*
X118765503Y-109989737D01*
X118920153Y-110020499D01*
X118920156Y-110020500D01*
X118920158Y-110020500D01*
X119077844Y-110020500D01*
X119077845Y-110020499D01*
X119232497Y-109989737D01*
X119378179Y-109929394D01*
X119509289Y-109841789D01*
X119620789Y-109730289D01*
X119708394Y-109599179D01*
X119720255Y-109570543D01*
X120159499Y-109570543D01*
X120197947Y-109763829D01*
X120197950Y-109763839D01*
X120273364Y-109945907D01*
X120273371Y-109945920D01*
X120382860Y-110109781D01*
X120382863Y-110109785D01*
X120522214Y-110249136D01*
X120522218Y-110249139D01*
X120686079Y-110358628D01*
X120686092Y-110358635D01*
X120868160Y-110434049D01*
X120868165Y-110434051D01*
X120868169Y-110434051D01*
X120868170Y-110434052D01*
X121061456Y-110472500D01*
X121061459Y-110472500D01*
X121258543Y-110472500D01*
X121388582Y-110446632D01*
X121451835Y-110434051D01*
X121633914Y-110358632D01*
X121797782Y-110249139D01*
X121937139Y-110109782D01*
X122046632Y-109945914D01*
X122122051Y-109763835D01*
X122150642Y-109620099D01*
X122160500Y-109570543D01*
X122160500Y-108773456D01*
X122122052Y-108580170D01*
X122122051Y-108580169D01*
X122122051Y-108580165D01*
X122108107Y-108546500D01*
X122046635Y-108398092D01*
X122046628Y-108398079D01*
X121937139Y-108234218D01*
X121937136Y-108234214D01*
X121797785Y-108094863D01*
X121797781Y-108094860D01*
X121633920Y-107985371D01*
X121633907Y-107985364D01*
X121451839Y-107909950D01*
X121451829Y-107909947D01*
X121258543Y-107871500D01*
X121258541Y-107871500D01*
X121061459Y-107871500D01*
X121061457Y-107871500D01*
X120868170Y-107909947D01*
X120868160Y-107909950D01*
X120686092Y-107985364D01*
X120686079Y-107985371D01*
X120522218Y-108094860D01*
X120522214Y-108094863D01*
X120382863Y-108234214D01*
X120382860Y-108234218D01*
X120273371Y-108398079D01*
X120273364Y-108398092D01*
X120197950Y-108580160D01*
X120197947Y-108580170D01*
X120159500Y-108773456D01*
X120159500Y-108773459D01*
X120159500Y-109570541D01*
X120159500Y-109570543D01*
X120159499Y-109570543D01*
X119720255Y-109570543D01*
X119768737Y-109453497D01*
X119799500Y-109298842D01*
X119799500Y-109141158D01*
X119799500Y-109141155D01*
X119799499Y-109141153D01*
X119768738Y-108986510D01*
X119768737Y-108986503D01*
X119760996Y-108967814D01*
X119708397Y-108840827D01*
X119708388Y-108840811D01*
X119705345Y-108836256D01*
X119620789Y-108709711D01*
X119620786Y-108709707D01*
X119509292Y-108598213D01*
X119509288Y-108598210D01*
X119378185Y-108510609D01*
X119378172Y-108510602D01*
X119232501Y-108450264D01*
X119232489Y-108450261D01*
X119077845Y-108419500D01*
X119077842Y-108419500D01*
X118920158Y-108419500D01*
X118920155Y-108419500D01*
X118765510Y-108450261D01*
X118765498Y-108450264D01*
X118619827Y-108510602D01*
X118619814Y-108510609D01*
X118488711Y-108598210D01*
X118488707Y-108598213D01*
X118377213Y-108709707D01*
X118377210Y-108709711D01*
X118289609Y-108840814D01*
X118289602Y-108840827D01*
X118229264Y-108986498D01*
X118229261Y-108986510D01*
X118198500Y-109141153D01*
X115583238Y-109141153D01*
X115577738Y-109113508D01*
X115577737Y-109113507D01*
X115577737Y-109113503D01*
X115577735Y-109113498D01*
X115517397Y-108967827D01*
X115517390Y-108967814D01*
X115429789Y-108836711D01*
X115429786Y-108836707D01*
X115318292Y-108725213D01*
X115318288Y-108725210D01*
X115187185Y-108637609D01*
X115187172Y-108637602D01*
X115041501Y-108577264D01*
X115041489Y-108577261D01*
X114886845Y-108546500D01*
X114886842Y-108546500D01*
X114729158Y-108546500D01*
X114729155Y-108546500D01*
X114574510Y-108577261D01*
X114574498Y-108577264D01*
X114428827Y-108637602D01*
X114428814Y-108637609D01*
X114297711Y-108725210D01*
X114297707Y-108725213D01*
X114186213Y-108836707D01*
X114186210Y-108836711D01*
X114098609Y-108967814D01*
X114098602Y-108967827D01*
X114038264Y-109113498D01*
X114038261Y-109113510D01*
X114007500Y-109268153D01*
X113520500Y-109268153D01*
X113520500Y-108773456D01*
X113482052Y-108580170D01*
X113482051Y-108580169D01*
X113482051Y-108580165D01*
X113468107Y-108546500D01*
X113406635Y-108398092D01*
X113406628Y-108398079D01*
X113297139Y-108234218D01*
X113297136Y-108234214D01*
X113157785Y-108094863D01*
X113157781Y-108094860D01*
X112993920Y-107985371D01*
X112993907Y-107985364D01*
X112811839Y-107909950D01*
X112811829Y-107909947D01*
X112618543Y-107871500D01*
X112618541Y-107871500D01*
X112421459Y-107871500D01*
X112421457Y-107871500D01*
X112228170Y-107909947D01*
X112228160Y-107909950D01*
X112046092Y-107985364D01*
X112046079Y-107985371D01*
X111882218Y-108094860D01*
X111882214Y-108094863D01*
X111742863Y-108234214D01*
X111742860Y-108234218D01*
X111633371Y-108398079D01*
X111633364Y-108398092D01*
X111557950Y-108580160D01*
X111557947Y-108580170D01*
X111519500Y-108773456D01*
X111519500Y-108773459D01*
X111519500Y-109570541D01*
X111519500Y-109570543D01*
X111519499Y-109570543D01*
X110525576Y-109570543D01*
X110536757Y-109536130D01*
X110536757Y-109536127D01*
X110570000Y-109326246D01*
X110570000Y-109113753D01*
X110536757Y-108903872D01*
X110536757Y-108903869D01*
X110504855Y-108805685D01*
X110471095Y-108701782D01*
X110374624Y-108512449D01*
X110335270Y-108458282D01*
X110335269Y-108458282D01*
X109702962Y-109090590D01*
X109685925Y-109027007D01*
X109620099Y-108912993D01*
X109527007Y-108819901D01*
X109412993Y-108754075D01*
X109349409Y-108737037D01*
X109981716Y-108104728D01*
X109927547Y-108065373D01*
X109927547Y-108065372D01*
X109918500Y-108060763D01*
X109867706Y-108012788D01*
X109850912Y-107944966D01*
X109873451Y-107878832D01*
X109918508Y-107839793D01*
X109927816Y-107835051D01*
X110007007Y-107777515D01*
X110099786Y-107710109D01*
X110099788Y-107710106D01*
X110099792Y-107710104D01*
X110250104Y-107559792D01*
X110250106Y-107559788D01*
X110250109Y-107559786D01*
X110375048Y-107387820D01*
X110375047Y-107387820D01*
X110375051Y-107387816D01*
X110471557Y-107198412D01*
X110537246Y-106996243D01*
X110570500Y-106786287D01*
X110570500Y-106573713D01*
X110537246Y-106363757D01*
X110471557Y-106161588D01*
X110375051Y-105972184D01*
X110375049Y-105972181D01*
X110375048Y-105972179D01*
X110250109Y-105800213D01*
X110220439Y-105770543D01*
X111519499Y-105770543D01*
X111557947Y-105963829D01*
X111557950Y-105963839D01*
X111633364Y-106145907D01*
X111633371Y-106145920D01*
X111742860Y-106309781D01*
X111742863Y-106309785D01*
X111882214Y-106449136D01*
X111882218Y-106449139D01*
X112046079Y-106558628D01*
X112046092Y-106558635D01*
X112228160Y-106634049D01*
X112228165Y-106634051D01*
X112228169Y-106634051D01*
X112228170Y-106634052D01*
X112421456Y-106672500D01*
X112421459Y-106672500D01*
X112618543Y-106672500D01*
X112748582Y-106646632D01*
X112811835Y-106634051D01*
X112957505Y-106573713D01*
X112993907Y-106558635D01*
X112993907Y-106558634D01*
X112993914Y-106558632D01*
X113052610Y-106519412D01*
X113119285Y-106498535D01*
X113186666Y-106517019D01*
X113233356Y-106568997D01*
X113245500Y-106622515D01*
X113245500Y-106631846D01*
X113276261Y-106786489D01*
X113276264Y-106786501D01*
X113336602Y-106932172D01*
X113336609Y-106932185D01*
X113424210Y-107063288D01*
X113424213Y-107063292D01*
X113535707Y-107174786D01*
X113535711Y-107174789D01*
X113666814Y-107262390D01*
X113666827Y-107262397D01*
X113812498Y-107322735D01*
X113812503Y-107322737D01*
X113967153Y-107353499D01*
X113967156Y-107353500D01*
X113967158Y-107353500D01*
X114124844Y-107353500D01*
X114124845Y-107353499D01*
X114279497Y-107322737D01*
X114425179Y-107262394D01*
X114556289Y-107174789D01*
X114667789Y-107063289D01*
X114755394Y-106932179D01*
X114815737Y-106786497D01*
X114846500Y-106631842D01*
X114846500Y-106474158D01*
X114846500Y-106474155D01*
X114846499Y-106474153D01*
X118833500Y-106474153D01*
X118833500Y-106631846D01*
X118864261Y-106786489D01*
X118864264Y-106786501D01*
X118924602Y-106932172D01*
X118924609Y-106932185D01*
X119012210Y-107063288D01*
X119012213Y-107063292D01*
X119123707Y-107174786D01*
X119123711Y-107174789D01*
X119254814Y-107262390D01*
X119254827Y-107262397D01*
X119400498Y-107322735D01*
X119400503Y-107322737D01*
X119555153Y-107353499D01*
X119555156Y-107353500D01*
X119555158Y-107353500D01*
X119712844Y-107353500D01*
X119712845Y-107353499D01*
X119867497Y-107322737D01*
X120013179Y-107262394D01*
X120144289Y-107174789D01*
X120255789Y-107063289D01*
X120343394Y-106932179D01*
X120403737Y-106786497D01*
X120434500Y-106631842D01*
X120434500Y-106622515D01*
X120454185Y-106555476D01*
X120506989Y-106509721D01*
X120576147Y-106499777D01*
X120627388Y-106519411D01*
X120686086Y-106558632D01*
X120686088Y-106558633D01*
X120686092Y-106558635D01*
X120868160Y-106634049D01*
X120868165Y-106634051D01*
X120868169Y-106634051D01*
X120868170Y-106634052D01*
X121061456Y-106672500D01*
X121061459Y-106672500D01*
X121258543Y-106672500D01*
X121388582Y-106646632D01*
X121451835Y-106634051D01*
X121597505Y-106573713D01*
X121633907Y-106558635D01*
X121633907Y-106558634D01*
X121633914Y-106558632D01*
X121797782Y-106449139D01*
X121937139Y-106309782D01*
X122046632Y-106145914D01*
X122122051Y-105963835D01*
X122157490Y-105785673D01*
X122160500Y-105770543D01*
X122160500Y-104973456D01*
X122122052Y-104780170D01*
X122122051Y-104780169D01*
X122122051Y-104780165D01*
X122122049Y-104780160D01*
X122046635Y-104598092D01*
X122046628Y-104598079D01*
X121937139Y-104434218D01*
X121937136Y-104434214D01*
X121797785Y-104294863D01*
X121797781Y-104294860D01*
X121633920Y-104185371D01*
X121633907Y-104185364D01*
X121500343Y-104130041D01*
X121445939Y-104086200D01*
X121423874Y-104019906D01*
X121441153Y-103952207D01*
X121444693Y-103946589D01*
X121461696Y-103921142D01*
X121486394Y-103884179D01*
X121546737Y-103738497D01*
X121577500Y-103583842D01*
X121577500Y-103426158D01*
X121577500Y-103426155D01*
X121577499Y-103426153D01*
X121546738Y-103271510D01*
X121546737Y-103271503D01*
X121542061Y-103260213D01*
X121486397Y-103125827D01*
X121486390Y-103125814D01*
X121398789Y-102994711D01*
X121398786Y-102994707D01*
X121287292Y-102883213D01*
X121287288Y-102883210D01*
X121156185Y-102795609D01*
X121156172Y-102795602D01*
X121010501Y-102735264D01*
X121010489Y-102735261D01*
X120855845Y-102704500D01*
X120855842Y-102704500D01*
X120698158Y-102704500D01*
X120698155Y-102704500D01*
X120543510Y-102735261D01*
X120543498Y-102735264D01*
X120397827Y-102795602D01*
X120397814Y-102795609D01*
X120266711Y-102883210D01*
X120266707Y-102883213D01*
X120155213Y-102994707D01*
X120155210Y-102994711D01*
X120067609Y-103125814D01*
X120067602Y-103125827D01*
X120007264Y-103271498D01*
X120007261Y-103271510D01*
X119976500Y-103426153D01*
X119976500Y-103583846D01*
X120007261Y-103738489D01*
X120007264Y-103738501D01*
X120067602Y-103884172D01*
X120067609Y-103884185D01*
X120155210Y-104015288D01*
X120155213Y-104015292D01*
X120266710Y-104126789D01*
X120394997Y-104212507D01*
X120439802Y-104266119D01*
X120448509Y-104335444D01*
X120418355Y-104398471D01*
X120413788Y-104403289D01*
X120382864Y-104434213D01*
X120382860Y-104434218D01*
X120273371Y-104598079D01*
X120273364Y-104598092D01*
X120197950Y-104780160D01*
X120197947Y-104780170D01*
X120159500Y-104973456D01*
X120159500Y-105718634D01*
X120139815Y-105785673D01*
X120087011Y-105831428D01*
X120017853Y-105841372D01*
X119988049Y-105833196D01*
X119905707Y-105799090D01*
X119867497Y-105783263D01*
X119867493Y-105783262D01*
X119867489Y-105783261D01*
X119712845Y-105752500D01*
X119712842Y-105752500D01*
X119555158Y-105752500D01*
X119555155Y-105752500D01*
X119400510Y-105783261D01*
X119400498Y-105783264D01*
X119254827Y-105843602D01*
X119254814Y-105843609D01*
X119123711Y-105931210D01*
X119123707Y-105931213D01*
X119012213Y-106042707D01*
X119012210Y-106042711D01*
X118924609Y-106173814D01*
X118924602Y-106173827D01*
X118864264Y-106319498D01*
X118864261Y-106319510D01*
X118833500Y-106474153D01*
X114846499Y-106474153D01*
X114824540Y-106363759D01*
X114815737Y-106319503D01*
X114811712Y-106309785D01*
X114755397Y-106173827D01*
X114755390Y-106173814D01*
X114667789Y-106042711D01*
X114667786Y-106042707D01*
X114556292Y-105931213D01*
X114556288Y-105931210D01*
X114425185Y-105843609D01*
X114425172Y-105843602D01*
X114279501Y-105783264D01*
X114279489Y-105783261D01*
X114124845Y-105752500D01*
X114124842Y-105752500D01*
X113967158Y-105752500D01*
X113967155Y-105752500D01*
X113812510Y-105783261D01*
X113812503Y-105783263D01*
X113691951Y-105833196D01*
X113622482Y-105840664D01*
X113560003Y-105809388D01*
X113524351Y-105749299D01*
X113520500Y-105718634D01*
X113520500Y-104973456D01*
X113482052Y-104780170D01*
X113482051Y-104780169D01*
X113482051Y-104780165D01*
X113482049Y-104780160D01*
X113406635Y-104598092D01*
X113406628Y-104598079D01*
X113297139Y-104434218D01*
X113297136Y-104434214D01*
X113157785Y-104294863D01*
X113157781Y-104294860D01*
X113114802Y-104266142D01*
X113069997Y-104212529D01*
X113061290Y-104143204D01*
X113091445Y-104080177D01*
X113150888Y-104043458D01*
X113159502Y-104041423D01*
X113263497Y-104020737D01*
X113409179Y-103960394D01*
X113540289Y-103872789D01*
X113651789Y-103761289D01*
X113739394Y-103630179D01*
X113742953Y-103621588D01*
X113799735Y-103484501D01*
X113799737Y-103484497D01*
X113830500Y-103329842D01*
X113830500Y-103172158D01*
X113830500Y-103172155D01*
X113830499Y-103172153D01*
X113821283Y-103125821D01*
X113799737Y-103017503D01*
X113784404Y-102980486D01*
X113739397Y-102871827D01*
X113739390Y-102871814D01*
X113651789Y-102740711D01*
X113651786Y-102740707D01*
X113540292Y-102629213D01*
X113540288Y-102629210D01*
X113409185Y-102541609D01*
X113409172Y-102541602D01*
X113263501Y-102481264D01*
X113263489Y-102481261D01*
X113108845Y-102450500D01*
X113108842Y-102450500D01*
X112951158Y-102450500D01*
X112951155Y-102450500D01*
X112796510Y-102481261D01*
X112796498Y-102481264D01*
X112650827Y-102541602D01*
X112650814Y-102541609D01*
X112519711Y-102629210D01*
X112519707Y-102629213D01*
X112408213Y-102740707D01*
X112408210Y-102740711D01*
X112320609Y-102871814D01*
X112320602Y-102871827D01*
X112260264Y-103017498D01*
X112260261Y-103017510D01*
X112229500Y-103172153D01*
X112229500Y-103329846D01*
X112260261Y-103484489D01*
X112260264Y-103484501D01*
X112320602Y-103630172D01*
X112320609Y-103630185D01*
X112408210Y-103761288D01*
X112408213Y-103761292D01*
X112506740Y-103859819D01*
X112540225Y-103921142D01*
X112535241Y-103990834D01*
X112493369Y-104046767D01*
X112427905Y-104071184D01*
X112422821Y-104071365D01*
X112421456Y-104071499D01*
X112228170Y-104109947D01*
X112228160Y-104109950D01*
X112046092Y-104185364D01*
X112046079Y-104185371D01*
X111882218Y-104294860D01*
X111882214Y-104294863D01*
X111742863Y-104434214D01*
X111742860Y-104434218D01*
X111633371Y-104598079D01*
X111633364Y-104598092D01*
X111557950Y-104780160D01*
X111557947Y-104780170D01*
X111519500Y-104973456D01*
X111519500Y-104973459D01*
X111519500Y-105770541D01*
X111519500Y-105770543D01*
X111519499Y-105770543D01*
X110220439Y-105770543D01*
X110099786Y-105649890D01*
X109927820Y-105524951D01*
X109927115Y-105524591D01*
X109919054Y-105520485D01*
X109868259Y-105472512D01*
X109851463Y-105404692D01*
X109873999Y-105338556D01*
X109919054Y-105299515D01*
X109927816Y-105295051D01*
X109949789Y-105279086D01*
X110099786Y-105170109D01*
X110099788Y-105170106D01*
X110099792Y-105170104D01*
X110250104Y-105019792D01*
X110375051Y-104847816D01*
X110471557Y-104658412D01*
X110537246Y-104456243D01*
X110570500Y-104246287D01*
X110570500Y-104033713D01*
X110537246Y-103823757D01*
X110471557Y-103621588D01*
X110375051Y-103432184D01*
X110375049Y-103432181D01*
X110375048Y-103432179D01*
X110250109Y-103260213D01*
X110099786Y-103109890D01*
X109927820Y-102984951D01*
X109927115Y-102984591D01*
X109919054Y-102980485D01*
X109868259Y-102932512D01*
X109851463Y-102864692D01*
X109873999Y-102798556D01*
X109919054Y-102759515D01*
X109927816Y-102755051D01*
X109997394Y-102704500D01*
X110099786Y-102630109D01*
X110099788Y-102630106D01*
X110099792Y-102630104D01*
X110250104Y-102479792D01*
X110250106Y-102479788D01*
X110250109Y-102479786D01*
X110375048Y-102307820D01*
X110375047Y-102307820D01*
X110375051Y-102307816D01*
X110471557Y-102118412D01*
X110537246Y-101916243D01*
X110570500Y-101706287D01*
X110570500Y-101493713D01*
X110537246Y-101283757D01*
X110471557Y-101081588D01*
X110375051Y-100892184D01*
X110375049Y-100892181D01*
X110375048Y-100892179D01*
X110250109Y-100720213D01*
X110162049Y-100632153D01*
X111975500Y-100632153D01*
X111975500Y-100789846D01*
X112006261Y-100944489D01*
X112006264Y-100944501D01*
X112066602Y-101090172D01*
X112066609Y-101090185D01*
X112154210Y-101221288D01*
X112154213Y-101221292D01*
X112265707Y-101332786D01*
X112265711Y-101332789D01*
X112396814Y-101420390D01*
X112396827Y-101420397D01*
X112542498Y-101480735D01*
X112542503Y-101480737D01*
X112697153Y-101511499D01*
X112697156Y-101511500D01*
X112697158Y-101511500D01*
X112854844Y-101511500D01*
X112854845Y-101511499D01*
X113009497Y-101480737D01*
X113155179Y-101420394D01*
X113286289Y-101332789D01*
X113397789Y-101221289D01*
X113485394Y-101090179D01*
X113488953Y-101081588D01*
X113545735Y-100944501D01*
X113545737Y-100944497D01*
X113576500Y-100789842D01*
X113576500Y-100632158D01*
X113576500Y-100632155D01*
X113576499Y-100632153D01*
X118833500Y-100632153D01*
X118833500Y-100789846D01*
X118864261Y-100944489D01*
X118864264Y-100944501D01*
X118924602Y-101090172D01*
X118924609Y-101090185D01*
X119012210Y-101221288D01*
X119012213Y-101221292D01*
X119123707Y-101332786D01*
X119123711Y-101332789D01*
X119254814Y-101420390D01*
X119254827Y-101420397D01*
X119400498Y-101480735D01*
X119400503Y-101480737D01*
X119555153Y-101511499D01*
X119555156Y-101511500D01*
X119555158Y-101511500D01*
X119712844Y-101511500D01*
X119712845Y-101511499D01*
X119867497Y-101480737D01*
X120013179Y-101420394D01*
X120144289Y-101332789D01*
X120255789Y-101221289D01*
X120343394Y-101090179D01*
X120346953Y-101081588D01*
X120403735Y-100944501D01*
X120403737Y-100944497D01*
X120434500Y-100789842D01*
X120434500Y-100632158D01*
X120434500Y-100632155D01*
X120434499Y-100632153D01*
X120403738Y-100477510D01*
X120403737Y-100477503D01*
X120388404Y-100440486D01*
X120343397Y-100331827D01*
X120343390Y-100331814D01*
X120255789Y-100200711D01*
X120255786Y-100200707D01*
X120144292Y-100089213D01*
X120144288Y-100089210D01*
X120013185Y-100001609D01*
X120013172Y-100001602D01*
X119867501Y-99941264D01*
X119867489Y-99941261D01*
X119712845Y-99910500D01*
X119712842Y-99910500D01*
X119555158Y-99910500D01*
X119555155Y-99910500D01*
X119400510Y-99941261D01*
X119400498Y-99941264D01*
X119254827Y-100001602D01*
X119254814Y-100001609D01*
X119123711Y-100089210D01*
X119123707Y-100089213D01*
X119012213Y-100200707D01*
X119012210Y-100200711D01*
X118924609Y-100331814D01*
X118924602Y-100331827D01*
X118864264Y-100477498D01*
X118864261Y-100477510D01*
X118833500Y-100632153D01*
X113576499Y-100632153D01*
X113545738Y-100477510D01*
X113545737Y-100477503D01*
X113530404Y-100440486D01*
X113485397Y-100331827D01*
X113485390Y-100331814D01*
X113397789Y-100200711D01*
X113397786Y-100200707D01*
X113286292Y-100089213D01*
X113286288Y-100089210D01*
X113155185Y-100001609D01*
X113155172Y-100001602D01*
X113009501Y-99941264D01*
X113009489Y-99941261D01*
X112854845Y-99910500D01*
X112854842Y-99910500D01*
X112697158Y-99910500D01*
X112697155Y-99910500D01*
X112542510Y-99941261D01*
X112542498Y-99941264D01*
X112396827Y-100001602D01*
X112396814Y-100001609D01*
X112265711Y-100089210D01*
X112265707Y-100089213D01*
X112154213Y-100200707D01*
X112154210Y-100200711D01*
X112066609Y-100331814D01*
X112066602Y-100331827D01*
X112006264Y-100477498D01*
X112006261Y-100477510D01*
X111975500Y-100632153D01*
X110162049Y-100632153D01*
X110099786Y-100569890D01*
X109927820Y-100444951D01*
X109927115Y-100444591D01*
X109919054Y-100440485D01*
X109868259Y-100392512D01*
X109851463Y-100324692D01*
X109873999Y-100258556D01*
X109919054Y-100219515D01*
X109927816Y-100215051D01*
X110066214Y-100114500D01*
X110099786Y-100090109D01*
X110099788Y-100090106D01*
X110099792Y-100090104D01*
X110250104Y-99939792D01*
X110250106Y-99939788D01*
X110250109Y-99939786D01*
X110375048Y-99767820D01*
X110375047Y-99767820D01*
X110375051Y-99767816D01*
X110471557Y-99578412D01*
X110537246Y-99376243D01*
X110559593Y-99235153D01*
X113499500Y-99235153D01*
X113499500Y-99392846D01*
X113530261Y-99547489D01*
X113530264Y-99547501D01*
X113590602Y-99693172D01*
X113590609Y-99693185D01*
X113678210Y-99824288D01*
X113678213Y-99824292D01*
X113789707Y-99935786D01*
X113789711Y-99935789D01*
X113920814Y-100023390D01*
X113920827Y-100023397D01*
X114066498Y-100083735D01*
X114066503Y-100083737D01*
X114221153Y-100114499D01*
X114221156Y-100114500D01*
X114221158Y-100114500D01*
X114378844Y-100114500D01*
X114378845Y-100114499D01*
X114533497Y-100083737D01*
X114679179Y-100023394D01*
X114810289Y-99935789D01*
X114921789Y-99824289D01*
X115009394Y-99693179D01*
X115069737Y-99547497D01*
X115100500Y-99392842D01*
X115100500Y-99235158D01*
X115100500Y-99235155D01*
X115100499Y-99235153D01*
X115078839Y-99126257D01*
X115075238Y-99108153D01*
X116547500Y-99108153D01*
X116547500Y-99265846D01*
X116578261Y-99420489D01*
X116578264Y-99420501D01*
X116638602Y-99566172D01*
X116638609Y-99566185D01*
X116726210Y-99697288D01*
X116726213Y-99697292D01*
X116837707Y-99808786D01*
X116837711Y-99808789D01*
X116968814Y-99896390D01*
X116968827Y-99896397D01*
X117114498Y-99956735D01*
X117114503Y-99956737D01*
X117269153Y-99987499D01*
X117269156Y-99987500D01*
X117269158Y-99987500D01*
X117426844Y-99987500D01*
X117426845Y-99987499D01*
X117581497Y-99956737D01*
X117727179Y-99896394D01*
X117858289Y-99808789D01*
X117969789Y-99697289D01*
X118057394Y-99566179D01*
X118117737Y-99420497D01*
X118148500Y-99265842D01*
X118148500Y-99108158D01*
X118148500Y-99108155D01*
X118148499Y-99108153D01*
X118142998Y-99080498D01*
X118117737Y-98953503D01*
X118109996Y-98934814D01*
X118057397Y-98807827D01*
X118057390Y-98807814D01*
X117969789Y-98676711D01*
X117969786Y-98676707D01*
X117858292Y-98565213D01*
X117858288Y-98565210D01*
X117727185Y-98477609D01*
X117727172Y-98477602D01*
X117581501Y-98417264D01*
X117581489Y-98417261D01*
X117426845Y-98386500D01*
X117426842Y-98386500D01*
X117269158Y-98386500D01*
X117269155Y-98386500D01*
X117114510Y-98417261D01*
X117114498Y-98417264D01*
X116968827Y-98477602D01*
X116968814Y-98477609D01*
X116837711Y-98565210D01*
X116837707Y-98565213D01*
X116726213Y-98676707D01*
X116726210Y-98676711D01*
X116638609Y-98807814D01*
X116638602Y-98807827D01*
X116578264Y-98953498D01*
X116578261Y-98953510D01*
X116547500Y-99108153D01*
X115075238Y-99108153D01*
X115069738Y-99080508D01*
X115069737Y-99080507D01*
X115069737Y-99080503D01*
X115069735Y-99080498D01*
X115009397Y-98934827D01*
X115009390Y-98934814D01*
X114921789Y-98803711D01*
X114921786Y-98803707D01*
X114810292Y-98692213D01*
X114810288Y-98692210D01*
X114679185Y-98604609D01*
X114679172Y-98604602D01*
X114533501Y-98544264D01*
X114533489Y-98544261D01*
X114378845Y-98513500D01*
X114378842Y-98513500D01*
X114221158Y-98513500D01*
X114221155Y-98513500D01*
X114066510Y-98544261D01*
X114066498Y-98544264D01*
X113920827Y-98604602D01*
X113920814Y-98604609D01*
X113789711Y-98692210D01*
X113789707Y-98692213D01*
X113678213Y-98803707D01*
X113678210Y-98803711D01*
X113590609Y-98934814D01*
X113590602Y-98934827D01*
X113530264Y-99080498D01*
X113530261Y-99080510D01*
X113499500Y-99235153D01*
X110559593Y-99235153D01*
X110570500Y-99166287D01*
X110570500Y-98953713D01*
X110537246Y-98743757D01*
X110471557Y-98541588D01*
X110375051Y-98352184D01*
X110375049Y-98352181D01*
X110375048Y-98352179D01*
X110250109Y-98180213D01*
X110099786Y-98029890D01*
X109927820Y-97904951D01*
X109927115Y-97904591D01*
X109919054Y-97900485D01*
X109868259Y-97852512D01*
X109851463Y-97784692D01*
X109873999Y-97718556D01*
X109919054Y-97679515D01*
X109927816Y-97675051D01*
X109949789Y-97659086D01*
X110099786Y-97550109D01*
X110099788Y-97550106D01*
X110099792Y-97550104D01*
X110250104Y-97399792D01*
X110250106Y-97399788D01*
X110250109Y-97399786D01*
X110373902Y-97229397D01*
X110375051Y-97227816D01*
X110471557Y-97038412D01*
X110537246Y-96836243D01*
X110570500Y-96626287D01*
X110570500Y-96441153D01*
X117309500Y-96441153D01*
X117309500Y-96598846D01*
X117340261Y-96753489D01*
X117340264Y-96753501D01*
X117400602Y-96899172D01*
X117400609Y-96899185D01*
X117488210Y-97030288D01*
X117488213Y-97030292D01*
X117599707Y-97141786D01*
X117599711Y-97141789D01*
X117730814Y-97229390D01*
X117730827Y-97229397D01*
X117876498Y-97289735D01*
X117876503Y-97289737D01*
X118031153Y-97320499D01*
X118031156Y-97320500D01*
X118031158Y-97320500D01*
X118188844Y-97320500D01*
X118188845Y-97320499D01*
X118343497Y-97289737D01*
X118489179Y-97229394D01*
X118620289Y-97141789D01*
X118731789Y-97030289D01*
X118819394Y-96899179D01*
X118879737Y-96753497D01*
X118910500Y-96598842D01*
X118910500Y-96441158D01*
X118910500Y-96441155D01*
X118910499Y-96441153D01*
X118879738Y-96286510D01*
X118879737Y-96286503D01*
X118840401Y-96191536D01*
X118819397Y-96140827D01*
X118819390Y-96140814D01*
X118731789Y-96009711D01*
X118731786Y-96009707D01*
X118620292Y-95898213D01*
X118620288Y-95898210D01*
X118489185Y-95810609D01*
X118489172Y-95810602D01*
X118343501Y-95750264D01*
X118343489Y-95750261D01*
X118188845Y-95719500D01*
X118188842Y-95719500D01*
X118031158Y-95719500D01*
X118031155Y-95719500D01*
X117876510Y-95750261D01*
X117876498Y-95750264D01*
X117730827Y-95810602D01*
X117730814Y-95810609D01*
X117599711Y-95898210D01*
X117599707Y-95898213D01*
X117488213Y-96009707D01*
X117488210Y-96009711D01*
X117400609Y-96140814D01*
X117400602Y-96140827D01*
X117340264Y-96286498D01*
X117340261Y-96286510D01*
X117309500Y-96441153D01*
X110570500Y-96441153D01*
X110570500Y-96413713D01*
X110537246Y-96203757D01*
X110471557Y-96001588D01*
X110375051Y-95812184D01*
X110375049Y-95812181D01*
X110375048Y-95812179D01*
X110250109Y-95640213D01*
X110099786Y-95489890D01*
X109927820Y-95364951D01*
X109927115Y-95364591D01*
X109919054Y-95360485D01*
X109868259Y-95312512D01*
X109851463Y-95244692D01*
X109873999Y-95178556D01*
X109919054Y-95139515D01*
X109927816Y-95135051D01*
X109973994Y-95101501D01*
X110099786Y-95010109D01*
X110099788Y-95010106D01*
X110099792Y-95010104D01*
X110250104Y-94859792D01*
X110258620Y-94848070D01*
X110301426Y-94789153D01*
X113881500Y-94789153D01*
X113881500Y-94946846D01*
X113912261Y-95101489D01*
X113912264Y-95101501D01*
X113972602Y-95247172D01*
X113972609Y-95247185D01*
X114060210Y-95378288D01*
X114060213Y-95378292D01*
X114171707Y-95489786D01*
X114171711Y-95489789D01*
X114302814Y-95577390D01*
X114302827Y-95577397D01*
X114448498Y-95637735D01*
X114448503Y-95637737D01*
X114603153Y-95668499D01*
X114603156Y-95668500D01*
X114603158Y-95668500D01*
X114760844Y-95668500D01*
X114760845Y-95668499D01*
X114915497Y-95637737D01*
X115061179Y-95577394D01*
X115192289Y-95489789D01*
X115303789Y-95378289D01*
X115391394Y-95247179D01*
X115451737Y-95101497D01*
X115482500Y-94946842D01*
X115482500Y-94789158D01*
X115482500Y-94789155D01*
X115482499Y-94789153D01*
X115462342Y-94687818D01*
X115451737Y-94634503D01*
X115395367Y-94498412D01*
X115391397Y-94488827D01*
X115391390Y-94488814D01*
X115303789Y-94357711D01*
X115303786Y-94357707D01*
X115192292Y-94246213D01*
X115192288Y-94246210D01*
X115061185Y-94158609D01*
X115061172Y-94158602D01*
X114915501Y-94098264D01*
X114915489Y-94098261D01*
X114760845Y-94067500D01*
X114760842Y-94067500D01*
X114603158Y-94067500D01*
X114603155Y-94067500D01*
X114448510Y-94098261D01*
X114448498Y-94098264D01*
X114302827Y-94158602D01*
X114302814Y-94158609D01*
X114171711Y-94246210D01*
X114171707Y-94246213D01*
X114060213Y-94357707D01*
X114060210Y-94357711D01*
X113972609Y-94488814D01*
X113972602Y-94488827D01*
X113912264Y-94634498D01*
X113912261Y-94634510D01*
X113881500Y-94789153D01*
X110301426Y-94789153D01*
X110358803Y-94710181D01*
X110375048Y-94687820D01*
X110375051Y-94687816D01*
X110471557Y-94498412D01*
X110537246Y-94296243D01*
X110570500Y-94086287D01*
X110570500Y-93873713D01*
X110537246Y-93663757D01*
X110471557Y-93461588D01*
X110375051Y-93272184D01*
X110375049Y-93272181D01*
X110375048Y-93272179D01*
X110250109Y-93100213D01*
X110099786Y-92949890D01*
X109927820Y-92824951D01*
X109927115Y-92824591D01*
X109919054Y-92820485D01*
X109868259Y-92772512D01*
X109851463Y-92704692D01*
X109873999Y-92638556D01*
X109919054Y-92599515D01*
X109927816Y-92595051D01*
X109949789Y-92579086D01*
X110099786Y-92470109D01*
X110099788Y-92470106D01*
X110099792Y-92470104D01*
X110250104Y-92319792D01*
X110250106Y-92319788D01*
X110250109Y-92319786D01*
X110375048Y-92147820D01*
X110375047Y-92147820D01*
X110375051Y-92147816D01*
X110471557Y-91958412D01*
X110537246Y-91756243D01*
X110570500Y-91546287D01*
X110570500Y-91333713D01*
X110537246Y-91123757D01*
X110471557Y-90921588D01*
X110375051Y-90732184D01*
X110375049Y-90732181D01*
X110375048Y-90732179D01*
X110250109Y-90560213D01*
X110099786Y-90409890D01*
X109927820Y-90284951D01*
X109927115Y-90284591D01*
X109919054Y-90280485D01*
X109868259Y-90232512D01*
X109851463Y-90164692D01*
X109873999Y-90098556D01*
X109919054Y-90059515D01*
X109927816Y-90055051D01*
X109972634Y-90022489D01*
X110099786Y-89930109D01*
X110099788Y-89930106D01*
X110099792Y-89930104D01*
X110250104Y-89779792D01*
X110250106Y-89779788D01*
X110250109Y-89779786D01*
X110300700Y-89710153D01*
X113880500Y-89710153D01*
X113880500Y-89867846D01*
X113911261Y-90022489D01*
X113911264Y-90022501D01*
X113971602Y-90168172D01*
X113971609Y-90168185D01*
X114059210Y-90299288D01*
X114059213Y-90299292D01*
X114170707Y-90410786D01*
X114170711Y-90410789D01*
X114301814Y-90498390D01*
X114301827Y-90498397D01*
X114447498Y-90558735D01*
X114447503Y-90558737D01*
X114602153Y-90589499D01*
X114602156Y-90589500D01*
X114602158Y-90589500D01*
X114759844Y-90589500D01*
X114759845Y-90589499D01*
X114914497Y-90558737D01*
X115060179Y-90498394D01*
X115191289Y-90410789D01*
X115302789Y-90299289D01*
X115390394Y-90168179D01*
X115450737Y-90022497D01*
X115481500Y-89867842D01*
X115481500Y-89710158D01*
X115481500Y-89710155D01*
X115481499Y-89710153D01*
X115465790Y-89631181D01*
X115450737Y-89555503D01*
X115450735Y-89555498D01*
X115390397Y-89409827D01*
X115390390Y-89409814D01*
X115302789Y-89278711D01*
X115302786Y-89278707D01*
X115191292Y-89167213D01*
X115191288Y-89167210D01*
X115060185Y-89079609D01*
X115060172Y-89079602D01*
X114914501Y-89019264D01*
X114914489Y-89019261D01*
X114759845Y-88988500D01*
X114759842Y-88988500D01*
X114602158Y-88988500D01*
X114602155Y-88988500D01*
X114447510Y-89019261D01*
X114447498Y-89019264D01*
X114301827Y-89079602D01*
X114301814Y-89079609D01*
X114170711Y-89167210D01*
X114170707Y-89167213D01*
X114059213Y-89278707D01*
X114059210Y-89278711D01*
X113971609Y-89409814D01*
X113971602Y-89409827D01*
X113911264Y-89555498D01*
X113911261Y-89555510D01*
X113880500Y-89710153D01*
X110300700Y-89710153D01*
X110358076Y-89631181D01*
X110364864Y-89621836D01*
X110375051Y-89607816D01*
X110471557Y-89418412D01*
X110537246Y-89216243D01*
X110570500Y-89006287D01*
X110570500Y-88793713D01*
X110537246Y-88583757D01*
X110471557Y-88381588D01*
X110375051Y-88192184D01*
X110375049Y-88192181D01*
X110375048Y-88192179D01*
X110250109Y-88020213D01*
X110099786Y-87869890D01*
X109927820Y-87744951D01*
X109927115Y-87744591D01*
X109919054Y-87740485D01*
X109868259Y-87692512D01*
X109851463Y-87624692D01*
X109873999Y-87558556D01*
X109919054Y-87519515D01*
X109927816Y-87515051D01*
X110066214Y-87414500D01*
X110099786Y-87390109D01*
X110099788Y-87390106D01*
X110099792Y-87390104D01*
X110250104Y-87239792D01*
X110250106Y-87239788D01*
X110250109Y-87239786D01*
X110375048Y-87067820D01*
X110375047Y-87067820D01*
X110375051Y-87067816D01*
X110471557Y-86878412D01*
X110537246Y-86676243D01*
X110559593Y-86535153D01*
X114642500Y-86535153D01*
X114642500Y-86692846D01*
X114673261Y-86847489D01*
X114673264Y-86847501D01*
X114733602Y-86993172D01*
X114733609Y-86993185D01*
X114821210Y-87124288D01*
X114821213Y-87124292D01*
X114932707Y-87235786D01*
X114932711Y-87235789D01*
X115063814Y-87323390D01*
X115063827Y-87323397D01*
X115209498Y-87383735D01*
X115209503Y-87383737D01*
X115364153Y-87414499D01*
X115364156Y-87414500D01*
X115364158Y-87414500D01*
X115521844Y-87414500D01*
X115521845Y-87414499D01*
X115676497Y-87383737D01*
X115822179Y-87323394D01*
X115953289Y-87235789D01*
X116064789Y-87124289D01*
X116152394Y-86993179D01*
X116212737Y-86847497D01*
X116243500Y-86692842D01*
X116243500Y-86535158D01*
X116243500Y-86535155D01*
X116243499Y-86535153D01*
X117182500Y-86535153D01*
X117182500Y-86692846D01*
X117213261Y-86847489D01*
X117213264Y-86847501D01*
X117273602Y-86993172D01*
X117273609Y-86993185D01*
X117361210Y-87124288D01*
X117361213Y-87124292D01*
X117472707Y-87235786D01*
X117472711Y-87235789D01*
X117603814Y-87323390D01*
X117603827Y-87323397D01*
X117749498Y-87383735D01*
X117749503Y-87383737D01*
X117904153Y-87414499D01*
X117904156Y-87414500D01*
X117904158Y-87414500D01*
X118061844Y-87414500D01*
X118061845Y-87414499D01*
X118216497Y-87383737D01*
X118362179Y-87323394D01*
X118493289Y-87235789D01*
X118604789Y-87124289D01*
X118692394Y-86993179D01*
X118752737Y-86847497D01*
X118783500Y-86692842D01*
X118783500Y-86535158D01*
X118783500Y-86535155D01*
X118783499Y-86535153D01*
X118778430Y-86509668D01*
X118752737Y-86380503D01*
X118752735Y-86380498D01*
X118692397Y-86234827D01*
X118692390Y-86234814D01*
X118604789Y-86103711D01*
X118604786Y-86103707D01*
X118493292Y-85992213D01*
X118493288Y-85992210D01*
X118362185Y-85904609D01*
X118362172Y-85904602D01*
X118216501Y-85844264D01*
X118216489Y-85844261D01*
X118061845Y-85813500D01*
X118061842Y-85813500D01*
X117904158Y-85813500D01*
X117904155Y-85813500D01*
X117749510Y-85844261D01*
X117749498Y-85844264D01*
X117603827Y-85904602D01*
X117603814Y-85904609D01*
X117472711Y-85992210D01*
X117472707Y-85992213D01*
X117361213Y-86103707D01*
X117361210Y-86103711D01*
X117273609Y-86234814D01*
X117273602Y-86234827D01*
X117213264Y-86380498D01*
X117213261Y-86380510D01*
X117182500Y-86535153D01*
X116243499Y-86535153D01*
X116238430Y-86509668D01*
X116212737Y-86380503D01*
X116212735Y-86380498D01*
X116152397Y-86234827D01*
X116152390Y-86234814D01*
X116064789Y-86103711D01*
X116064786Y-86103707D01*
X115953292Y-85992213D01*
X115953288Y-85992210D01*
X115822185Y-85904609D01*
X115822172Y-85904602D01*
X115676501Y-85844264D01*
X115676489Y-85844261D01*
X115521845Y-85813500D01*
X115521842Y-85813500D01*
X115364158Y-85813500D01*
X115364155Y-85813500D01*
X115209510Y-85844261D01*
X115209498Y-85844264D01*
X115063827Y-85904602D01*
X115063814Y-85904609D01*
X114932711Y-85992210D01*
X114932707Y-85992213D01*
X114821213Y-86103707D01*
X114821210Y-86103711D01*
X114733609Y-86234814D01*
X114733602Y-86234827D01*
X114673264Y-86380498D01*
X114673261Y-86380510D01*
X114642500Y-86535153D01*
X110559593Y-86535153D01*
X110570500Y-86466287D01*
X110570500Y-86253713D01*
X110537246Y-86043757D01*
X110471557Y-85841588D01*
X110375051Y-85652184D01*
X110375049Y-85652181D01*
X110375048Y-85652179D01*
X110250109Y-85480213D01*
X110099786Y-85329890D01*
X109927820Y-85204951D01*
X109927115Y-85204591D01*
X109919054Y-85200485D01*
X109868259Y-85152512D01*
X109851463Y-85084692D01*
X109873999Y-85018556D01*
X109919054Y-84979515D01*
X109927816Y-84975051D01*
X109949789Y-84959086D01*
X110099786Y-84850109D01*
X110099788Y-84850106D01*
X110099792Y-84850104D01*
X110250104Y-84699792D01*
X110250106Y-84699788D01*
X110250109Y-84699786D01*
X110375048Y-84527820D01*
X110375047Y-84527820D01*
X110375051Y-84527816D01*
X110471557Y-84338412D01*
X110537246Y-84136243D01*
X110570500Y-83926287D01*
X110570500Y-83713713D01*
X110537246Y-83503757D01*
X110512815Y-83428566D01*
X115285640Y-83428566D01*
X115285640Y-83586259D01*
X115316401Y-83740902D01*
X115316404Y-83740914D01*
X115376742Y-83886585D01*
X115376749Y-83886598D01*
X115464350Y-84017701D01*
X115464353Y-84017705D01*
X115575847Y-84129199D01*
X115575851Y-84129202D01*
X115706954Y-84216803D01*
X115706967Y-84216810D01*
X115810611Y-84259740D01*
X115852643Y-84277150D01*
X116007293Y-84307912D01*
X116007296Y-84307913D01*
X116007298Y-84307913D01*
X116164984Y-84307913D01*
X116164985Y-84307912D01*
X116319637Y-84277150D01*
X116465319Y-84216807D01*
X116596429Y-84129202D01*
X116707929Y-84017702D01*
X116795534Y-83886592D01*
X116855877Y-83740910D01*
X116886640Y-83586255D01*
X116886640Y-83428571D01*
X116886640Y-83428568D01*
X116886639Y-83428566D01*
X116861381Y-83301588D01*
X116855877Y-83273916D01*
X116810807Y-83165106D01*
X116795537Y-83128240D01*
X116795530Y-83128227D01*
X116707929Y-82997124D01*
X116707926Y-82997120D01*
X116596432Y-82885626D01*
X116596428Y-82885623D01*
X116465325Y-82798022D01*
X116465312Y-82798015D01*
X116319641Y-82737677D01*
X116319629Y-82737674D01*
X116164985Y-82706913D01*
X116164982Y-82706913D01*
X116007298Y-82706913D01*
X116007295Y-82706913D01*
X115852650Y-82737674D01*
X115852638Y-82737677D01*
X115706967Y-82798015D01*
X115706954Y-82798022D01*
X115575851Y-82885623D01*
X115575847Y-82885626D01*
X115464353Y-82997120D01*
X115464350Y-82997124D01*
X115376749Y-83128227D01*
X115376742Y-83128240D01*
X115316404Y-83273911D01*
X115316401Y-83273923D01*
X115285640Y-83428566D01*
X110512815Y-83428566D01*
X110471557Y-83301588D01*
X110375051Y-83112184D01*
X110375049Y-83112181D01*
X110375048Y-83112179D01*
X110250109Y-82940213D01*
X110099786Y-82789890D01*
X109927820Y-82664951D01*
X109927115Y-82664591D01*
X109919054Y-82660485D01*
X109868259Y-82612512D01*
X109851463Y-82544692D01*
X109873999Y-82478556D01*
X109919054Y-82439515D01*
X109927816Y-82435051D01*
X110010682Y-82374846D01*
X110099786Y-82310109D01*
X110099788Y-82310106D01*
X110099792Y-82310104D01*
X110192743Y-82217153D01*
X111848500Y-82217153D01*
X111848500Y-82374846D01*
X111879261Y-82529489D01*
X111879264Y-82529501D01*
X111939602Y-82675172D01*
X111939609Y-82675185D01*
X112027210Y-82806288D01*
X112027213Y-82806292D01*
X112138707Y-82917786D01*
X112138711Y-82917789D01*
X112269814Y-83005390D01*
X112269827Y-83005397D01*
X112415498Y-83065735D01*
X112415503Y-83065737D01*
X112570153Y-83096499D01*
X112570156Y-83096500D01*
X112570158Y-83096500D01*
X112727844Y-83096500D01*
X112727845Y-83096499D01*
X112882497Y-83065737D01*
X113028179Y-83005394D01*
X113159289Y-82917789D01*
X113270789Y-82806289D01*
X113358394Y-82675179D01*
X113418737Y-82529497D01*
X113449500Y-82374842D01*
X113449500Y-82285759D01*
X119944132Y-82285759D01*
X119944132Y-82443452D01*
X119974893Y-82598095D01*
X119974896Y-82598107D01*
X120035234Y-82743778D01*
X120035241Y-82743791D01*
X120122842Y-82874894D01*
X120122845Y-82874898D01*
X120234339Y-82986392D01*
X120234343Y-82986395D01*
X120365446Y-83073996D01*
X120365459Y-83074003D01*
X120496386Y-83128234D01*
X120511135Y-83134343D01*
X120665785Y-83165105D01*
X120665788Y-83165106D01*
X120665790Y-83165106D01*
X120823476Y-83165106D01*
X120823477Y-83165105D01*
X120978129Y-83134343D01*
X121123811Y-83074000D01*
X121254921Y-82986395D01*
X121366421Y-82874895D01*
X121454026Y-82743785D01*
X121514369Y-82598103D01*
X121545132Y-82443448D01*
X121545132Y-82285764D01*
X121545132Y-82285761D01*
X121545131Y-82285759D01*
X121520074Y-82159792D01*
X121514369Y-82131109D01*
X121485950Y-82062498D01*
X121454029Y-81985433D01*
X121454022Y-81985420D01*
X121366421Y-81854317D01*
X121366418Y-81854313D01*
X121254924Y-81742819D01*
X121254920Y-81742816D01*
X121123817Y-81655215D01*
X121123804Y-81655208D01*
X120978133Y-81594870D01*
X120978121Y-81594867D01*
X120823477Y-81564106D01*
X120823474Y-81564106D01*
X120665790Y-81564106D01*
X120665787Y-81564106D01*
X120511142Y-81594867D01*
X120511130Y-81594870D01*
X120365459Y-81655208D01*
X120365446Y-81655215D01*
X120234343Y-81742816D01*
X120234339Y-81742819D01*
X120122845Y-81854313D01*
X120122842Y-81854317D01*
X120035241Y-81985420D01*
X120035234Y-81985433D01*
X119974896Y-82131104D01*
X119974893Y-82131116D01*
X119944132Y-82285759D01*
X113449500Y-82285759D01*
X113449500Y-82217158D01*
X113449500Y-82217155D01*
X113449499Y-82217153D01*
X113438088Y-82159786D01*
X113418737Y-82062503D01*
X113386814Y-81985433D01*
X113358397Y-81916827D01*
X113358390Y-81916814D01*
X113270789Y-81785711D01*
X113270786Y-81785707D01*
X113159292Y-81674213D01*
X113159288Y-81674210D01*
X113028185Y-81586609D01*
X113028172Y-81586602D01*
X112882501Y-81526264D01*
X112882489Y-81526261D01*
X112727845Y-81495500D01*
X112727842Y-81495500D01*
X112570158Y-81495500D01*
X112570155Y-81495500D01*
X112415510Y-81526261D01*
X112415498Y-81526264D01*
X112269827Y-81586602D01*
X112269814Y-81586609D01*
X112138711Y-81674210D01*
X112138707Y-81674213D01*
X112027213Y-81785707D01*
X112027210Y-81785711D01*
X111939609Y-81916814D01*
X111939602Y-81916827D01*
X111879264Y-82062498D01*
X111879261Y-82062510D01*
X111848500Y-82217153D01*
X110192743Y-82217153D01*
X110250104Y-82159792D01*
X110250108Y-82159786D01*
X110265805Y-82138182D01*
X110265805Y-82138181D01*
X110320788Y-82062503D01*
X110375051Y-81987816D01*
X110471557Y-81798412D01*
X110537246Y-81596243D01*
X110570500Y-81386287D01*
X110570500Y-81173713D01*
X110537246Y-80963757D01*
X110471557Y-80761588D01*
X110375051Y-80572184D01*
X110375049Y-80572181D01*
X110375048Y-80572179D01*
X110250109Y-80400213D01*
X110162049Y-80312153D01*
X113626500Y-80312153D01*
X113626500Y-80469846D01*
X113657261Y-80624489D01*
X113657264Y-80624501D01*
X113717602Y-80770172D01*
X113717609Y-80770185D01*
X113805210Y-80901288D01*
X113805213Y-80901292D01*
X113916707Y-81012786D01*
X113916711Y-81012789D01*
X114047814Y-81100390D01*
X114047827Y-81100397D01*
X114193498Y-81160735D01*
X114193503Y-81160737D01*
X114348153Y-81191499D01*
X114348156Y-81191500D01*
X114348158Y-81191500D01*
X114505844Y-81191500D01*
X114505845Y-81191499D01*
X114660497Y-81160737D01*
X114806179Y-81100394D01*
X114937289Y-81012789D01*
X115048789Y-80901289D01*
X115103002Y-80820153D01*
X116293500Y-80820153D01*
X116293500Y-80977846D01*
X116324261Y-81132489D01*
X116324264Y-81132501D01*
X116384602Y-81278172D01*
X116384609Y-81278185D01*
X116472210Y-81409288D01*
X116472213Y-81409292D01*
X116583707Y-81520786D01*
X116583711Y-81520789D01*
X116714814Y-81608390D01*
X116714827Y-81608397D01*
X116860498Y-81668735D01*
X116860503Y-81668737D01*
X117015153Y-81699499D01*
X117015156Y-81699500D01*
X117015158Y-81699500D01*
X117172844Y-81699500D01*
X117172845Y-81699499D01*
X117327497Y-81668737D01*
X117440166Y-81622067D01*
X117473172Y-81608397D01*
X117473172Y-81608396D01*
X117473179Y-81608394D01*
X117604289Y-81520789D01*
X117715789Y-81409289D01*
X117803394Y-81278179D01*
X117863737Y-81132497D01*
X117894500Y-80977842D01*
X117894500Y-80820158D01*
X117894500Y-80820155D01*
X117894499Y-80820153D01*
X117883850Y-80766616D01*
X117863737Y-80665503D01*
X117846749Y-80624489D01*
X117803397Y-80519827D01*
X117803390Y-80519814D01*
X117715792Y-80388716D01*
X117715789Y-80388711D01*
X117715784Y-80388706D01*
X117715781Y-80388702D01*
X117639232Y-80312153D01*
X118452500Y-80312153D01*
X118452500Y-80469846D01*
X118483261Y-80624489D01*
X118483264Y-80624501D01*
X118543602Y-80770172D01*
X118543609Y-80770185D01*
X118631210Y-80901288D01*
X118631213Y-80901292D01*
X118742707Y-81012786D01*
X118742711Y-81012789D01*
X118873814Y-81100390D01*
X118873827Y-81100397D01*
X119019498Y-81160735D01*
X119019503Y-81160737D01*
X119174153Y-81191499D01*
X119174156Y-81191500D01*
X119174158Y-81191500D01*
X119331844Y-81191500D01*
X119331845Y-81191499D01*
X119486497Y-81160737D01*
X119632179Y-81100394D01*
X119763289Y-81012789D01*
X119874789Y-80901289D01*
X119962394Y-80770179D01*
X119965953Y-80761588D01*
X120022735Y-80624501D01*
X120022737Y-80624497D01*
X120053500Y-80469842D01*
X120053500Y-80312158D01*
X120053500Y-80312155D01*
X120053499Y-80312153D01*
X120046549Y-80277213D01*
X120022737Y-80157503D01*
X120007404Y-80120486D01*
X119962397Y-80011827D01*
X119962390Y-80011814D01*
X119874789Y-79880711D01*
X119874786Y-79880707D01*
X119763292Y-79769213D01*
X119763288Y-79769210D01*
X119632185Y-79681609D01*
X119632172Y-79681602D01*
X119486501Y-79621264D01*
X119486489Y-79621261D01*
X119331845Y-79590500D01*
X119331842Y-79590500D01*
X119174158Y-79590500D01*
X119174155Y-79590500D01*
X119019510Y-79621261D01*
X119019498Y-79621264D01*
X118873827Y-79681602D01*
X118873814Y-79681609D01*
X118742711Y-79769210D01*
X118742707Y-79769213D01*
X118631213Y-79880707D01*
X118631210Y-79880711D01*
X118543609Y-80011814D01*
X118543602Y-80011827D01*
X118483264Y-80157498D01*
X118483261Y-80157510D01*
X118452500Y-80312153D01*
X117639232Y-80312153D01*
X117604292Y-80277213D01*
X117604288Y-80277210D01*
X117473185Y-80189609D01*
X117473172Y-80189602D01*
X117327501Y-80129264D01*
X117327489Y-80129261D01*
X117172845Y-80098500D01*
X117172842Y-80098500D01*
X117015158Y-80098500D01*
X117015155Y-80098500D01*
X116860510Y-80129261D01*
X116860498Y-80129264D01*
X116714827Y-80189602D01*
X116714814Y-80189609D01*
X116583711Y-80277210D01*
X116583707Y-80277213D01*
X116472213Y-80388707D01*
X116472210Y-80388711D01*
X116384609Y-80519814D01*
X116384602Y-80519827D01*
X116324264Y-80665498D01*
X116324261Y-80665510D01*
X116293500Y-80820153D01*
X115103002Y-80820153D01*
X115136394Y-80770179D01*
X115139953Y-80761588D01*
X115196735Y-80624501D01*
X115196737Y-80624497D01*
X115227500Y-80469842D01*
X115227500Y-80312158D01*
X115227500Y-80312155D01*
X115227499Y-80312153D01*
X115220549Y-80277213D01*
X115196737Y-80157503D01*
X115181404Y-80120486D01*
X115136397Y-80011827D01*
X115136390Y-80011814D01*
X115048789Y-79880711D01*
X115048786Y-79880707D01*
X114937292Y-79769213D01*
X114937288Y-79769210D01*
X114806185Y-79681609D01*
X114806172Y-79681602D01*
X114660501Y-79621264D01*
X114660489Y-79621261D01*
X114505845Y-79590500D01*
X114505842Y-79590500D01*
X114348158Y-79590500D01*
X114348155Y-79590500D01*
X114193510Y-79621261D01*
X114193498Y-79621264D01*
X114047827Y-79681602D01*
X114047814Y-79681609D01*
X113916711Y-79769210D01*
X113916707Y-79769213D01*
X113805213Y-79880707D01*
X113805210Y-79880711D01*
X113717609Y-80011814D01*
X113717602Y-80011827D01*
X113657264Y-80157498D01*
X113657261Y-80157510D01*
X113626500Y-80312153D01*
X110162049Y-80312153D01*
X110099786Y-80249890D01*
X109927820Y-80124951D01*
X109927115Y-80124591D01*
X109919054Y-80120485D01*
X109868259Y-80072512D01*
X109851463Y-80004692D01*
X109873999Y-79938556D01*
X109919054Y-79899515D01*
X109927816Y-79895051D01*
X109949789Y-79879086D01*
X110099786Y-79770109D01*
X110099788Y-79770106D01*
X110099792Y-79770104D01*
X110250104Y-79619792D01*
X110250106Y-79619788D01*
X110250109Y-79619786D01*
X110375048Y-79447820D01*
X110375047Y-79447820D01*
X110375051Y-79447816D01*
X110471557Y-79258412D01*
X110537246Y-79056243D01*
X110570500Y-78846287D01*
X110570500Y-78633713D01*
X110537246Y-78423757D01*
X110471557Y-78221588D01*
X110375051Y-78032184D01*
X110375049Y-78032181D01*
X110375048Y-78032179D01*
X110250109Y-77860213D01*
X110099786Y-77709890D01*
X109927820Y-77584951D01*
X109927115Y-77584591D01*
X109919054Y-77580485D01*
X109868259Y-77532512D01*
X109851463Y-77464692D01*
X109873999Y-77398556D01*
X109919054Y-77359515D01*
X109927816Y-77355051D01*
X109972634Y-77322489D01*
X110099786Y-77230109D01*
X110099788Y-77230106D01*
X110099792Y-77230104D01*
X110250104Y-77079792D01*
X110250106Y-77079788D01*
X110250109Y-77079786D01*
X110373902Y-76909397D01*
X110375051Y-76907816D01*
X110376337Y-76905291D01*
X110377081Y-76904503D01*
X110377596Y-76903664D01*
X110377772Y-76903771D01*
X110424304Y-76854491D01*
X110492123Y-76837688D01*
X110558261Y-76860218D01*
X110601719Y-76914928D01*
X110608444Y-76937379D01*
X110609263Y-76941497D01*
X110609264Y-76941501D01*
X110669602Y-77087172D01*
X110669609Y-77087185D01*
X110757210Y-77218288D01*
X110757213Y-77218292D01*
X110868707Y-77329786D01*
X110868711Y-77329789D01*
X110999814Y-77417390D01*
X110999827Y-77417397D01*
X111122442Y-77468185D01*
X111145503Y-77477737D01*
X111300153Y-77508499D01*
X111300156Y-77508500D01*
X111300158Y-77508500D01*
X111457844Y-77508500D01*
X111457845Y-77508499D01*
X111612497Y-77477737D01*
X111758179Y-77417394D01*
X111889289Y-77329789D01*
X112000789Y-77218289D01*
X112088394Y-77087179D01*
X112120299Y-77010153D01*
X113118500Y-77010153D01*
X113118500Y-77167846D01*
X113149261Y-77322489D01*
X113149264Y-77322501D01*
X113209602Y-77468172D01*
X113209609Y-77468185D01*
X113297210Y-77599288D01*
X113297213Y-77599292D01*
X113408707Y-77710786D01*
X113408711Y-77710789D01*
X113539814Y-77798390D01*
X113539827Y-77798397D01*
X113685500Y-77858736D01*
X113690029Y-77860110D01*
X113748467Y-77898408D01*
X113776923Y-77962221D01*
X113766361Y-78031288D01*
X113757135Y-78047660D01*
X113717608Y-78106816D01*
X113717602Y-78106827D01*
X113657264Y-78252498D01*
X113657261Y-78252510D01*
X113626500Y-78407153D01*
X113626500Y-78564846D01*
X113657261Y-78719489D01*
X113657264Y-78719501D01*
X113717602Y-78865172D01*
X113717609Y-78865185D01*
X113805210Y-78996288D01*
X113805213Y-78996292D01*
X113916707Y-79107786D01*
X113916711Y-79107789D01*
X114047814Y-79195390D01*
X114047827Y-79195397D01*
X114193498Y-79255735D01*
X114193503Y-79255737D01*
X114348153Y-79286499D01*
X114348156Y-79286500D01*
X114348158Y-79286500D01*
X114505844Y-79286500D01*
X114505845Y-79286499D01*
X114660497Y-79255737D01*
X114806179Y-79195394D01*
X114937289Y-79107789D01*
X115048789Y-78996289D01*
X115136394Y-78865179D01*
X115196737Y-78719497D01*
X115227500Y-78564842D01*
X115227500Y-78407158D01*
X115227500Y-78407155D01*
X115227499Y-78407153D01*
X115213858Y-78338577D01*
X115196737Y-78252503D01*
X115183932Y-78221588D01*
X115136397Y-78106827D01*
X115136390Y-78106814D01*
X115048789Y-77975711D01*
X115048786Y-77975707D01*
X114937292Y-77864213D01*
X114937288Y-77864210D01*
X114806185Y-77776609D01*
X114806172Y-77776602D01*
X114660496Y-77716262D01*
X114655963Y-77714887D01*
X114597527Y-77676585D01*
X114569075Y-77612771D01*
X114579641Y-77543705D01*
X114588860Y-77527345D01*
X114628394Y-77468179D01*
X114688737Y-77322497D01*
X114719500Y-77167842D01*
X114719500Y-77010158D01*
X114719500Y-77010155D01*
X114719499Y-77010153D01*
X114708850Y-76956619D01*
X114688737Y-76855503D01*
X114660297Y-76786842D01*
X114628397Y-76709827D01*
X114628390Y-76709814D01*
X114540789Y-76578711D01*
X114540786Y-76578707D01*
X114429292Y-76467213D01*
X114429288Y-76467210D01*
X114298185Y-76379609D01*
X114298175Y-76379604D01*
X114223526Y-76348683D01*
X114169122Y-76304841D01*
X114147058Y-76238547D01*
X114164338Y-76170848D01*
X114215475Y-76123238D01*
X114246788Y-76112505D01*
X114251840Y-76111500D01*
X114251842Y-76111500D01*
X114406497Y-76080737D01*
X114552179Y-76020394D01*
X114683289Y-75932789D01*
X114729049Y-75887029D01*
X114790372Y-75853543D01*
X114860063Y-75858527D01*
X114915997Y-75900398D01*
X114919823Y-75905804D01*
X114920957Y-75907500D01*
X114948212Y-75948291D01*
X115059707Y-76059786D01*
X115059711Y-76059789D01*
X115190814Y-76147390D01*
X115190827Y-76147397D01*
X115312288Y-76197707D01*
X115336503Y-76207737D01*
X115444153Y-76229150D01*
X115491153Y-76238499D01*
X115491156Y-76238500D01*
X115491158Y-76238500D01*
X115648844Y-76238500D01*
X115648845Y-76238499D01*
X115803497Y-76207737D01*
X115949179Y-76147394D01*
X116080289Y-76059789D01*
X116191789Y-75948289D01*
X116279394Y-75817179D01*
X116280938Y-75813450D01*
X116324778Y-75759047D01*
X116391072Y-75736981D01*
X116458771Y-75754259D01*
X116506383Y-75805395D01*
X116510062Y-75813451D01*
X116511605Y-75817178D01*
X116511609Y-75817185D01*
X116599210Y-75948288D01*
X116599213Y-75948292D01*
X116710707Y-76059786D01*
X116710711Y-76059789D01*
X116841814Y-76147390D01*
X116841827Y-76147397D01*
X116963288Y-76197707D01*
X116987503Y-76207737D01*
X117095153Y-76229150D01*
X117142153Y-76238499D01*
X117142156Y-76238500D01*
X117142158Y-76238500D01*
X117299844Y-76238500D01*
X117299845Y-76238499D01*
X117454497Y-76207737D01*
X117600179Y-76147394D01*
X117731289Y-76059789D01*
X117842789Y-75948289D01*
X117930394Y-75817179D01*
X117955907Y-75755584D01*
X117999745Y-75701182D01*
X118066039Y-75679116D01*
X118133738Y-75696394D01*
X118139358Y-75699935D01*
X118238814Y-75766390D01*
X118238827Y-75766397D01*
X118316518Y-75798577D01*
X118384503Y-75826737D01*
X118384620Y-75826760D01*
X118384675Y-75826788D01*
X118390338Y-75828507D01*
X118390012Y-75829580D01*
X118446532Y-75859139D01*
X118481112Y-75919852D01*
X118482055Y-75972570D01*
X118452500Y-76121153D01*
X118452500Y-76278846D01*
X118483261Y-76433489D01*
X118483264Y-76433501D01*
X118543602Y-76579172D01*
X118543609Y-76579185D01*
X118631210Y-76710288D01*
X118631213Y-76710292D01*
X118742707Y-76821786D01*
X118742711Y-76821789D01*
X118873814Y-76909390D01*
X118873827Y-76909397D01*
X118996451Y-76960189D01*
X119050855Y-77004030D01*
X119072920Y-77070324D01*
X119055641Y-77138023D01*
X119004504Y-77185634D01*
X118996451Y-77189311D01*
X118873827Y-77240102D01*
X118873814Y-77240109D01*
X118742711Y-77327710D01*
X118742707Y-77327713D01*
X118631213Y-77439207D01*
X118631210Y-77439211D01*
X118543609Y-77570314D01*
X118543602Y-77570327D01*
X118483264Y-77715998D01*
X118483261Y-77716010D01*
X118452500Y-77870653D01*
X118452500Y-78028346D01*
X118483261Y-78182989D01*
X118483264Y-78183001D01*
X118543602Y-78328672D01*
X118543609Y-78328685D01*
X118631210Y-78459788D01*
X118631213Y-78459792D01*
X118742707Y-78571286D01*
X118742711Y-78571289D01*
X118873814Y-78658890D01*
X118873827Y-78658897D01*
X119019498Y-78719235D01*
X119019503Y-78719237D01*
X119174153Y-78749999D01*
X119174156Y-78750000D01*
X119174158Y-78750000D01*
X119331844Y-78750000D01*
X119331845Y-78749999D01*
X119486497Y-78719237D01*
X119632179Y-78658894D01*
X119763289Y-78571289D01*
X119874789Y-78459789D01*
X119962394Y-78328679D01*
X120022737Y-78182997D01*
X120053500Y-78028342D01*
X120053500Y-77870658D01*
X120053500Y-77870655D01*
X120053499Y-77870653D01*
X120034791Y-77776602D01*
X120022737Y-77716003D01*
X120020576Y-77710786D01*
X119962397Y-77570327D01*
X119962390Y-77570314D01*
X119874789Y-77439211D01*
X119874786Y-77439207D01*
X119763292Y-77327713D01*
X119763288Y-77327710D01*
X119632185Y-77240109D01*
X119632172Y-77240102D01*
X119509548Y-77189311D01*
X119455144Y-77145471D01*
X119433079Y-77079177D01*
X119450358Y-77011477D01*
X119501495Y-76963866D01*
X119509548Y-76960189D01*
X119518177Y-76956615D01*
X119632179Y-76909394D01*
X119763289Y-76821789D01*
X119874789Y-76710289D01*
X119962394Y-76579179D01*
X120022737Y-76433497D01*
X120053500Y-76278842D01*
X120053500Y-76121158D01*
X120053500Y-76121155D01*
X120053499Y-76121153D01*
X120046549Y-76086213D01*
X120022737Y-75966503D01*
X120015194Y-75948292D01*
X119962397Y-75820827D01*
X119962390Y-75820814D01*
X119874789Y-75689711D01*
X119874786Y-75689707D01*
X119763292Y-75578213D01*
X119763288Y-75578210D01*
X119632185Y-75490609D01*
X119632172Y-75490602D01*
X119486501Y-75430264D01*
X119486487Y-75430260D01*
X119486365Y-75430236D01*
X119486306Y-75430205D01*
X119480665Y-75428494D01*
X119480989Y-75427423D01*
X119424455Y-75397849D01*
X119389883Y-75337132D01*
X119388944Y-75284428D01*
X119418500Y-75135844D01*
X119418500Y-74978155D01*
X119418499Y-74978153D01*
X119409283Y-74931821D01*
X119387737Y-74823503D01*
X119375441Y-74793818D01*
X119327397Y-74677827D01*
X119327390Y-74677814D01*
X119239789Y-74546711D01*
X119239786Y-74546707D01*
X119128292Y-74435213D01*
X119128288Y-74435210D01*
X118997185Y-74347609D01*
X118997172Y-74347602D01*
X118851501Y-74287264D01*
X118851489Y-74287261D01*
X118696845Y-74256500D01*
X118696842Y-74256500D01*
X118539158Y-74256500D01*
X118539155Y-74256500D01*
X118384510Y-74287261D01*
X118384498Y-74287264D01*
X118238827Y-74347602D01*
X118238814Y-74347609D01*
X118107711Y-74435210D01*
X118107707Y-74435213D01*
X117996213Y-74546707D01*
X117996210Y-74546711D01*
X117908609Y-74677814D01*
X117908602Y-74677827D01*
X117883093Y-74739414D01*
X117839252Y-74793818D01*
X117772958Y-74815883D01*
X117705259Y-74798604D01*
X117699641Y-74795064D01*
X117600185Y-74728609D01*
X117600172Y-74728602D01*
X117454501Y-74668264D01*
X117454489Y-74668261D01*
X117299845Y-74637500D01*
X117299842Y-74637500D01*
X117142158Y-74637500D01*
X117142155Y-74637500D01*
X116987510Y-74668261D01*
X116987498Y-74668264D01*
X116841827Y-74728602D01*
X116841814Y-74728609D01*
X116710711Y-74816210D01*
X116710707Y-74816213D01*
X116599213Y-74927707D01*
X116599210Y-74927711D01*
X116511609Y-75058814D01*
X116511603Y-75058826D01*
X116510060Y-75062552D01*
X116466218Y-75116954D01*
X116399924Y-75139018D01*
X116332225Y-75121738D01*
X116284615Y-75070599D01*
X116280940Y-75062552D01*
X116279396Y-75058826D01*
X116279390Y-75058814D01*
X116191789Y-74927711D01*
X116191786Y-74927707D01*
X116080292Y-74816213D01*
X116080288Y-74816210D01*
X115949185Y-74728609D01*
X115949172Y-74728602D01*
X115803501Y-74668264D01*
X115803489Y-74668261D01*
X115648845Y-74637500D01*
X115648842Y-74637500D01*
X115491158Y-74637500D01*
X115491155Y-74637500D01*
X115336510Y-74668261D01*
X115336498Y-74668264D01*
X115190827Y-74728602D01*
X115190814Y-74728609D01*
X115059711Y-74816210D01*
X115059706Y-74816214D01*
X115013949Y-74861971D01*
X114952626Y-74895455D01*
X114882934Y-74890470D01*
X114827001Y-74848598D01*
X114823168Y-74843181D01*
X114794791Y-74800713D01*
X114794786Y-74800707D01*
X114683292Y-74689213D01*
X114683288Y-74689210D01*
X114552185Y-74601609D01*
X114552172Y-74601602D01*
X114406501Y-74541264D01*
X114406489Y-74541261D01*
X114251845Y-74510500D01*
X114251842Y-74510500D01*
X114094158Y-74510500D01*
X114094155Y-74510500D01*
X113939510Y-74541261D01*
X113939498Y-74541264D01*
X113793827Y-74601602D01*
X113793814Y-74601609D01*
X113662711Y-74689210D01*
X113662707Y-74689213D01*
X113551213Y-74800707D01*
X113551210Y-74800711D01*
X113463609Y-74931814D01*
X113463602Y-74931827D01*
X113403264Y-75077498D01*
X113403261Y-75077510D01*
X113372500Y-75232153D01*
X113372500Y-75389846D01*
X113403261Y-75544489D01*
X113403264Y-75544501D01*
X113463602Y-75690172D01*
X113463609Y-75690185D01*
X113551210Y-75821288D01*
X113551213Y-75821292D01*
X113662707Y-75932786D01*
X113662711Y-75932789D01*
X113793814Y-76020390D01*
X113793823Y-76020395D01*
X113868473Y-76051316D01*
X113922876Y-76095157D01*
X113944941Y-76161451D01*
X113927662Y-76229150D01*
X113876525Y-76276761D01*
X113845212Y-76287494D01*
X113685508Y-76319261D01*
X113685498Y-76319264D01*
X113539827Y-76379602D01*
X113539814Y-76379609D01*
X113408711Y-76467210D01*
X113408707Y-76467213D01*
X113297213Y-76578707D01*
X113297210Y-76578711D01*
X113209609Y-76709814D01*
X113209602Y-76709827D01*
X113149264Y-76855498D01*
X113149261Y-76855510D01*
X113118500Y-77010153D01*
X112120299Y-77010153D01*
X112148737Y-76941497D01*
X112179500Y-76786842D01*
X112179500Y-76629158D01*
X112179500Y-76629155D01*
X112179499Y-76629153D01*
X112169465Y-76578711D01*
X112148737Y-76474503D01*
X112109428Y-76379602D01*
X112088397Y-76328827D01*
X112088390Y-76328814D01*
X112000789Y-76197711D01*
X112000786Y-76197707D01*
X111889292Y-76086213D01*
X111889288Y-76086210D01*
X111758185Y-75998609D01*
X111758172Y-75998602D01*
X111612501Y-75938264D01*
X111612489Y-75938261D01*
X111457845Y-75907500D01*
X111457842Y-75907500D01*
X111300158Y-75907500D01*
X111300155Y-75907500D01*
X111145510Y-75938261D01*
X111145498Y-75938264D01*
X110999827Y-75998602D01*
X110999814Y-75998609D01*
X110868711Y-76086210D01*
X110781904Y-76173017D01*
X110720580Y-76206501D01*
X110650889Y-76201517D01*
X110594955Y-76159645D01*
X110571876Y-76098427D01*
X110571262Y-76098525D01*
X110570790Y-76095545D01*
X110570604Y-76095052D01*
X110570500Y-76093736D01*
X110570500Y-76093713D01*
X110537246Y-75883757D01*
X110471557Y-75681588D01*
X110375051Y-75492184D01*
X110375049Y-75492181D01*
X110375048Y-75492179D01*
X110250109Y-75320213D01*
X110099786Y-75169890D01*
X109927820Y-75044951D01*
X109927115Y-75044591D01*
X109919054Y-75040485D01*
X109868259Y-74992512D01*
X109851463Y-74924692D01*
X109873999Y-74858556D01*
X109919054Y-74819515D01*
X109927816Y-74815051D01*
X109957041Y-74793818D01*
X110099786Y-74690109D01*
X110099788Y-74690106D01*
X110099792Y-74690104D01*
X110250104Y-74539792D01*
X110250106Y-74539788D01*
X110250109Y-74539786D01*
X110375048Y-74367820D01*
X110375047Y-74367820D01*
X110375051Y-74367816D01*
X110471557Y-74178412D01*
X110537246Y-73976243D01*
X110570500Y-73766287D01*
X110570500Y-73553713D01*
X110537246Y-73343757D01*
X110471557Y-73141588D01*
X110375051Y-72952184D01*
X110375049Y-72952181D01*
X110375048Y-72952179D01*
X110250109Y-72780213D01*
X110099792Y-72629896D01*
X110099784Y-72629890D01*
X109927816Y-72504949D01*
X109911337Y-72496552D01*
X109910767Y-72496153D01*
X117401589Y-72496153D01*
X117401589Y-72653846D01*
X117432350Y-72808489D01*
X117432353Y-72808501D01*
X117492691Y-72954172D01*
X117492698Y-72954185D01*
X117580299Y-73085288D01*
X117580302Y-73085292D01*
X117691796Y-73196786D01*
X117691800Y-73196789D01*
X117822903Y-73284390D01*
X117822916Y-73284397D01*
X117940384Y-73333053D01*
X117968592Y-73344737D01*
X118123242Y-73375499D01*
X118123245Y-73375500D01*
X118123247Y-73375500D01*
X118280933Y-73375500D01*
X118280934Y-73375499D01*
X118435586Y-73344737D01*
X118581268Y-73284394D01*
X118712378Y-73196789D01*
X118823878Y-73085289D01*
X118911483Y-72954179D01*
X118912312Y-72952179D01*
X118971824Y-72808501D01*
X118971826Y-72808497D01*
X119002589Y-72653842D01*
X119002589Y-72565153D01*
X119722500Y-72565153D01*
X119722500Y-72722846D01*
X119753261Y-72877489D01*
X119753264Y-72877501D01*
X119813602Y-73023172D01*
X119813609Y-73023185D01*
X119901210Y-73154288D01*
X119901213Y-73154292D01*
X120012707Y-73265786D01*
X120012711Y-73265789D01*
X120143814Y-73353390D01*
X120143827Y-73353397D01*
X120289498Y-73413735D01*
X120289503Y-73413737D01*
X120444153Y-73444499D01*
X120444156Y-73444500D01*
X120444158Y-73444500D01*
X120601844Y-73444500D01*
X120601845Y-73444499D01*
X120756497Y-73413737D01*
X120902179Y-73353394D01*
X121033289Y-73265789D01*
X121144789Y-73154289D01*
X121232394Y-73023179D01*
X121292737Y-72877497D01*
X121323500Y-72722842D01*
X121323500Y-72565158D01*
X121323500Y-72565155D01*
X121323499Y-72565153D01*
X121311524Y-72504951D01*
X121292737Y-72410503D01*
X121286445Y-72395312D01*
X121232397Y-72264827D01*
X121232390Y-72264814D01*
X121144789Y-72133711D01*
X121144786Y-72133707D01*
X121033292Y-72022213D01*
X121033288Y-72022210D01*
X120902185Y-71934609D01*
X120902172Y-71934602D01*
X120756501Y-71874264D01*
X120756489Y-71874261D01*
X120601845Y-71843500D01*
X120601842Y-71843500D01*
X120444158Y-71843500D01*
X120444155Y-71843500D01*
X120289510Y-71874261D01*
X120289498Y-71874264D01*
X120143827Y-71934602D01*
X120143814Y-71934609D01*
X120012711Y-72022210D01*
X120012707Y-72022213D01*
X119901213Y-72133707D01*
X119901210Y-72133711D01*
X119813609Y-72264814D01*
X119813602Y-72264827D01*
X119753264Y-72410498D01*
X119753261Y-72410510D01*
X119722500Y-72565153D01*
X119002589Y-72565153D01*
X119002589Y-72496158D01*
X119002589Y-72496155D01*
X119002588Y-72496153D01*
X118997543Y-72470791D01*
X118971826Y-72341503D01*
X118953325Y-72296838D01*
X118911486Y-72195827D01*
X118911479Y-72195814D01*
X118823878Y-72064711D01*
X118823875Y-72064707D01*
X118712381Y-71953213D01*
X118712377Y-71953210D01*
X118581274Y-71865609D01*
X118581261Y-71865602D01*
X118435590Y-71805264D01*
X118435578Y-71805261D01*
X118280934Y-71774500D01*
X118280931Y-71774500D01*
X118123247Y-71774500D01*
X118123244Y-71774500D01*
X117968599Y-71805261D01*
X117968587Y-71805264D01*
X117822916Y-71865602D01*
X117822903Y-71865609D01*
X117691800Y-71953210D01*
X117691796Y-71953213D01*
X117580302Y-72064707D01*
X117580299Y-72064711D01*
X117492698Y-72195814D01*
X117492691Y-72195827D01*
X117432353Y-72341498D01*
X117432350Y-72341510D01*
X117401589Y-72496153D01*
X109910767Y-72496153D01*
X109904238Y-72491583D01*
X109887614Y-72470791D01*
X109868259Y-72452512D01*
X109866131Y-72443923D01*
X109860606Y-72437012D01*
X109857862Y-72410531D01*
X109851463Y-72384692D01*
X109854317Y-72376316D01*
X109853405Y-72367514D01*
X109865412Y-72343755D01*
X109873999Y-72318556D01*
X109881380Y-72312160D01*
X109884920Y-72305156D01*
X109899062Y-72296838D01*
X109919054Y-72279515D01*
X109927816Y-72275051D01*
X109949789Y-72259086D01*
X110099786Y-72150109D01*
X110099788Y-72150106D01*
X110099792Y-72150104D01*
X110250104Y-71999792D01*
X110250106Y-71999788D01*
X110250109Y-71999786D01*
X110375048Y-71827820D01*
X110375047Y-71827820D01*
X110375051Y-71827816D01*
X110471557Y-71638412D01*
X110537246Y-71436243D01*
X110570500Y-71226287D01*
X110570500Y-71013713D01*
X110537246Y-70803757D01*
X110471557Y-70601588D01*
X110375051Y-70412184D01*
X110375049Y-70412181D01*
X110375048Y-70412179D01*
X110250109Y-70240213D01*
X110099786Y-70089890D01*
X109927820Y-69964951D01*
X109927115Y-69964591D01*
X109919054Y-69960485D01*
X109868259Y-69912512D01*
X109851463Y-69844692D01*
X109873999Y-69778556D01*
X109919054Y-69739515D01*
X109927816Y-69735051D01*
X109972634Y-69702489D01*
X110099786Y-69610109D01*
X110099788Y-69610106D01*
X110099792Y-69610104D01*
X110250104Y-69459792D01*
X110250106Y-69459788D01*
X110250109Y-69459786D01*
X110300700Y-69390153D01*
X119341500Y-69390153D01*
X119341500Y-69547846D01*
X119372261Y-69702489D01*
X119372264Y-69702501D01*
X119432602Y-69848172D01*
X119432609Y-69848185D01*
X119520210Y-69979288D01*
X119520213Y-69979292D01*
X119631707Y-70090786D01*
X119631711Y-70090789D01*
X119762814Y-70178390D01*
X119762827Y-70178397D01*
X119908498Y-70238735D01*
X119908503Y-70238737D01*
X120063153Y-70269499D01*
X120063156Y-70269500D01*
X120063158Y-70269500D01*
X120220844Y-70269500D01*
X120220845Y-70269499D01*
X120375497Y-70238737D01*
X120521179Y-70178394D01*
X120652289Y-70090789D01*
X120763789Y-69979289D01*
X120851394Y-69848179D01*
X120911737Y-69702497D01*
X120942500Y-69547842D01*
X120942500Y-69390158D01*
X120942500Y-69390155D01*
X120942499Y-69390153D01*
X120922457Y-69289397D01*
X120911737Y-69235503D01*
X120897771Y-69201786D01*
X120851397Y-69089827D01*
X120851390Y-69089814D01*
X120763789Y-68958711D01*
X120763786Y-68958707D01*
X120652292Y-68847213D01*
X120652288Y-68847210D01*
X120521185Y-68759609D01*
X120521172Y-68759602D01*
X120375501Y-68699264D01*
X120375489Y-68699261D01*
X120220845Y-68668500D01*
X120220842Y-68668500D01*
X120063158Y-68668500D01*
X120063155Y-68668500D01*
X119908510Y-68699261D01*
X119908498Y-68699264D01*
X119762827Y-68759602D01*
X119762814Y-68759609D01*
X119631711Y-68847210D01*
X119631707Y-68847213D01*
X119520213Y-68958707D01*
X119520210Y-68958711D01*
X119432609Y-69089814D01*
X119432602Y-69089827D01*
X119372264Y-69235498D01*
X119372261Y-69235510D01*
X119341500Y-69390153D01*
X110300700Y-69390153D01*
X110373902Y-69289397D01*
X110375051Y-69287816D01*
X110471557Y-69098412D01*
X110537246Y-68896243D01*
X110570500Y-68686287D01*
X110570500Y-68501153D01*
X112483500Y-68501153D01*
X112483500Y-68658846D01*
X112514261Y-68813489D01*
X112514264Y-68813501D01*
X112574602Y-68959172D01*
X112574609Y-68959185D01*
X112662210Y-69090288D01*
X112662213Y-69090292D01*
X112773707Y-69201786D01*
X112773711Y-69201789D01*
X112904814Y-69289390D01*
X112904827Y-69289397D01*
X113050498Y-69349735D01*
X113050503Y-69349737D01*
X113205153Y-69380499D01*
X113205156Y-69380500D01*
X113205158Y-69380500D01*
X113362844Y-69380500D01*
X113362845Y-69380499D01*
X113517497Y-69349737D01*
X113663179Y-69289394D01*
X113794289Y-69201789D01*
X113905789Y-69090289D01*
X113993394Y-68959179D01*
X114053737Y-68813497D01*
X114084500Y-68658842D01*
X114084500Y-68501158D01*
X114084500Y-68501155D01*
X114084499Y-68501153D01*
X114053738Y-68346510D01*
X114053737Y-68346503D01*
X114014401Y-68251536D01*
X113993397Y-68200827D01*
X113993390Y-68200814D01*
X113905789Y-68069711D01*
X113905786Y-68069707D01*
X113794292Y-67958213D01*
X113794288Y-67958210D01*
X113663185Y-67870609D01*
X113663172Y-67870602D01*
X113517501Y-67810264D01*
X113517489Y-67810261D01*
X113362845Y-67779500D01*
X113362842Y-67779500D01*
X113205158Y-67779500D01*
X113205155Y-67779500D01*
X113050510Y-67810261D01*
X113050498Y-67810264D01*
X112904827Y-67870602D01*
X112904814Y-67870609D01*
X112773711Y-67958210D01*
X112773707Y-67958213D01*
X112662213Y-68069707D01*
X112662210Y-68069711D01*
X112574609Y-68200814D01*
X112574602Y-68200827D01*
X112514264Y-68346498D01*
X112514261Y-68346510D01*
X112483500Y-68501153D01*
X110570500Y-68501153D01*
X110570500Y-68473713D01*
X110537246Y-68263757D01*
X110471557Y-68061588D01*
X110375051Y-67872184D01*
X110375049Y-67872181D01*
X110375048Y-67872179D01*
X110250109Y-67700213D01*
X110099786Y-67549890D01*
X109927820Y-67424951D01*
X109927115Y-67424591D01*
X109919054Y-67420485D01*
X109868259Y-67372512D01*
X109851463Y-67304692D01*
X109873999Y-67238556D01*
X109919054Y-67199515D01*
X109927816Y-67195051D01*
X109949789Y-67179086D01*
X110099786Y-67070109D01*
X110099788Y-67070106D01*
X110099792Y-67070104D01*
X110250104Y-66919792D01*
X110250106Y-66919788D01*
X110250109Y-66919786D01*
X110375048Y-66747820D01*
X110375047Y-66747820D01*
X110375051Y-66747816D01*
X110471557Y-66558412D01*
X110537246Y-66356243D01*
X110570500Y-66146287D01*
X110570500Y-65933713D01*
X110537246Y-65723757D01*
X110471557Y-65521588D01*
X110375051Y-65332184D01*
X110375049Y-65332181D01*
X110375048Y-65332179D01*
X110250109Y-65160213D01*
X110099786Y-65009890D01*
X109927820Y-64884951D01*
X109927115Y-64884591D01*
X109919054Y-64880485D01*
X109868259Y-64832512D01*
X109851463Y-64764692D01*
X109873999Y-64698556D01*
X109919054Y-64659515D01*
X109927816Y-64655051D01*
X109949789Y-64639086D01*
X110099786Y-64530109D01*
X110099788Y-64530106D01*
X110099792Y-64530104D01*
X110250104Y-64379792D01*
X110250106Y-64379788D01*
X110250109Y-64379786D01*
X110375048Y-64207820D01*
X110375047Y-64207820D01*
X110375051Y-64207816D01*
X110471557Y-64018412D01*
X110537246Y-63816243D01*
X110570500Y-63606287D01*
X110570500Y-63393713D01*
X110537246Y-63183757D01*
X110471557Y-62981588D01*
X110375051Y-62792184D01*
X110375049Y-62792181D01*
X110375048Y-62792179D01*
X110250109Y-62620213D01*
X110099786Y-62469890D01*
X109927820Y-62344951D01*
X109927115Y-62344591D01*
X109919054Y-62340485D01*
X109868259Y-62292512D01*
X109851463Y-62224692D01*
X109873999Y-62158556D01*
X109919054Y-62119515D01*
X109927816Y-62115051D01*
X109949789Y-62099086D01*
X110099786Y-61990109D01*
X110099788Y-61990106D01*
X110099792Y-61990104D01*
X110250104Y-61839792D01*
X110250106Y-61839788D01*
X110250109Y-61839786D01*
X110375048Y-61667820D01*
X110375047Y-61667820D01*
X110375051Y-61667816D01*
X110471557Y-61478412D01*
X110537246Y-61276243D01*
X110570500Y-61066287D01*
X110570500Y-60853713D01*
X110537246Y-60643757D01*
X110471557Y-60441588D01*
X110375051Y-60252184D01*
X110375049Y-60252181D01*
X110375048Y-60252179D01*
X110250109Y-60080213D01*
X110099786Y-59929890D01*
X109927820Y-59804951D01*
X109927115Y-59804591D01*
X109919054Y-59800485D01*
X109868259Y-59752512D01*
X109851463Y-59684692D01*
X109873999Y-59618556D01*
X109919054Y-59579515D01*
X109927816Y-59575051D01*
X109949789Y-59559086D01*
X110099786Y-59450109D01*
X110099788Y-59450106D01*
X110099792Y-59450104D01*
X110250104Y-59299792D01*
X110250106Y-59299788D01*
X110250109Y-59299786D01*
X110375048Y-59127820D01*
X110375047Y-59127820D01*
X110375051Y-59127816D01*
X110471557Y-58938412D01*
X110537246Y-58736243D01*
X110570500Y-58526287D01*
X110570500Y-58313713D01*
X110537246Y-58103757D01*
X110471557Y-57901588D01*
X110375051Y-57712184D01*
X110375049Y-57712181D01*
X110375048Y-57712179D01*
X110250109Y-57540213D01*
X110099786Y-57389890D01*
X109927820Y-57264951D01*
X109927115Y-57264591D01*
X109919054Y-57260485D01*
X109868259Y-57212512D01*
X109851463Y-57144692D01*
X109873999Y-57078556D01*
X109919054Y-57039515D01*
X109927816Y-57035051D01*
X109949789Y-57019086D01*
X110099786Y-56910109D01*
X110099788Y-56910106D01*
X110099792Y-56910104D01*
X110136361Y-56873535D01*
X113824900Y-56873535D01*
X113824900Y-58696470D01*
X113824901Y-58696476D01*
X113831308Y-58756083D01*
X113881602Y-58890928D01*
X113881606Y-58890935D01*
X113967852Y-59006144D01*
X113967855Y-59006147D01*
X114083064Y-59092393D01*
X114083073Y-59092398D01*
X114168719Y-59124341D01*
X114200474Y-59136185D01*
X114256408Y-59178055D01*
X114280826Y-59243520D01*
X114265975Y-59311793D01*
X114244824Y-59340048D01*
X114148522Y-59436350D01*
X114022317Y-59610055D01*
X113924838Y-59801366D01*
X113924837Y-59801369D01*
X113858489Y-60005571D01*
X113858489Y-60005573D01*
X113824900Y-60217643D01*
X113824900Y-60432357D01*
X113841694Y-60538392D01*
X113858489Y-60644428D01*
X113924837Y-60848630D01*
X113924838Y-60848633D01*
X114008652Y-61013125D01*
X114022317Y-61039944D01*
X114148523Y-61213651D01*
X114300349Y-61365477D01*
X114455790Y-61478412D01*
X114477998Y-61494547D01*
X114476624Y-61496437D01*
X114517030Y-61541152D01*
X114528411Y-61610089D01*
X114500715Y-61674235D01*
X114477314Y-61694511D01*
X114477998Y-61695453D01*
X114474056Y-61698316D01*
X114474056Y-61698317D01*
X114300349Y-61824523D01*
X114300347Y-61824525D01*
X114300346Y-61824525D01*
X114148525Y-61976346D01*
X114148525Y-61976347D01*
X114148523Y-61976349D01*
X114138526Y-61990109D01*
X114022317Y-62150055D01*
X113924838Y-62341366D01*
X113924837Y-62341369D01*
X113858489Y-62545571D01*
X113858489Y-62545573D01*
X113824900Y-62757643D01*
X113824900Y-62972357D01*
X113841694Y-63078392D01*
X113858489Y-63184428D01*
X113924837Y-63388630D01*
X113924838Y-63388633D01*
X114008652Y-63553125D01*
X114022317Y-63579944D01*
X114148523Y-63753651D01*
X114300349Y-63905477D01*
X114474056Y-64031683D01*
X114567888Y-64079492D01*
X114665366Y-64129161D01*
X114665369Y-64129162D01*
X114767470Y-64162336D01*
X114869573Y-64195511D01*
X115081643Y-64229100D01*
X115081644Y-64229100D01*
X115296356Y-64229100D01*
X115296357Y-64229100D01*
X115508427Y-64195511D01*
X115712633Y-64129161D01*
X115903944Y-64031683D01*
X116077651Y-63905477D01*
X116229477Y-63753651D01*
X116355683Y-63579944D01*
X116355683Y-63579943D01*
X116358547Y-63576002D01*
X116360478Y-63577405D01*
X116404927Y-63537078D01*
X116473840Y-63525558D01*
X116538042Y-63553125D01*
X116558478Y-63576709D01*
X116559453Y-63576002D01*
X116562316Y-63579943D01*
X116562317Y-63579944D01*
X116688523Y-63753651D01*
X116840349Y-63905477D01*
X116970629Y-64000131D01*
X117014057Y-64031684D01*
X117060391Y-64055292D01*
X117111188Y-64103266D01*
X117127983Y-64171087D01*
X117105446Y-64237222D01*
X117051550Y-64280338D01*
X116968824Y-64314604D01*
X116968814Y-64314609D01*
X116837711Y-64402210D01*
X116837707Y-64402213D01*
X116726213Y-64513707D01*
X116726210Y-64513711D01*
X116638609Y-64644814D01*
X116638602Y-64644827D01*
X116578264Y-64790498D01*
X116578261Y-64790510D01*
X116547500Y-64945153D01*
X116547500Y-65102846D01*
X116578261Y-65257489D01*
X116578264Y-65257501D01*
X116638602Y-65403172D01*
X116638609Y-65403185D01*
X116726210Y-65534288D01*
X116726213Y-65534292D01*
X116837707Y-65645786D01*
X116837711Y-65645789D01*
X116968814Y-65733390D01*
X116968827Y-65733397D01*
X117114498Y-65793735D01*
X117114503Y-65793737D01*
X117269153Y-65824499D01*
X117269156Y-65824500D01*
X117269158Y-65824500D01*
X117426844Y-65824500D01*
X117426845Y-65824499D01*
X117581497Y-65793737D01*
X117727179Y-65733394D01*
X117858289Y-65645789D01*
X117969789Y-65534289D01*
X118057394Y-65403179D01*
X118117737Y-65257497D01*
X118148500Y-65102842D01*
X118148500Y-64945158D01*
X118148500Y-64945155D01*
X118148499Y-64945153D01*
X118136524Y-64884951D01*
X118117737Y-64790503D01*
X118111445Y-64775312D01*
X118057397Y-64644827D01*
X118057390Y-64644814D01*
X117969789Y-64513711D01*
X117969786Y-64513707D01*
X117877932Y-64421853D01*
X117844447Y-64360530D01*
X117849431Y-64290838D01*
X117891303Y-64234905D01*
X117946209Y-64211700D01*
X118048427Y-64195511D01*
X118252633Y-64129161D01*
X118443944Y-64031683D01*
X118617651Y-63905477D01*
X118769477Y-63753651D01*
X118895683Y-63579944D01*
X118993161Y-63388633D01*
X119059511Y-63184427D01*
X119093100Y-62972357D01*
X119093100Y-62757643D01*
X119059511Y-62545573D01*
X118993161Y-62341367D01*
X118993161Y-62341366D01*
X118909266Y-62176715D01*
X118895683Y-62150056D01*
X118769477Y-61976349D01*
X118617651Y-61824523D01*
X118443944Y-61698317D01*
X118443943Y-61698316D01*
X118440002Y-61695453D01*
X118441405Y-61693521D01*
X118401078Y-61649073D01*
X118389558Y-61580160D01*
X118417125Y-61515958D01*
X118440709Y-61495521D01*
X118440002Y-61494547D01*
X118462207Y-61478414D01*
X118617651Y-61365477D01*
X118769477Y-61213651D01*
X118895683Y-61039944D01*
X118993161Y-60848633D01*
X119059511Y-60644427D01*
X119093100Y-60432357D01*
X119093100Y-60217643D01*
X119059511Y-60005573D01*
X118993161Y-59801367D01*
X118993161Y-59801366D01*
X118909266Y-59636715D01*
X118895683Y-59610056D01*
X118769477Y-59436349D01*
X118617651Y-59284523D01*
X118443944Y-59158317D01*
X118443943Y-59158316D01*
X118440002Y-59155453D01*
X118441288Y-59153682D01*
X118400521Y-59108617D01*
X118389101Y-59039687D01*
X118416761Y-58975525D01*
X118440412Y-58955045D01*
X118439740Y-58954120D01*
X118617327Y-58825093D01*
X118617328Y-58825093D01*
X118769093Y-58673328D01*
X118769093Y-58673327D01*
X118895255Y-58499682D01*
X118992696Y-58308443D01*
X119059024Y-58104307D01*
X119070002Y-58035000D01*
X118171251Y-58035000D01*
X118202381Y-57981081D01*
X118237000Y-57851880D01*
X118237000Y-57718120D01*
X118202381Y-57588919D01*
X118196743Y-57579153D01*
X119595500Y-57579153D01*
X119595500Y-57736846D01*
X119626261Y-57891489D01*
X119626264Y-57891501D01*
X119686602Y-58037172D01*
X119686609Y-58037185D01*
X119774210Y-58168288D01*
X119774213Y-58168292D01*
X119885707Y-58279786D01*
X119885711Y-58279789D01*
X120016814Y-58367390D01*
X120016827Y-58367397D01*
X120162498Y-58427735D01*
X120162503Y-58427737D01*
X120317153Y-58458499D01*
X120317156Y-58458500D01*
X120317158Y-58458500D01*
X120474844Y-58458500D01*
X120474845Y-58458499D01*
X120629497Y-58427737D01*
X120775179Y-58367394D01*
X120906289Y-58279789D01*
X121017789Y-58168289D01*
X121105394Y-58037179D01*
X121165737Y-57891497D01*
X121196500Y-57736842D01*
X121196500Y-57579158D01*
X121196500Y-57579155D01*
X121196499Y-57579153D01*
X121187716Y-57534999D01*
X121165737Y-57424503D01*
X121165735Y-57424498D01*
X121105397Y-57278827D01*
X121105390Y-57278814D01*
X121017789Y-57147711D01*
X121017786Y-57147707D01*
X120906292Y-57036213D01*
X120906288Y-57036210D01*
X120775185Y-56948609D01*
X120775172Y-56948602D01*
X120629501Y-56888264D01*
X120629489Y-56888261D01*
X120474845Y-56857500D01*
X120474842Y-56857500D01*
X120317158Y-56857500D01*
X120317155Y-56857500D01*
X120162510Y-56888261D01*
X120162498Y-56888264D01*
X120016827Y-56948602D01*
X120016814Y-56948609D01*
X119885711Y-57036210D01*
X119885707Y-57036213D01*
X119774213Y-57147707D01*
X119774210Y-57147711D01*
X119686609Y-57278814D01*
X119686602Y-57278827D01*
X119626264Y-57424498D01*
X119626261Y-57424510D01*
X119595500Y-57579153D01*
X118196743Y-57579153D01*
X118171251Y-57535000D01*
X119070002Y-57535000D01*
X119070002Y-57534999D01*
X119059024Y-57465692D01*
X118992696Y-57261556D01*
X118895255Y-57070317D01*
X118769093Y-56896672D01*
X118769093Y-56896671D01*
X118617328Y-56744906D01*
X118443682Y-56618744D01*
X118252443Y-56521303D01*
X118048307Y-56454975D01*
X117979000Y-56443997D01*
X117979000Y-57342748D01*
X117925081Y-57311619D01*
X117795880Y-57277000D01*
X117662120Y-57277000D01*
X117532919Y-57311619D01*
X117479000Y-57342748D01*
X117479000Y-56443997D01*
X117409692Y-56454975D01*
X117205556Y-56521303D01*
X117014317Y-56618744D01*
X116840675Y-56744903D01*
X116744240Y-56841338D01*
X116682916Y-56874822D01*
X116613225Y-56869838D01*
X116557292Y-56827966D01*
X116540377Y-56796988D01*
X116496398Y-56679073D01*
X116496393Y-56679064D01*
X116410147Y-56563855D01*
X116410144Y-56563852D01*
X116294935Y-56477606D01*
X116294928Y-56477602D01*
X116160082Y-56427308D01*
X116160083Y-56427308D01*
X116100483Y-56420901D01*
X116100481Y-56420900D01*
X116100473Y-56420900D01*
X116100464Y-56420900D01*
X114277529Y-56420900D01*
X114277523Y-56420901D01*
X114217916Y-56427308D01*
X114083071Y-56477602D01*
X114083064Y-56477606D01*
X113967855Y-56563852D01*
X113967852Y-56563855D01*
X113881606Y-56679064D01*
X113881602Y-56679071D01*
X113831308Y-56813917D01*
X113824901Y-56873516D01*
X113824900Y-56873535D01*
X110136361Y-56873535D01*
X110250104Y-56759792D01*
X110250106Y-56759788D01*
X110250109Y-56759786D01*
X110375048Y-56587820D01*
X110375047Y-56587820D01*
X110375051Y-56587816D01*
X110471557Y-56398412D01*
X110537246Y-56196243D01*
X110570500Y-55986287D01*
X110570500Y-55773713D01*
X110537246Y-55563757D01*
X110471557Y-55361588D01*
X110375051Y-55172184D01*
X110375049Y-55172181D01*
X110375048Y-55172179D01*
X110250109Y-55000213D01*
X110099786Y-54849890D01*
X109927820Y-54724951D01*
X109927115Y-54724591D01*
X109919054Y-54720485D01*
X109868259Y-54672512D01*
X109851463Y-54604692D01*
X109873999Y-54538556D01*
X109919054Y-54499515D01*
X109927816Y-54495051D01*
X109972634Y-54462489D01*
X110099786Y-54370109D01*
X110099788Y-54370106D01*
X110099792Y-54370104D01*
X110250104Y-54219792D01*
X110250106Y-54219788D01*
X110250109Y-54219786D01*
X110300700Y-54150153D01*
X112864500Y-54150153D01*
X112864500Y-54307846D01*
X112895261Y-54462489D01*
X112895264Y-54462501D01*
X112955602Y-54608172D01*
X112955609Y-54608185D01*
X113043210Y-54739288D01*
X113043213Y-54739292D01*
X113154707Y-54850786D01*
X113154711Y-54850789D01*
X113285814Y-54938390D01*
X113285827Y-54938397D01*
X113431498Y-54998735D01*
X113431503Y-54998737D01*
X113586153Y-55029499D01*
X113586156Y-55029500D01*
X113586158Y-55029500D01*
X113743844Y-55029500D01*
X113743845Y-55029499D01*
X113898497Y-54998737D01*
X114044179Y-54938394D01*
X114175289Y-54850789D01*
X114286789Y-54739289D01*
X114374394Y-54608179D01*
X114434737Y-54462497D01*
X114465500Y-54307842D01*
X114465500Y-54150158D01*
X114465500Y-54150155D01*
X114465499Y-54150153D01*
X115785500Y-54150153D01*
X115785500Y-54307846D01*
X115816261Y-54462489D01*
X115816264Y-54462501D01*
X115876602Y-54608172D01*
X115876609Y-54608185D01*
X115964210Y-54739288D01*
X115964213Y-54739292D01*
X116075707Y-54850786D01*
X116075711Y-54850789D01*
X116206814Y-54938390D01*
X116206827Y-54938397D01*
X116352498Y-54998735D01*
X116352503Y-54998737D01*
X116507153Y-55029499D01*
X116507156Y-55029500D01*
X116507158Y-55029500D01*
X116664844Y-55029500D01*
X116664845Y-55029499D01*
X116819497Y-54998737D01*
X116965179Y-54938394D01*
X117096289Y-54850789D01*
X117207789Y-54739289D01*
X117295394Y-54608179D01*
X117355737Y-54462497D01*
X117386500Y-54307842D01*
X117386500Y-54150158D01*
X117386500Y-54150155D01*
X117386499Y-54150153D01*
X118325500Y-54150153D01*
X118325500Y-54307846D01*
X118356261Y-54462489D01*
X118356264Y-54462501D01*
X118416602Y-54608172D01*
X118416609Y-54608185D01*
X118504210Y-54739288D01*
X118504213Y-54739292D01*
X118615707Y-54850786D01*
X118615711Y-54850789D01*
X118746814Y-54938390D01*
X118746827Y-54938397D01*
X118892498Y-54998735D01*
X118892503Y-54998737D01*
X119047153Y-55029499D01*
X119047156Y-55029500D01*
X119047158Y-55029500D01*
X119204844Y-55029500D01*
X119204845Y-55029499D01*
X119359497Y-54998737D01*
X119505179Y-54938394D01*
X119636289Y-54850789D01*
X119747789Y-54739289D01*
X119835394Y-54608179D01*
X119895737Y-54462497D01*
X119926500Y-54307842D01*
X119926500Y-54150158D01*
X119926500Y-54150155D01*
X119926499Y-54150153D01*
X119910790Y-54071181D01*
X119895737Y-53995503D01*
X119895735Y-53995498D01*
X119835397Y-53849827D01*
X119835390Y-53849814D01*
X119747789Y-53718711D01*
X119747786Y-53718707D01*
X119636292Y-53607213D01*
X119636288Y-53607210D01*
X119505185Y-53519609D01*
X119505172Y-53519602D01*
X119359501Y-53459264D01*
X119359489Y-53459261D01*
X119204845Y-53428500D01*
X119204842Y-53428500D01*
X119047158Y-53428500D01*
X119047155Y-53428500D01*
X118892510Y-53459261D01*
X118892498Y-53459264D01*
X118746827Y-53519602D01*
X118746814Y-53519609D01*
X118615711Y-53607210D01*
X118615707Y-53607213D01*
X118504213Y-53718707D01*
X118504210Y-53718711D01*
X118416609Y-53849814D01*
X118416602Y-53849827D01*
X118356264Y-53995498D01*
X118356261Y-53995510D01*
X118325500Y-54150153D01*
X117386499Y-54150153D01*
X117370790Y-54071181D01*
X117355737Y-53995503D01*
X117355735Y-53995498D01*
X117295397Y-53849827D01*
X117295390Y-53849814D01*
X117207789Y-53718711D01*
X117207786Y-53718707D01*
X117096292Y-53607213D01*
X117096288Y-53607210D01*
X116965185Y-53519609D01*
X116965172Y-53519602D01*
X116819501Y-53459264D01*
X116819489Y-53459261D01*
X116664845Y-53428500D01*
X116664842Y-53428500D01*
X116507158Y-53428500D01*
X116507155Y-53428500D01*
X116352510Y-53459261D01*
X116352498Y-53459264D01*
X116206827Y-53519602D01*
X116206814Y-53519609D01*
X116075711Y-53607210D01*
X116075707Y-53607213D01*
X115964213Y-53718707D01*
X115964210Y-53718711D01*
X115876609Y-53849814D01*
X115876602Y-53849827D01*
X115816264Y-53995498D01*
X115816261Y-53995510D01*
X115785500Y-54150153D01*
X114465499Y-54150153D01*
X114449790Y-54071181D01*
X114434737Y-53995503D01*
X114434735Y-53995498D01*
X114374397Y-53849827D01*
X114374390Y-53849814D01*
X114286789Y-53718711D01*
X114286786Y-53718707D01*
X114175292Y-53607213D01*
X114175288Y-53607210D01*
X114044185Y-53519609D01*
X114044172Y-53519602D01*
X113898501Y-53459264D01*
X113898489Y-53459261D01*
X113743845Y-53428500D01*
X113743842Y-53428500D01*
X113586158Y-53428500D01*
X113586155Y-53428500D01*
X113431510Y-53459261D01*
X113431498Y-53459264D01*
X113285827Y-53519602D01*
X113285814Y-53519609D01*
X113154711Y-53607210D01*
X113154707Y-53607213D01*
X113043213Y-53718707D01*
X113043210Y-53718711D01*
X112955609Y-53849814D01*
X112955602Y-53849827D01*
X112895264Y-53995498D01*
X112895261Y-53995510D01*
X112864500Y-54150153D01*
X110300700Y-54150153D01*
X110358076Y-54071181D01*
X110364864Y-54061836D01*
X110375051Y-54047816D01*
X110471557Y-53858412D01*
X110537246Y-53656243D01*
X110570500Y-53446287D01*
X110570500Y-53233713D01*
X110537246Y-53023757D01*
X110471557Y-52821588D01*
X110375051Y-52632184D01*
X110375049Y-52632181D01*
X110375048Y-52632179D01*
X110250109Y-52460213D01*
X110136181Y-52346285D01*
X110102696Y-52284962D01*
X110107680Y-52215270D01*
X110149552Y-52159337D01*
X110180529Y-52142422D01*
X110245597Y-52118153D01*
X120103500Y-52118153D01*
X120103500Y-52275846D01*
X120134261Y-52430489D01*
X120134264Y-52430501D01*
X120194602Y-52576172D01*
X120194609Y-52576185D01*
X120282210Y-52707288D01*
X120282213Y-52707292D01*
X120393707Y-52818786D01*
X120393711Y-52818789D01*
X120524814Y-52906390D01*
X120524827Y-52906397D01*
X120602518Y-52938577D01*
X120670503Y-52966737D01*
X120807422Y-52993972D01*
X120825153Y-52997499D01*
X120825156Y-52997500D01*
X120825158Y-52997500D01*
X120982844Y-52997500D01*
X120982845Y-52997499D01*
X121137497Y-52966737D01*
X121283179Y-52906394D01*
X121414289Y-52818789D01*
X121525789Y-52707289D01*
X121613394Y-52576179D01*
X121673737Y-52430497D01*
X121704500Y-52275842D01*
X121704500Y-52118158D01*
X121704500Y-52118155D01*
X121704499Y-52118153D01*
X121685523Y-52022754D01*
X121673737Y-51963503D01*
X121664366Y-51940879D01*
X121613397Y-51817827D01*
X121613390Y-51817814D01*
X121525789Y-51686711D01*
X121525786Y-51686707D01*
X121414292Y-51575213D01*
X121414288Y-51575210D01*
X121283185Y-51487609D01*
X121283172Y-51487602D01*
X121137501Y-51427264D01*
X121137489Y-51427261D01*
X120982845Y-51396500D01*
X120982842Y-51396500D01*
X120825158Y-51396500D01*
X120825155Y-51396500D01*
X120670510Y-51427261D01*
X120670498Y-51427264D01*
X120524827Y-51487602D01*
X120524814Y-51487609D01*
X120393711Y-51575210D01*
X120393707Y-51575213D01*
X120282213Y-51686707D01*
X120282210Y-51686711D01*
X120194609Y-51817814D01*
X120194602Y-51817827D01*
X120134264Y-51963498D01*
X120134261Y-51963510D01*
X120103500Y-52118153D01*
X110245597Y-52118153D01*
X110312086Y-52093354D01*
X110312093Y-52093350D01*
X110419688Y-52012804D01*
X110419694Y-52012799D01*
X110427191Y-52007186D01*
X110513350Y-51892093D01*
X110513354Y-51892086D01*
X110563596Y-51757379D01*
X110563598Y-51757372D01*
X110569999Y-51697844D01*
X110570000Y-51697827D01*
X110570000Y-51050000D01*
X109653012Y-51050000D01*
X109685925Y-50992993D01*
X109720000Y-50865826D01*
X109720000Y-50734174D01*
X109685925Y-50607007D01*
X109653012Y-50550000D01*
X110570000Y-50550000D01*
X110570000Y-49902172D01*
X110569999Y-49902155D01*
X110563598Y-49842627D01*
X110563596Y-49842620D01*
X110513354Y-49707913D01*
X110513350Y-49707906D01*
X110427190Y-49592812D01*
X110427187Y-49592809D01*
X110312093Y-49506649D01*
X110312086Y-49506645D01*
X110177379Y-49456403D01*
X110177372Y-49456401D01*
X110117844Y-49450000D01*
X109470000Y-49450000D01*
X109470000Y-50366988D01*
X109412993Y-50334075D01*
X109285826Y-50300000D01*
X109154174Y-50300000D01*
X109027007Y-50334075D01*
X108970000Y-50366988D01*
X108970000Y-49450000D01*
X108322155Y-49450000D01*
X108262627Y-49456401D01*
X108262620Y-49456403D01*
X108127913Y-49506645D01*
X108127906Y-49506649D01*
X108012812Y-49592809D01*
X108012809Y-49592812D01*
X107926649Y-49707906D01*
X107922396Y-49715696D01*
X107919822Y-49714290D01*
X107886803Y-49758393D01*
X107821336Y-49782805D01*
X107753064Y-49767947D01*
X107703663Y-49718538D01*
X107688500Y-49659120D01*
X107688500Y-48757500D01*
X107708185Y-48690461D01*
X107760989Y-48644706D01*
X107812500Y-48633500D01*
X125867500Y-48633500D01*
X125934539Y-48653185D01*
G37*
%TD.AperFunction*%
%TA.AperFunction,Conductor*%
G36*
X107893703Y-107026027D02*
G01*
X107930429Y-107081420D01*
X107968443Y-107198412D01*
X107968444Y-107198414D01*
X108064951Y-107387820D01*
X108189890Y-107559786D01*
X108340213Y-107710109D01*
X108512179Y-107835048D01*
X108512181Y-107835049D01*
X108512184Y-107835051D01*
X108521493Y-107839794D01*
X108572290Y-107887766D01*
X108589087Y-107955587D01*
X108566552Y-108021722D01*
X108521505Y-108060760D01*
X108512446Y-108065376D01*
X108512440Y-108065380D01*
X108458282Y-108104727D01*
X108458282Y-108104728D01*
X109090591Y-108737037D01*
X109027007Y-108754075D01*
X108912993Y-108819901D01*
X108819901Y-108912993D01*
X108754075Y-109027007D01*
X108737037Y-109090591D01*
X108104728Y-108458282D01*
X108104727Y-108458282D01*
X108065380Y-108512439D01*
X107968904Y-108701783D01*
X107930431Y-108820192D01*
X107890994Y-108877868D01*
X107826635Y-108905066D01*
X107757789Y-108893151D01*
X107706313Y-108845907D01*
X107688500Y-108781874D01*
X107688500Y-107119740D01*
X107708185Y-107052701D01*
X107760989Y-107006946D01*
X107830147Y-106997002D01*
X107893703Y-107026027D01*
G37*
%TD.AperFunction*%
%TD*%
M02*
