%TF.GenerationSoftware,KiCad,Pcbnew,9.0.4*%
%TF.CreationDate,2025-09-22T14:36:08+02:00*%
%TF.ProjectId,ATmega4809A-breakout,41546d65-6761-4343-9830-39412d627265,rev?*%
%TF.SameCoordinates,Original*%
%TF.FileFunction,Paste,Top*%
%TF.FilePolarity,Positive*%
%FSLAX46Y46*%
G04 Gerber Fmt 4.6, Leading zero omitted, Abs format (unit mm)*
G04 Created by KiCad (PCBNEW 9.0.4) date 2025-09-22 14:36:08*
%MOMM*%
%LPD*%
G01*
G04 APERTURE LIST*
G04 Aperture macros list*
%AMRoundRect*
0 Rectangle with rounded corners*
0 $1 Rounding radius*
0 $2 $3 $4 $5 $6 $7 $8 $9 X,Y pos of 4 corners*
0 Add a 4 corners polygon primitive as box body*
4,1,4,$2,$3,$4,$5,$6,$7,$8,$9,$2,$3,0*
0 Add four circle primitives for the rounded corners*
1,1,$1+$1,$2,$3*
1,1,$1+$1,$4,$5*
1,1,$1+$1,$6,$7*
1,1,$1+$1,$8,$9*
0 Add four rect primitives between the rounded corners*
20,1,$1+$1,$2,$3,$4,$5,0*
20,1,$1+$1,$4,$5,$6,$7,0*
20,1,$1+$1,$6,$7,$8,$9,0*
20,1,$1+$1,$8,$9,$2,$3,0*%
G04 Aperture macros list end*
%ADD10RoundRect,0.250000X0.375000X0.625000X-0.375000X0.625000X-0.375000X-0.625000X0.375000X-0.625000X0*%
%ADD11RoundRect,0.237500X0.287500X0.237500X-0.287500X0.237500X-0.287500X-0.237500X0.287500X-0.237500X0*%
%ADD12RoundRect,0.225000X0.225000X0.375000X-0.225000X0.375000X-0.225000X-0.375000X0.225000X-0.375000X0*%
%ADD13RoundRect,0.237500X0.237500X-0.250000X0.237500X0.250000X-0.237500X0.250000X-0.237500X-0.250000X0*%
%ADD14RoundRect,0.237500X0.250000X0.237500X-0.250000X0.237500X-0.250000X-0.237500X0.250000X-0.237500X0*%
%ADD15RoundRect,0.225000X0.250000X-0.225000X0.250000X0.225000X-0.250000X0.225000X-0.250000X-0.225000X0*%
%ADD16RoundRect,0.225000X-0.225000X-0.250000X0.225000X-0.250000X0.225000X0.250000X-0.225000X0.250000X0*%
%ADD17RoundRect,0.207500X0.207500X0.207500X-0.207500X0.207500X-0.207500X-0.207500X0.207500X-0.207500X0*%
%ADD18RoundRect,0.075000X0.662500X0.075000X-0.662500X0.075000X-0.662500X-0.075000X0.662500X-0.075000X0*%
%ADD19RoundRect,0.075000X0.075000X0.662500X-0.075000X0.662500X-0.075000X-0.662500X0.075000X-0.662500X0*%
%ADD20R,0.700000X1.400000*%
%ADD21R,0.760000X1.400000*%
%ADD22R,0.800000X1.400000*%
%ADD23RoundRect,0.225000X-0.250000X0.225000X-0.250000X-0.225000X0.250000X-0.225000X0.250000X0.225000X0*%
G04 APERTURE END LIST*
D10*
%TO.C,D1*%
X116335000Y-50800000D03*
X113535000Y-50800000D03*
%TD*%
D11*
%TO.C,L1*%
X116431000Y-90805000D03*
X114681000Y-90805000D03*
%TD*%
D12*
%TO.C,D2*%
X117982000Y-93472000D03*
X114682000Y-93472000D03*
%TD*%
D13*
%TO.C,R2*%
X117983000Y-102742000D03*
X117983000Y-100917000D03*
%TD*%
D14*
%TO.C,R4*%
X116633000Y-88646000D03*
X114808000Y-88646000D03*
%TD*%
%TO.C,R5*%
X116125000Y-96012000D03*
X114300000Y-96012000D03*
%TD*%
D13*
%TO.C,R1*%
X116205000Y-102742000D03*
X116205000Y-100917000D03*
%TD*%
D15*
%TO.C,C5*%
X113284000Y-71413500D03*
X113284000Y-69863500D03*
%TD*%
%TO.C,C1*%
X114427000Y-102554500D03*
X114427000Y-101004500D03*
%TD*%
%TO.C,C3*%
X118872000Y-71159500D03*
X118872000Y-69609500D03*
%TD*%
D14*
%TO.C,R3*%
X120927500Y-50800000D03*
X119102500Y-50800000D03*
%TD*%
D16*
%TO.C,C2*%
X115684000Y-97917000D03*
X117234000Y-97917000D03*
%TD*%
D17*
%TO.C,U1*%
X118397000Y-79494500D03*
X118397000Y-78464500D03*
X118397000Y-77434500D03*
X118397000Y-76404500D03*
X117367000Y-79494500D03*
X117367000Y-78464500D03*
X117367000Y-77434500D03*
X117367000Y-76404500D03*
X116337000Y-79494500D03*
X116337000Y-78464500D03*
X116337000Y-77434500D03*
X116337000Y-76404500D03*
X115307000Y-79494500D03*
X115307000Y-78464500D03*
X115307000Y-77434500D03*
X115307000Y-76404500D03*
D18*
X121014500Y-80699500D03*
X121014500Y-80199500D03*
X121014500Y-79699500D03*
X121014500Y-79199500D03*
X121014500Y-78699500D03*
X121014500Y-78199500D03*
X121014500Y-77699500D03*
X121014500Y-77199500D03*
X121014500Y-76699500D03*
X121014500Y-76199500D03*
X121014500Y-75699500D03*
X121014500Y-75199500D03*
D19*
X119602000Y-73787000D03*
X119102000Y-73787000D03*
X118602000Y-73787000D03*
X118102000Y-73787000D03*
X117602000Y-73787000D03*
X117102000Y-73787000D03*
X116602000Y-73787000D03*
X116102000Y-73787000D03*
X115602000Y-73787000D03*
X115102000Y-73787000D03*
X114602000Y-73787000D03*
X114102000Y-73787000D03*
D18*
X112689500Y-75199500D03*
X112689500Y-75699500D03*
X112689500Y-76199500D03*
X112689500Y-76699500D03*
X112689500Y-77199500D03*
X112689500Y-77699500D03*
X112689500Y-78199500D03*
X112689500Y-78699500D03*
X112689500Y-79199500D03*
X112689500Y-79699500D03*
X112689500Y-80199500D03*
X112689500Y-80699500D03*
D19*
X114102000Y-82112000D03*
X114602000Y-82112000D03*
X115102000Y-82112000D03*
X115602000Y-82112000D03*
X116102000Y-82112000D03*
X116602000Y-82112000D03*
X117102000Y-82112000D03*
X117602000Y-82112000D03*
X118102000Y-82112000D03*
X118602000Y-82112000D03*
X119102000Y-82112000D03*
X119602000Y-82112000D03*
%TD*%
D20*
%TO.C,J1*%
X116340000Y-105082000D03*
D21*
X118360000Y-105082000D03*
D22*
X119590000Y-105082000D03*
D20*
X117340000Y-105082000D03*
D21*
X115320000Y-105082000D03*
D22*
X114090000Y-105082000D03*
%TD*%
D23*
%TO.C,C4*%
X116586000Y-84950000D03*
X116586000Y-86500000D03*
%TD*%
M02*
