%TF.GenerationSoftware,KiCad,Pcbnew,9.0.4*%
%TF.CreationDate,2025-09-22T14:36:08+02:00*%
%TF.ProjectId,ATmega4809A-breakout,41546d65-6761-4343-9830-39412d627265,rev?*%
%TF.SameCoordinates,Original*%
%TF.FileFunction,Legend,Bot*%
%TF.FilePolarity,Positive*%
%FSLAX46Y46*%
G04 Gerber Fmt 4.6, Leading zero omitted, Abs format (unit mm)*
G04 Created by KiCad (PCBNEW 9.0.4) date 2025-09-22 14:36:08*
%MOMM*%
%LPD*%
G01*
G04 APERTURE LIST*
%ADD10C,0.100000*%
%ADD11C,0.150000*%
G04 APERTURE END LIST*
D10*
X114793895Y-53469265D02*
X115441514Y-53469265D01*
X115441514Y-53469265D02*
X115517704Y-53507360D01*
X115517704Y-53507360D02*
X115555800Y-53545455D01*
X115555800Y-53545455D02*
X115593895Y-53621646D01*
X115593895Y-53621646D02*
X115593895Y-53774027D01*
X115593895Y-53774027D02*
X115555800Y-53850217D01*
X115555800Y-53850217D02*
X115517704Y-53888312D01*
X115517704Y-53888312D02*
X115441514Y-53926408D01*
X115441514Y-53926408D02*
X114793895Y-53926408D01*
X115593895Y-54307360D02*
X114793895Y-54307360D01*
X114793895Y-54307360D02*
X114793895Y-54497836D01*
X114793895Y-54497836D02*
X114831990Y-54612122D01*
X114831990Y-54612122D02*
X114908180Y-54688312D01*
X114908180Y-54688312D02*
X114984371Y-54726407D01*
X114984371Y-54726407D02*
X115136752Y-54764503D01*
X115136752Y-54764503D02*
X115251038Y-54764503D01*
X115251038Y-54764503D02*
X115403419Y-54726407D01*
X115403419Y-54726407D02*
X115479609Y-54688312D01*
X115479609Y-54688312D02*
X115555800Y-54612122D01*
X115555800Y-54612122D02*
X115593895Y-54497836D01*
X115593895Y-54497836D02*
X115593895Y-54307360D01*
X115593895Y-55107360D02*
X114793895Y-55107360D01*
X114793895Y-55107360D02*
X114793895Y-55412122D01*
X114793895Y-55412122D02*
X114831990Y-55488312D01*
X114831990Y-55488312D02*
X114870085Y-55526407D01*
X114870085Y-55526407D02*
X114946276Y-55564503D01*
X114946276Y-55564503D02*
X115060561Y-55564503D01*
X115060561Y-55564503D02*
X115136752Y-55526407D01*
X115136752Y-55526407D02*
X115174847Y-55488312D01*
X115174847Y-55488312D02*
X115212942Y-55412122D01*
X115212942Y-55412122D02*
X115212942Y-55107360D01*
X115593895Y-55907360D02*
X114793895Y-55907360D01*
X112786448Y-94310688D02*
X112786448Y-93510688D01*
X112786448Y-93510688D02*
X112481686Y-93510688D01*
X112481686Y-93510688D02*
X112405496Y-93548783D01*
X112405496Y-93548783D02*
X112367401Y-93586878D01*
X112367401Y-93586878D02*
X112329305Y-93663069D01*
X112329305Y-93663069D02*
X112329305Y-93777354D01*
X112329305Y-93777354D02*
X112367401Y-93853545D01*
X112367401Y-93853545D02*
X112405496Y-93891640D01*
X112405496Y-93891640D02*
X112481686Y-93929735D01*
X112481686Y-93929735D02*
X112786448Y-93929735D01*
X111719782Y-93891640D02*
X111986448Y-93891640D01*
X111986448Y-94310688D02*
X111986448Y-93510688D01*
X111986448Y-93510688D02*
X111605496Y-93510688D01*
X111338830Y-93586878D02*
X111300734Y-93548783D01*
X111300734Y-93548783D02*
X111224544Y-93510688D01*
X111224544Y-93510688D02*
X111034068Y-93510688D01*
X111034068Y-93510688D02*
X110957877Y-93548783D01*
X110957877Y-93548783D02*
X110919782Y-93586878D01*
X110919782Y-93586878D02*
X110881687Y-93663069D01*
X110881687Y-93663069D02*
X110881687Y-93739259D01*
X110881687Y-93739259D02*
X110919782Y-93853545D01*
X110919782Y-93853545D02*
X111376925Y-94310688D01*
X111376925Y-94310688D02*
X110881687Y-94310688D01*
X110881686Y-104544895D02*
X111148353Y-104163942D01*
X111338829Y-104544895D02*
X111338829Y-103744895D01*
X111338829Y-103744895D02*
X111034067Y-103744895D01*
X111034067Y-103744895D02*
X110957877Y-103782990D01*
X110957877Y-103782990D02*
X110919782Y-103821085D01*
X110919782Y-103821085D02*
X110881686Y-103897276D01*
X110881686Y-103897276D02*
X110881686Y-104011561D01*
X110881686Y-104011561D02*
X110919782Y-104087752D01*
X110919782Y-104087752D02*
X110957877Y-104125847D01*
X110957877Y-104125847D02*
X111034067Y-104163942D01*
X111034067Y-104163942D02*
X111338829Y-104163942D01*
X111449306Y-103522800D02*
X110809306Y-103522800D01*
X122260687Y-50442990D02*
X122336877Y-50404895D01*
X122336877Y-50404895D02*
X122451163Y-50404895D01*
X122451163Y-50404895D02*
X122565449Y-50442990D01*
X122565449Y-50442990D02*
X122641639Y-50519180D01*
X122641639Y-50519180D02*
X122679734Y-50595371D01*
X122679734Y-50595371D02*
X122717830Y-50747752D01*
X122717830Y-50747752D02*
X122717830Y-50862038D01*
X122717830Y-50862038D02*
X122679734Y-51014419D01*
X122679734Y-51014419D02*
X122641639Y-51090609D01*
X122641639Y-51090609D02*
X122565449Y-51166800D01*
X122565449Y-51166800D02*
X122451163Y-51204895D01*
X122451163Y-51204895D02*
X122374972Y-51204895D01*
X122374972Y-51204895D02*
X122260687Y-51166800D01*
X122260687Y-51166800D02*
X122222591Y-51128704D01*
X122222591Y-51128704D02*
X122222591Y-50862038D01*
X122222591Y-50862038D02*
X122374972Y-50862038D01*
X121879734Y-51204895D02*
X121879734Y-50404895D01*
X121879734Y-50404895D02*
X121422591Y-51204895D01*
X121422591Y-51204895D02*
X121422591Y-50404895D01*
X121041639Y-51204895D02*
X121041639Y-50404895D01*
X121041639Y-50404895D02*
X120851163Y-50404895D01*
X120851163Y-50404895D02*
X120736877Y-50442990D01*
X120736877Y-50442990D02*
X120660687Y-50519180D01*
X120660687Y-50519180D02*
X120622592Y-50595371D01*
X120622592Y-50595371D02*
X120584496Y-50747752D01*
X120584496Y-50747752D02*
X120584496Y-50862038D01*
X120584496Y-50862038D02*
X120622592Y-51014419D01*
X120622592Y-51014419D02*
X120660687Y-51090609D01*
X120660687Y-51090609D02*
X120736877Y-51166800D01*
X120736877Y-51166800D02*
X120851163Y-51204895D01*
X120851163Y-51204895D02*
X121041639Y-51204895D01*
X122679734Y-89304895D02*
X122679734Y-88504895D01*
X122679734Y-88504895D02*
X122374972Y-88504895D01*
X122374972Y-88504895D02*
X122298782Y-88542990D01*
X122298782Y-88542990D02*
X122260687Y-88581085D01*
X122260687Y-88581085D02*
X122222591Y-88657276D01*
X122222591Y-88657276D02*
X122222591Y-88771561D01*
X122222591Y-88771561D02*
X122260687Y-88847752D01*
X122260687Y-88847752D02*
X122298782Y-88885847D01*
X122298782Y-88885847D02*
X122374972Y-88923942D01*
X122374972Y-88923942D02*
X122679734Y-88923942D01*
X121917830Y-89076323D02*
X121536877Y-89076323D01*
X121994020Y-89304895D02*
X121727353Y-88504895D01*
X121727353Y-88504895D02*
X121460687Y-89304895D01*
X121270211Y-88504895D02*
X120736877Y-88504895D01*
X120736877Y-88504895D02*
X121079735Y-89304895D01*
X122679734Y-102004895D02*
X122679734Y-101204895D01*
X122679734Y-101204895D02*
X122374972Y-101204895D01*
X122374972Y-101204895D02*
X122298782Y-101242990D01*
X122298782Y-101242990D02*
X122260687Y-101281085D01*
X122260687Y-101281085D02*
X122222591Y-101357276D01*
X122222591Y-101357276D02*
X122222591Y-101471561D01*
X122222591Y-101471561D02*
X122260687Y-101547752D01*
X122260687Y-101547752D02*
X122298782Y-101585847D01*
X122298782Y-101585847D02*
X122374972Y-101623942D01*
X122374972Y-101623942D02*
X122679734Y-101623942D01*
X121917830Y-101776323D02*
X121536877Y-101776323D01*
X121994020Y-102004895D02*
X121727353Y-101204895D01*
X121727353Y-101204895D02*
X121460687Y-102004895D01*
X121232116Y-101281085D02*
X121194020Y-101242990D01*
X121194020Y-101242990D02*
X121117830Y-101204895D01*
X121117830Y-101204895D02*
X120927354Y-101204895D01*
X120927354Y-101204895D02*
X120851163Y-101242990D01*
X120851163Y-101242990D02*
X120813068Y-101281085D01*
X120813068Y-101281085D02*
X120774973Y-101357276D01*
X120774973Y-101357276D02*
X120774973Y-101433466D01*
X120774973Y-101433466D02*
X120813068Y-101547752D01*
X120813068Y-101547752D02*
X121270211Y-102004895D01*
X121270211Y-102004895D02*
X120774973Y-102004895D01*
X122679734Y-68984895D02*
X122679734Y-68184895D01*
X122679734Y-68184895D02*
X122374972Y-68184895D01*
X122374972Y-68184895D02*
X122298782Y-68222990D01*
X122298782Y-68222990D02*
X122260687Y-68261085D01*
X122260687Y-68261085D02*
X122222591Y-68337276D01*
X122222591Y-68337276D02*
X122222591Y-68451561D01*
X122222591Y-68451561D02*
X122260687Y-68527752D01*
X122260687Y-68527752D02*
X122298782Y-68565847D01*
X122298782Y-68565847D02*
X122374972Y-68603942D01*
X122374972Y-68603942D02*
X122679734Y-68603942D01*
X121422591Y-68908704D02*
X121460687Y-68946800D01*
X121460687Y-68946800D02*
X121574972Y-68984895D01*
X121574972Y-68984895D02*
X121651163Y-68984895D01*
X121651163Y-68984895D02*
X121765449Y-68946800D01*
X121765449Y-68946800D02*
X121841639Y-68870609D01*
X121841639Y-68870609D02*
X121879734Y-68794419D01*
X121879734Y-68794419D02*
X121917830Y-68642038D01*
X121917830Y-68642038D02*
X121917830Y-68527752D01*
X121917830Y-68527752D02*
X121879734Y-68375371D01*
X121879734Y-68375371D02*
X121841639Y-68299180D01*
X121841639Y-68299180D02*
X121765449Y-68222990D01*
X121765449Y-68222990D02*
X121651163Y-68184895D01*
X121651163Y-68184895D02*
X121574972Y-68184895D01*
X121574972Y-68184895D02*
X121460687Y-68222990D01*
X121460687Y-68222990D02*
X121422591Y-68261085D01*
X120660687Y-68984895D02*
X121117830Y-68984895D01*
X120889258Y-68984895D02*
X120889258Y-68184895D01*
X120889258Y-68184895D02*
X120965449Y-68299180D01*
X120965449Y-68299180D02*
X121041639Y-68375371D01*
X121041639Y-68375371D02*
X121117830Y-68413466D01*
X122679734Y-53744895D02*
X122679734Y-52944895D01*
X122679734Y-52944895D02*
X122374972Y-52944895D01*
X122374972Y-52944895D02*
X122298782Y-52982990D01*
X122298782Y-52982990D02*
X122260687Y-53021085D01*
X122260687Y-53021085D02*
X122222591Y-53097276D01*
X122222591Y-53097276D02*
X122222591Y-53211561D01*
X122222591Y-53211561D02*
X122260687Y-53287752D01*
X122260687Y-53287752D02*
X122298782Y-53325847D01*
X122298782Y-53325847D02*
X122374972Y-53363942D01*
X122374972Y-53363942D02*
X122679734Y-53363942D01*
X121422591Y-53668704D02*
X121460687Y-53706800D01*
X121460687Y-53706800D02*
X121574972Y-53744895D01*
X121574972Y-53744895D02*
X121651163Y-53744895D01*
X121651163Y-53744895D02*
X121765449Y-53706800D01*
X121765449Y-53706800D02*
X121841639Y-53630609D01*
X121841639Y-53630609D02*
X121879734Y-53554419D01*
X121879734Y-53554419D02*
X121917830Y-53402038D01*
X121917830Y-53402038D02*
X121917830Y-53287752D01*
X121917830Y-53287752D02*
X121879734Y-53135371D01*
X121879734Y-53135371D02*
X121841639Y-53059180D01*
X121841639Y-53059180D02*
X121765449Y-52982990D01*
X121765449Y-52982990D02*
X121651163Y-52944895D01*
X121651163Y-52944895D02*
X121574972Y-52944895D01*
X121574972Y-52944895D02*
X121460687Y-52982990D01*
X121460687Y-52982990D02*
X121422591Y-53021085D01*
X121155925Y-52944895D02*
X120622591Y-52944895D01*
X120622591Y-52944895D02*
X120965449Y-53744895D01*
X112900734Y-53740530D02*
X112900734Y-52940530D01*
X112900734Y-52940530D02*
X112595972Y-52940530D01*
X112595972Y-52940530D02*
X112519782Y-52978625D01*
X112519782Y-52978625D02*
X112481687Y-53016720D01*
X112481687Y-53016720D02*
X112443591Y-53092911D01*
X112443591Y-53092911D02*
X112443591Y-53207196D01*
X112443591Y-53207196D02*
X112481687Y-53283387D01*
X112481687Y-53283387D02*
X112519782Y-53321482D01*
X112519782Y-53321482D02*
X112595972Y-53359577D01*
X112595972Y-53359577D02*
X112900734Y-53359577D01*
X112100734Y-53740530D02*
X112100734Y-52940530D01*
X112100734Y-52940530D02*
X111910258Y-52940530D01*
X111910258Y-52940530D02*
X111795972Y-52978625D01*
X111795972Y-52978625D02*
X111719782Y-53054815D01*
X111719782Y-53054815D02*
X111681687Y-53131006D01*
X111681687Y-53131006D02*
X111643591Y-53283387D01*
X111643591Y-53283387D02*
X111643591Y-53397673D01*
X111643591Y-53397673D02*
X111681687Y-53550054D01*
X111681687Y-53550054D02*
X111719782Y-53626244D01*
X111719782Y-53626244D02*
X111795972Y-53702435D01*
X111795972Y-53702435D02*
X111910258Y-53740530D01*
X111910258Y-53740530D02*
X112100734Y-53740530D01*
X111148353Y-52940530D02*
X111072163Y-52940530D01*
X111072163Y-52940530D02*
X110995972Y-52978625D01*
X110995972Y-52978625D02*
X110957877Y-53016720D01*
X110957877Y-53016720D02*
X110919782Y-53092911D01*
X110919782Y-53092911D02*
X110881687Y-53245292D01*
X110881687Y-53245292D02*
X110881687Y-53435768D01*
X110881687Y-53435768D02*
X110919782Y-53588149D01*
X110919782Y-53588149D02*
X110957877Y-53664339D01*
X110957877Y-53664339D02*
X110995972Y-53702435D01*
X110995972Y-53702435D02*
X111072163Y-53740530D01*
X111072163Y-53740530D02*
X111148353Y-53740530D01*
X111148353Y-53740530D02*
X111224544Y-53702435D01*
X111224544Y-53702435D02*
X111262639Y-53664339D01*
X111262639Y-53664339D02*
X111300734Y-53588149D01*
X111300734Y-53588149D02*
X111338830Y-53435768D01*
X111338830Y-53435768D02*
X111338830Y-53245292D01*
X111338830Y-53245292D02*
X111300734Y-53092911D01*
X111300734Y-53092911D02*
X111262639Y-53016720D01*
X111262639Y-53016720D02*
X111224544Y-52978625D01*
X111224544Y-52978625D02*
X111148353Y-52940530D01*
X112900734Y-68954339D02*
X112900734Y-68154339D01*
X112900734Y-68154339D02*
X112595972Y-68154339D01*
X112595972Y-68154339D02*
X112519782Y-68192434D01*
X112519782Y-68192434D02*
X112481687Y-68230529D01*
X112481687Y-68230529D02*
X112443591Y-68306720D01*
X112443591Y-68306720D02*
X112443591Y-68421005D01*
X112443591Y-68421005D02*
X112481687Y-68497196D01*
X112481687Y-68497196D02*
X112519782Y-68535291D01*
X112519782Y-68535291D02*
X112595972Y-68573386D01*
X112595972Y-68573386D02*
X112900734Y-68573386D01*
X112100734Y-68954339D02*
X112100734Y-68154339D01*
X112100734Y-68154339D02*
X111910258Y-68154339D01*
X111910258Y-68154339D02*
X111795972Y-68192434D01*
X111795972Y-68192434D02*
X111719782Y-68268624D01*
X111719782Y-68268624D02*
X111681687Y-68344815D01*
X111681687Y-68344815D02*
X111643591Y-68497196D01*
X111643591Y-68497196D02*
X111643591Y-68611482D01*
X111643591Y-68611482D02*
X111681687Y-68763863D01*
X111681687Y-68763863D02*
X111719782Y-68840053D01*
X111719782Y-68840053D02*
X111795972Y-68916244D01*
X111795972Y-68916244D02*
X111910258Y-68954339D01*
X111910258Y-68954339D02*
X112100734Y-68954339D01*
X110957877Y-68154339D02*
X111110258Y-68154339D01*
X111110258Y-68154339D02*
X111186449Y-68192434D01*
X111186449Y-68192434D02*
X111224544Y-68230529D01*
X111224544Y-68230529D02*
X111300734Y-68344815D01*
X111300734Y-68344815D02*
X111338830Y-68497196D01*
X111338830Y-68497196D02*
X111338830Y-68801958D01*
X111338830Y-68801958D02*
X111300734Y-68878148D01*
X111300734Y-68878148D02*
X111262639Y-68916244D01*
X111262639Y-68916244D02*
X111186449Y-68954339D01*
X111186449Y-68954339D02*
X111034068Y-68954339D01*
X111034068Y-68954339D02*
X110957877Y-68916244D01*
X110957877Y-68916244D02*
X110919782Y-68878148D01*
X110919782Y-68878148D02*
X110881687Y-68801958D01*
X110881687Y-68801958D02*
X110881687Y-68611482D01*
X110881687Y-68611482D02*
X110919782Y-68535291D01*
X110919782Y-68535291D02*
X110957877Y-68497196D01*
X110957877Y-68497196D02*
X111034068Y-68459101D01*
X111034068Y-68459101D02*
X111186449Y-68459101D01*
X111186449Y-68459101D02*
X111262639Y-68497196D01*
X111262639Y-68497196D02*
X111300734Y-68535291D01*
X111300734Y-68535291D02*
X111338830Y-68611482D01*
X122679734Y-61364895D02*
X122679734Y-60564895D01*
X122679734Y-60564895D02*
X122374972Y-60564895D01*
X122374972Y-60564895D02*
X122298782Y-60602990D01*
X122298782Y-60602990D02*
X122260687Y-60641085D01*
X122260687Y-60641085D02*
X122222591Y-60717276D01*
X122222591Y-60717276D02*
X122222591Y-60831561D01*
X122222591Y-60831561D02*
X122260687Y-60907752D01*
X122260687Y-60907752D02*
X122298782Y-60945847D01*
X122298782Y-60945847D02*
X122374972Y-60983942D01*
X122374972Y-60983942D02*
X122679734Y-60983942D01*
X121422591Y-61288704D02*
X121460687Y-61326800D01*
X121460687Y-61326800D02*
X121574972Y-61364895D01*
X121574972Y-61364895D02*
X121651163Y-61364895D01*
X121651163Y-61364895D02*
X121765449Y-61326800D01*
X121765449Y-61326800D02*
X121841639Y-61250609D01*
X121841639Y-61250609D02*
X121879734Y-61174419D01*
X121879734Y-61174419D02*
X121917830Y-61022038D01*
X121917830Y-61022038D02*
X121917830Y-60907752D01*
X121917830Y-60907752D02*
X121879734Y-60755371D01*
X121879734Y-60755371D02*
X121841639Y-60679180D01*
X121841639Y-60679180D02*
X121765449Y-60602990D01*
X121765449Y-60602990D02*
X121651163Y-60564895D01*
X121651163Y-60564895D02*
X121574972Y-60564895D01*
X121574972Y-60564895D02*
X121460687Y-60602990D01*
X121460687Y-60602990D02*
X121422591Y-60641085D01*
X120736877Y-60831561D02*
X120736877Y-61364895D01*
X120927353Y-60526800D02*
X121117830Y-61098228D01*
X121117830Y-61098228D02*
X120622591Y-61098228D01*
X112786448Y-91775053D02*
X112786448Y-90975053D01*
X112786448Y-90975053D02*
X112481686Y-90975053D01*
X112481686Y-90975053D02*
X112405496Y-91013148D01*
X112405496Y-91013148D02*
X112367401Y-91051243D01*
X112367401Y-91051243D02*
X112329305Y-91127434D01*
X112329305Y-91127434D02*
X112329305Y-91241719D01*
X112329305Y-91241719D02*
X112367401Y-91317910D01*
X112367401Y-91317910D02*
X112405496Y-91356005D01*
X112405496Y-91356005D02*
X112481686Y-91394100D01*
X112481686Y-91394100D02*
X112786448Y-91394100D01*
X111719782Y-91356005D02*
X111986448Y-91356005D01*
X111986448Y-91775053D02*
X111986448Y-90975053D01*
X111986448Y-90975053D02*
X111605496Y-90975053D01*
X110881687Y-91775053D02*
X111338830Y-91775053D01*
X111110258Y-91775053D02*
X111110258Y-90975053D01*
X111110258Y-90975053D02*
X111186449Y-91089338D01*
X111186449Y-91089338D02*
X111262639Y-91165529D01*
X111262639Y-91165529D02*
X111338830Y-91203624D01*
X112786448Y-89239419D02*
X112786448Y-88439419D01*
X112786448Y-88439419D02*
X112481686Y-88439419D01*
X112481686Y-88439419D02*
X112405496Y-88477514D01*
X112405496Y-88477514D02*
X112367401Y-88515609D01*
X112367401Y-88515609D02*
X112329305Y-88591800D01*
X112329305Y-88591800D02*
X112329305Y-88706085D01*
X112329305Y-88706085D02*
X112367401Y-88782276D01*
X112367401Y-88782276D02*
X112405496Y-88820371D01*
X112405496Y-88820371D02*
X112481686Y-88858466D01*
X112481686Y-88858466D02*
X112786448Y-88858466D01*
X111719782Y-88820371D02*
X111986448Y-88820371D01*
X111986448Y-89239419D02*
X111986448Y-88439419D01*
X111986448Y-88439419D02*
X111605496Y-88439419D01*
X111148353Y-88439419D02*
X111072163Y-88439419D01*
X111072163Y-88439419D02*
X110995972Y-88477514D01*
X110995972Y-88477514D02*
X110957877Y-88515609D01*
X110957877Y-88515609D02*
X110919782Y-88591800D01*
X110919782Y-88591800D02*
X110881687Y-88744181D01*
X110881687Y-88744181D02*
X110881687Y-88934657D01*
X110881687Y-88934657D02*
X110919782Y-89087038D01*
X110919782Y-89087038D02*
X110957877Y-89163228D01*
X110957877Y-89163228D02*
X110995972Y-89201324D01*
X110995972Y-89201324D02*
X111072163Y-89239419D01*
X111072163Y-89239419D02*
X111148353Y-89239419D01*
X111148353Y-89239419D02*
X111224544Y-89201324D01*
X111224544Y-89201324D02*
X111262639Y-89163228D01*
X111262639Y-89163228D02*
X111300734Y-89087038D01*
X111300734Y-89087038D02*
X111338830Y-88934657D01*
X111338830Y-88934657D02*
X111338830Y-88744181D01*
X111338830Y-88744181D02*
X111300734Y-88591800D01*
X111300734Y-88591800D02*
X111262639Y-88515609D01*
X111262639Y-88515609D02*
X111224544Y-88477514D01*
X111224544Y-88477514D02*
X111148353Y-88439419D01*
X115111816Y-91663333D02*
X115111816Y-92139523D01*
X115397531Y-91568095D02*
X114397531Y-91901428D01*
X114397531Y-91901428D02*
X115397531Y-92234761D01*
X114397531Y-92425238D02*
X114397531Y-92996666D01*
X115397531Y-92710952D02*
X114397531Y-92710952D01*
X115397531Y-93330000D02*
X114397531Y-93330000D01*
X114397531Y-93330000D02*
X115111816Y-93663333D01*
X115111816Y-93663333D02*
X114397531Y-93996666D01*
X114397531Y-93996666D02*
X115397531Y-93996666D01*
X114873721Y-94472857D02*
X114873721Y-94806190D01*
X115397531Y-94949047D02*
X115397531Y-94472857D01*
X115397531Y-94472857D02*
X114397531Y-94472857D01*
X114397531Y-94472857D02*
X114397531Y-94949047D01*
X114445150Y-95901428D02*
X114397531Y-95806190D01*
X114397531Y-95806190D02*
X114397531Y-95663333D01*
X114397531Y-95663333D02*
X114445150Y-95520476D01*
X114445150Y-95520476D02*
X114540388Y-95425238D01*
X114540388Y-95425238D02*
X114635626Y-95377619D01*
X114635626Y-95377619D02*
X114826102Y-95330000D01*
X114826102Y-95330000D02*
X114968959Y-95330000D01*
X114968959Y-95330000D02*
X115159435Y-95377619D01*
X115159435Y-95377619D02*
X115254673Y-95425238D01*
X115254673Y-95425238D02*
X115349912Y-95520476D01*
X115349912Y-95520476D02*
X115397531Y-95663333D01*
X115397531Y-95663333D02*
X115397531Y-95758571D01*
X115397531Y-95758571D02*
X115349912Y-95901428D01*
X115349912Y-95901428D02*
X115302292Y-95949047D01*
X115302292Y-95949047D02*
X114968959Y-95949047D01*
X114968959Y-95949047D02*
X114968959Y-95758571D01*
X115111816Y-96330000D02*
X115111816Y-96806190D01*
X115397531Y-96234762D02*
X114397531Y-96568095D01*
X114397531Y-96568095D02*
X115397531Y-96901428D01*
X114730864Y-97663333D02*
X115397531Y-97663333D01*
X114349912Y-97425238D02*
X115064197Y-97187143D01*
X115064197Y-97187143D02*
X115064197Y-97806190D01*
X114826102Y-98330000D02*
X114778483Y-98234762D01*
X114778483Y-98234762D02*
X114730864Y-98187143D01*
X114730864Y-98187143D02*
X114635626Y-98139524D01*
X114635626Y-98139524D02*
X114588007Y-98139524D01*
X114588007Y-98139524D02*
X114492769Y-98187143D01*
X114492769Y-98187143D02*
X114445150Y-98234762D01*
X114445150Y-98234762D02*
X114397531Y-98330000D01*
X114397531Y-98330000D02*
X114397531Y-98520476D01*
X114397531Y-98520476D02*
X114445150Y-98615714D01*
X114445150Y-98615714D02*
X114492769Y-98663333D01*
X114492769Y-98663333D02*
X114588007Y-98710952D01*
X114588007Y-98710952D02*
X114635626Y-98710952D01*
X114635626Y-98710952D02*
X114730864Y-98663333D01*
X114730864Y-98663333D02*
X114778483Y-98615714D01*
X114778483Y-98615714D02*
X114826102Y-98520476D01*
X114826102Y-98520476D02*
X114826102Y-98330000D01*
X114826102Y-98330000D02*
X114873721Y-98234762D01*
X114873721Y-98234762D02*
X114921340Y-98187143D01*
X114921340Y-98187143D02*
X115016578Y-98139524D01*
X115016578Y-98139524D02*
X115207054Y-98139524D01*
X115207054Y-98139524D02*
X115302292Y-98187143D01*
X115302292Y-98187143D02*
X115349912Y-98234762D01*
X115349912Y-98234762D02*
X115397531Y-98330000D01*
X115397531Y-98330000D02*
X115397531Y-98520476D01*
X115397531Y-98520476D02*
X115349912Y-98615714D01*
X115349912Y-98615714D02*
X115302292Y-98663333D01*
X115302292Y-98663333D02*
X115207054Y-98710952D01*
X115207054Y-98710952D02*
X115016578Y-98710952D01*
X115016578Y-98710952D02*
X114921340Y-98663333D01*
X114921340Y-98663333D02*
X114873721Y-98615714D01*
X114873721Y-98615714D02*
X114826102Y-98520476D01*
X114397531Y-99330000D02*
X114397531Y-99425238D01*
X114397531Y-99425238D02*
X114445150Y-99520476D01*
X114445150Y-99520476D02*
X114492769Y-99568095D01*
X114492769Y-99568095D02*
X114588007Y-99615714D01*
X114588007Y-99615714D02*
X114778483Y-99663333D01*
X114778483Y-99663333D02*
X115016578Y-99663333D01*
X115016578Y-99663333D02*
X115207054Y-99615714D01*
X115207054Y-99615714D02*
X115302292Y-99568095D01*
X115302292Y-99568095D02*
X115349912Y-99520476D01*
X115349912Y-99520476D02*
X115397531Y-99425238D01*
X115397531Y-99425238D02*
X115397531Y-99330000D01*
X115397531Y-99330000D02*
X115349912Y-99234762D01*
X115349912Y-99234762D02*
X115302292Y-99187143D01*
X115302292Y-99187143D02*
X115207054Y-99139524D01*
X115207054Y-99139524D02*
X115016578Y-99091905D01*
X115016578Y-99091905D02*
X114778483Y-99091905D01*
X114778483Y-99091905D02*
X114588007Y-99139524D01*
X114588007Y-99139524D02*
X114492769Y-99187143D01*
X114492769Y-99187143D02*
X114445150Y-99234762D01*
X114445150Y-99234762D02*
X114397531Y-99330000D01*
X115397531Y-100139524D02*
X115397531Y-100330000D01*
X115397531Y-100330000D02*
X115349912Y-100425238D01*
X115349912Y-100425238D02*
X115302292Y-100472857D01*
X115302292Y-100472857D02*
X115159435Y-100568095D01*
X115159435Y-100568095D02*
X114968959Y-100615714D01*
X114968959Y-100615714D02*
X114588007Y-100615714D01*
X114588007Y-100615714D02*
X114492769Y-100568095D01*
X114492769Y-100568095D02*
X114445150Y-100520476D01*
X114445150Y-100520476D02*
X114397531Y-100425238D01*
X114397531Y-100425238D02*
X114397531Y-100234762D01*
X114397531Y-100234762D02*
X114445150Y-100139524D01*
X114445150Y-100139524D02*
X114492769Y-100091905D01*
X114492769Y-100091905D02*
X114588007Y-100044286D01*
X114588007Y-100044286D02*
X114826102Y-100044286D01*
X114826102Y-100044286D02*
X114921340Y-100091905D01*
X114921340Y-100091905D02*
X114968959Y-100139524D01*
X114968959Y-100139524D02*
X115016578Y-100234762D01*
X115016578Y-100234762D02*
X115016578Y-100425238D01*
X115016578Y-100425238D02*
X114968959Y-100520476D01*
X114968959Y-100520476D02*
X114921340Y-100568095D01*
X114921340Y-100568095D02*
X114826102Y-100615714D01*
X114873721Y-102139524D02*
X114921340Y-102282381D01*
X114921340Y-102282381D02*
X114968959Y-102330000D01*
X114968959Y-102330000D02*
X115064197Y-102377619D01*
X115064197Y-102377619D02*
X115207054Y-102377619D01*
X115207054Y-102377619D02*
X115302292Y-102330000D01*
X115302292Y-102330000D02*
X115349912Y-102282381D01*
X115349912Y-102282381D02*
X115397531Y-102187143D01*
X115397531Y-102187143D02*
X115397531Y-101806191D01*
X115397531Y-101806191D02*
X114397531Y-101806191D01*
X114397531Y-101806191D02*
X114397531Y-102139524D01*
X114397531Y-102139524D02*
X114445150Y-102234762D01*
X114445150Y-102234762D02*
X114492769Y-102282381D01*
X114492769Y-102282381D02*
X114588007Y-102330000D01*
X114588007Y-102330000D02*
X114683245Y-102330000D01*
X114683245Y-102330000D02*
X114778483Y-102282381D01*
X114778483Y-102282381D02*
X114826102Y-102234762D01*
X114826102Y-102234762D02*
X114873721Y-102139524D01*
X114873721Y-102139524D02*
X114873721Y-101806191D01*
X115397531Y-103377619D02*
X114921340Y-103044286D01*
X115397531Y-102806191D02*
X114397531Y-102806191D01*
X114397531Y-102806191D02*
X114397531Y-103187143D01*
X114397531Y-103187143D02*
X114445150Y-103282381D01*
X114445150Y-103282381D02*
X114492769Y-103330000D01*
X114492769Y-103330000D02*
X114588007Y-103377619D01*
X114588007Y-103377619D02*
X114730864Y-103377619D01*
X114730864Y-103377619D02*
X114826102Y-103330000D01*
X114826102Y-103330000D02*
X114873721Y-103282381D01*
X114873721Y-103282381D02*
X114921340Y-103187143D01*
X114921340Y-103187143D02*
X114921340Y-102806191D01*
X114873721Y-103806191D02*
X114873721Y-104139524D01*
X115397531Y-104282381D02*
X115397531Y-103806191D01*
X115397531Y-103806191D02*
X114397531Y-103806191D01*
X114397531Y-103806191D02*
X114397531Y-104282381D01*
X115111816Y-104663334D02*
X115111816Y-105139524D01*
X115397531Y-104568096D02*
X114397531Y-104901429D01*
X114397531Y-104901429D02*
X115397531Y-105234762D01*
X115397531Y-105568096D02*
X114397531Y-105568096D01*
X115397531Y-106139524D02*
X114826102Y-105710953D01*
X114397531Y-106139524D02*
X114968959Y-105568096D01*
X114397531Y-106758572D02*
X114397531Y-106949048D01*
X114397531Y-106949048D02*
X114445150Y-107044286D01*
X114445150Y-107044286D02*
X114540388Y-107139524D01*
X114540388Y-107139524D02*
X114730864Y-107187143D01*
X114730864Y-107187143D02*
X115064197Y-107187143D01*
X115064197Y-107187143D02*
X115254673Y-107139524D01*
X115254673Y-107139524D02*
X115349912Y-107044286D01*
X115349912Y-107044286D02*
X115397531Y-106949048D01*
X115397531Y-106949048D02*
X115397531Y-106758572D01*
X115397531Y-106758572D02*
X115349912Y-106663334D01*
X115349912Y-106663334D02*
X115254673Y-106568096D01*
X115254673Y-106568096D02*
X115064197Y-106520477D01*
X115064197Y-106520477D02*
X114730864Y-106520477D01*
X114730864Y-106520477D02*
X114540388Y-106568096D01*
X114540388Y-106568096D02*
X114445150Y-106663334D01*
X114445150Y-106663334D02*
X114397531Y-106758572D01*
X114397531Y-107615715D02*
X115207054Y-107615715D01*
X115207054Y-107615715D02*
X115302292Y-107663334D01*
X115302292Y-107663334D02*
X115349912Y-107710953D01*
X115349912Y-107710953D02*
X115397531Y-107806191D01*
X115397531Y-107806191D02*
X115397531Y-107996667D01*
X115397531Y-107996667D02*
X115349912Y-108091905D01*
X115349912Y-108091905D02*
X115302292Y-108139524D01*
X115302292Y-108139524D02*
X115207054Y-108187143D01*
X115207054Y-108187143D02*
X114397531Y-108187143D01*
X114397531Y-108520477D02*
X114397531Y-109091905D01*
X115397531Y-108806191D02*
X114397531Y-108806191D01*
X117007475Y-92091905D02*
X116007475Y-92091905D01*
X116007475Y-92091905D02*
X116721760Y-92425238D01*
X116721760Y-92425238D02*
X116007475Y-92758571D01*
X116007475Y-92758571D02*
X117007475Y-92758571D01*
X116721760Y-93187143D02*
X116721760Y-93663333D01*
X117007475Y-93091905D02*
X116007475Y-93425238D01*
X116007475Y-93425238D02*
X117007475Y-93758571D01*
X116912236Y-94663333D02*
X116959856Y-94615714D01*
X116959856Y-94615714D02*
X117007475Y-94472857D01*
X117007475Y-94472857D02*
X117007475Y-94377619D01*
X117007475Y-94377619D02*
X116959856Y-94234762D01*
X116959856Y-94234762D02*
X116864617Y-94139524D01*
X116864617Y-94139524D02*
X116769379Y-94091905D01*
X116769379Y-94091905D02*
X116578903Y-94044286D01*
X116578903Y-94044286D02*
X116436046Y-94044286D01*
X116436046Y-94044286D02*
X116245570Y-94091905D01*
X116245570Y-94091905D02*
X116150332Y-94139524D01*
X116150332Y-94139524D02*
X116055094Y-94234762D01*
X116055094Y-94234762D02*
X116007475Y-94377619D01*
X116007475Y-94377619D02*
X116007475Y-94472857D01*
X116007475Y-94472857D02*
X116055094Y-94615714D01*
X116055094Y-94615714D02*
X116102713Y-94663333D01*
X117007475Y-95091905D02*
X116007475Y-95091905D01*
X116483665Y-95091905D02*
X116483665Y-95663333D01*
X117007475Y-95663333D02*
X116007475Y-95663333D01*
X117007475Y-96139524D02*
X116007475Y-96139524D01*
X117007475Y-96615714D02*
X116007475Y-96615714D01*
X116007475Y-96615714D02*
X117007475Y-97187142D01*
X117007475Y-97187142D02*
X116007475Y-97187142D01*
X116721760Y-97615714D02*
X116721760Y-98091904D01*
X117007475Y-97520476D02*
X116007475Y-97853809D01*
X116007475Y-97853809D02*
X117007475Y-98187142D01*
X116959856Y-99234762D02*
X117007475Y-99377619D01*
X117007475Y-99377619D02*
X117007475Y-99615714D01*
X117007475Y-99615714D02*
X116959856Y-99710952D01*
X116959856Y-99710952D02*
X116912236Y-99758571D01*
X116912236Y-99758571D02*
X116816998Y-99806190D01*
X116816998Y-99806190D02*
X116721760Y-99806190D01*
X116721760Y-99806190D02*
X116626522Y-99758571D01*
X116626522Y-99758571D02*
X116578903Y-99710952D01*
X116578903Y-99710952D02*
X116531284Y-99615714D01*
X116531284Y-99615714D02*
X116483665Y-99425238D01*
X116483665Y-99425238D02*
X116436046Y-99330000D01*
X116436046Y-99330000D02*
X116388427Y-99282381D01*
X116388427Y-99282381D02*
X116293189Y-99234762D01*
X116293189Y-99234762D02*
X116197951Y-99234762D01*
X116197951Y-99234762D02*
X116102713Y-99282381D01*
X116102713Y-99282381D02*
X116055094Y-99330000D01*
X116055094Y-99330000D02*
X116007475Y-99425238D01*
X116007475Y-99425238D02*
X116007475Y-99663333D01*
X116007475Y-99663333D02*
X116055094Y-99806190D01*
X117007475Y-100234762D02*
X116007475Y-100234762D01*
X116007475Y-100234762D02*
X116007475Y-100615714D01*
X116007475Y-100615714D02*
X116055094Y-100710952D01*
X116055094Y-100710952D02*
X116102713Y-100758571D01*
X116102713Y-100758571D02*
X116197951Y-100806190D01*
X116197951Y-100806190D02*
X116340808Y-100806190D01*
X116340808Y-100806190D02*
X116436046Y-100758571D01*
X116436046Y-100758571D02*
X116483665Y-100710952D01*
X116483665Y-100710952D02*
X116531284Y-100615714D01*
X116531284Y-100615714D02*
X116531284Y-100234762D01*
X116483665Y-101234762D02*
X116483665Y-101568095D01*
X117007475Y-101710952D02*
X117007475Y-101234762D01*
X117007475Y-101234762D02*
X116007475Y-101234762D01*
X116007475Y-101234762D02*
X116007475Y-101710952D01*
X116912236Y-102710952D02*
X116959856Y-102663333D01*
X116959856Y-102663333D02*
X117007475Y-102520476D01*
X117007475Y-102520476D02*
X117007475Y-102425238D01*
X117007475Y-102425238D02*
X116959856Y-102282381D01*
X116959856Y-102282381D02*
X116864617Y-102187143D01*
X116864617Y-102187143D02*
X116769379Y-102139524D01*
X116769379Y-102139524D02*
X116578903Y-102091905D01*
X116578903Y-102091905D02*
X116436046Y-102091905D01*
X116436046Y-102091905D02*
X116245570Y-102139524D01*
X116245570Y-102139524D02*
X116150332Y-102187143D01*
X116150332Y-102187143D02*
X116055094Y-102282381D01*
X116055094Y-102282381D02*
X116007475Y-102425238D01*
X116007475Y-102425238D02*
X116007475Y-102520476D01*
X116007475Y-102520476D02*
X116055094Y-102663333D01*
X116055094Y-102663333D02*
X116102713Y-102710952D01*
X116007475Y-103139524D02*
X116816998Y-103139524D01*
X116816998Y-103139524D02*
X116912236Y-103187143D01*
X116912236Y-103187143D02*
X116959856Y-103234762D01*
X116959856Y-103234762D02*
X117007475Y-103330000D01*
X117007475Y-103330000D02*
X117007475Y-103520476D01*
X117007475Y-103520476D02*
X116959856Y-103615714D01*
X116959856Y-103615714D02*
X116912236Y-103663333D01*
X116912236Y-103663333D02*
X116816998Y-103710952D01*
X116816998Y-103710952D02*
X116007475Y-103710952D01*
X117007475Y-104663333D02*
X117007475Y-104187143D01*
X117007475Y-104187143D02*
X116007475Y-104187143D01*
X116721760Y-104949048D02*
X116721760Y-105425238D01*
X117007475Y-104853810D02*
X116007475Y-105187143D01*
X116007475Y-105187143D02*
X117007475Y-105520476D01*
X116007475Y-105710953D02*
X116007475Y-106282381D01*
X117007475Y-105996667D02*
X116007475Y-105996667D01*
X117007475Y-107187143D02*
X116531284Y-106853810D01*
X117007475Y-106615715D02*
X116007475Y-106615715D01*
X116007475Y-106615715D02*
X116007475Y-106996667D01*
X116007475Y-106996667D02*
X116055094Y-107091905D01*
X116055094Y-107091905D02*
X116102713Y-107139524D01*
X116102713Y-107139524D02*
X116197951Y-107187143D01*
X116197951Y-107187143D02*
X116340808Y-107187143D01*
X116340808Y-107187143D02*
X116436046Y-107139524D01*
X116436046Y-107139524D02*
X116483665Y-107091905D01*
X116483665Y-107091905D02*
X116531284Y-106996667D01*
X116531284Y-106996667D02*
X116531284Y-106615715D01*
X117007475Y-107615715D02*
X116007475Y-107615715D01*
X116007475Y-107996667D02*
X117007475Y-108663333D01*
X116007475Y-108663333D02*
X117007475Y-107996667D01*
X118617419Y-98472856D02*
X118141228Y-98139523D01*
X118617419Y-97901428D02*
X117617419Y-97901428D01*
X117617419Y-97901428D02*
X117617419Y-98282380D01*
X117617419Y-98282380D02*
X117665038Y-98377618D01*
X117665038Y-98377618D02*
X117712657Y-98425237D01*
X117712657Y-98425237D02*
X117807895Y-98472856D01*
X117807895Y-98472856D02*
X117950752Y-98472856D01*
X117950752Y-98472856D02*
X118045990Y-98425237D01*
X118045990Y-98425237D02*
X118093609Y-98377618D01*
X118093609Y-98377618D02*
X118141228Y-98282380D01*
X118141228Y-98282380D02*
X118141228Y-97901428D01*
X118093609Y-98901428D02*
X118093609Y-99234761D01*
X118617419Y-99377618D02*
X118617419Y-98901428D01*
X118617419Y-98901428D02*
X117617419Y-98901428D01*
X117617419Y-98901428D02*
X117617419Y-99377618D01*
X117617419Y-99663333D02*
X118617419Y-99996666D01*
X118617419Y-99996666D02*
X117617419Y-100329999D01*
X118331704Y-101377619D02*
X118331704Y-101853809D01*
X118617419Y-101282381D02*
X117617419Y-101615714D01*
X117617419Y-101615714D02*
X118617419Y-101949047D01*
X118617419Y-102806190D02*
X118617419Y-102234762D01*
X118617419Y-102520476D02*
X117617419Y-102520476D01*
X117617419Y-102520476D02*
X117760276Y-102425238D01*
X117760276Y-102425238D02*
X117855514Y-102330000D01*
X117855514Y-102330000D02*
X117903133Y-102234762D01*
X112900734Y-63883070D02*
X112900734Y-63083070D01*
X112900734Y-63083070D02*
X112595972Y-63083070D01*
X112595972Y-63083070D02*
X112519782Y-63121165D01*
X112519782Y-63121165D02*
X112481687Y-63159260D01*
X112481687Y-63159260D02*
X112443591Y-63235451D01*
X112443591Y-63235451D02*
X112443591Y-63349736D01*
X112443591Y-63349736D02*
X112481687Y-63425927D01*
X112481687Y-63425927D02*
X112519782Y-63464022D01*
X112519782Y-63464022D02*
X112595972Y-63502117D01*
X112595972Y-63502117D02*
X112900734Y-63502117D01*
X112100734Y-63883070D02*
X112100734Y-63083070D01*
X112100734Y-63083070D02*
X111910258Y-63083070D01*
X111910258Y-63083070D02*
X111795972Y-63121165D01*
X111795972Y-63121165D02*
X111719782Y-63197355D01*
X111719782Y-63197355D02*
X111681687Y-63273546D01*
X111681687Y-63273546D02*
X111643591Y-63425927D01*
X111643591Y-63425927D02*
X111643591Y-63540213D01*
X111643591Y-63540213D02*
X111681687Y-63692594D01*
X111681687Y-63692594D02*
X111719782Y-63768784D01*
X111719782Y-63768784D02*
X111795972Y-63844975D01*
X111795972Y-63844975D02*
X111910258Y-63883070D01*
X111910258Y-63883070D02*
X112100734Y-63883070D01*
X110957877Y-63349736D02*
X110957877Y-63883070D01*
X111148353Y-63044975D02*
X111338830Y-63616403D01*
X111338830Y-63616403D02*
X110843591Y-63616403D01*
X112557877Y-73263704D02*
X112634067Y-73225609D01*
X112634067Y-73225609D02*
X112748353Y-73225609D01*
X112748353Y-73225609D02*
X112862639Y-73263704D01*
X112862639Y-73263704D02*
X112938829Y-73339894D01*
X112938829Y-73339894D02*
X112976924Y-73416085D01*
X112976924Y-73416085D02*
X113015020Y-73568466D01*
X113015020Y-73568466D02*
X113015020Y-73682752D01*
X113015020Y-73682752D02*
X112976924Y-73835133D01*
X112976924Y-73835133D02*
X112938829Y-73911323D01*
X112938829Y-73911323D02*
X112862639Y-73987514D01*
X112862639Y-73987514D02*
X112748353Y-74025609D01*
X112748353Y-74025609D02*
X112672162Y-74025609D01*
X112672162Y-74025609D02*
X112557877Y-73987514D01*
X112557877Y-73987514D02*
X112519781Y-73949418D01*
X112519781Y-73949418D02*
X112519781Y-73682752D01*
X112519781Y-73682752D02*
X112672162Y-73682752D01*
X112176924Y-74025609D02*
X112176924Y-73225609D01*
X112176924Y-73225609D02*
X111719781Y-74025609D01*
X111719781Y-74025609D02*
X111719781Y-73225609D01*
X111338829Y-74025609D02*
X111338829Y-73225609D01*
X111338829Y-73225609D02*
X111148353Y-73225609D01*
X111148353Y-73225609D02*
X111034067Y-73263704D01*
X111034067Y-73263704D02*
X110957877Y-73339894D01*
X110957877Y-73339894D02*
X110919782Y-73416085D01*
X110919782Y-73416085D02*
X110881686Y-73568466D01*
X110881686Y-73568466D02*
X110881686Y-73682752D01*
X110881686Y-73682752D02*
X110919782Y-73835133D01*
X110919782Y-73835133D02*
X110957877Y-73911323D01*
X110957877Y-73911323D02*
X111034067Y-73987514D01*
X111034067Y-73987514D02*
X111148353Y-74025609D01*
X111148353Y-74025609D02*
X111338829Y-74025609D01*
X122679734Y-86764895D02*
X122679734Y-85964895D01*
X122679734Y-85964895D02*
X122374972Y-85964895D01*
X122374972Y-85964895D02*
X122298782Y-86002990D01*
X122298782Y-86002990D02*
X122260687Y-86041085D01*
X122260687Y-86041085D02*
X122222591Y-86117276D01*
X122222591Y-86117276D02*
X122222591Y-86231561D01*
X122222591Y-86231561D02*
X122260687Y-86307752D01*
X122260687Y-86307752D02*
X122298782Y-86345847D01*
X122298782Y-86345847D02*
X122374972Y-86383942D01*
X122374972Y-86383942D02*
X122679734Y-86383942D01*
X121613068Y-86345847D02*
X121498782Y-86383942D01*
X121498782Y-86383942D02*
X121460687Y-86422038D01*
X121460687Y-86422038D02*
X121422591Y-86498228D01*
X121422591Y-86498228D02*
X121422591Y-86612514D01*
X121422591Y-86612514D02*
X121460687Y-86688704D01*
X121460687Y-86688704D02*
X121498782Y-86726800D01*
X121498782Y-86726800D02*
X121574972Y-86764895D01*
X121574972Y-86764895D02*
X121879734Y-86764895D01*
X121879734Y-86764895D02*
X121879734Y-85964895D01*
X121879734Y-85964895D02*
X121613068Y-85964895D01*
X121613068Y-85964895D02*
X121536877Y-86002990D01*
X121536877Y-86002990D02*
X121498782Y-86041085D01*
X121498782Y-86041085D02*
X121460687Y-86117276D01*
X121460687Y-86117276D02*
X121460687Y-86193466D01*
X121460687Y-86193466D02*
X121498782Y-86269657D01*
X121498782Y-86269657D02*
X121536877Y-86307752D01*
X121536877Y-86307752D02*
X121613068Y-86345847D01*
X121613068Y-86345847D02*
X121879734Y-86345847D01*
X120927353Y-85964895D02*
X120851163Y-85964895D01*
X120851163Y-85964895D02*
X120774972Y-86002990D01*
X120774972Y-86002990D02*
X120736877Y-86041085D01*
X120736877Y-86041085D02*
X120698782Y-86117276D01*
X120698782Y-86117276D02*
X120660687Y-86269657D01*
X120660687Y-86269657D02*
X120660687Y-86460133D01*
X120660687Y-86460133D02*
X120698782Y-86612514D01*
X120698782Y-86612514D02*
X120736877Y-86688704D01*
X120736877Y-86688704D02*
X120774972Y-86726800D01*
X120774972Y-86726800D02*
X120851163Y-86764895D01*
X120851163Y-86764895D02*
X120927353Y-86764895D01*
X120927353Y-86764895D02*
X121003544Y-86726800D01*
X121003544Y-86726800D02*
X121041639Y-86688704D01*
X121041639Y-86688704D02*
X121079734Y-86612514D01*
X121079734Y-86612514D02*
X121117830Y-86460133D01*
X121117830Y-86460133D02*
X121117830Y-86269657D01*
X121117830Y-86269657D02*
X121079734Y-86117276D01*
X121079734Y-86117276D02*
X121041639Y-86041085D01*
X121041639Y-86041085D02*
X121003544Y-86002990D01*
X121003544Y-86002990D02*
X120927353Y-85964895D01*
X117371990Y-65445312D02*
X117333895Y-65369122D01*
X117333895Y-65369122D02*
X117333895Y-65254836D01*
X117333895Y-65254836D02*
X117371990Y-65140550D01*
X117371990Y-65140550D02*
X117448180Y-65064360D01*
X117448180Y-65064360D02*
X117524371Y-65026265D01*
X117524371Y-65026265D02*
X117676752Y-64988169D01*
X117676752Y-64988169D02*
X117791038Y-64988169D01*
X117791038Y-64988169D02*
X117943419Y-65026265D01*
X117943419Y-65026265D02*
X118019609Y-65064360D01*
X118019609Y-65064360D02*
X118095800Y-65140550D01*
X118095800Y-65140550D02*
X118133895Y-65254836D01*
X118133895Y-65254836D02*
X118133895Y-65331027D01*
X118133895Y-65331027D02*
X118095800Y-65445312D01*
X118095800Y-65445312D02*
X118057704Y-65483408D01*
X118057704Y-65483408D02*
X117791038Y-65483408D01*
X117791038Y-65483408D02*
X117791038Y-65331027D01*
X118133895Y-65826265D02*
X117333895Y-65826265D01*
X117333895Y-65826265D02*
X118133895Y-66283408D01*
X118133895Y-66283408D02*
X117333895Y-66283408D01*
X118133895Y-66664360D02*
X117333895Y-66664360D01*
X117333895Y-66664360D02*
X117333895Y-66854836D01*
X117333895Y-66854836D02*
X117371990Y-66969122D01*
X117371990Y-66969122D02*
X117448180Y-67045312D01*
X117448180Y-67045312D02*
X117524371Y-67083407D01*
X117524371Y-67083407D02*
X117676752Y-67121503D01*
X117676752Y-67121503D02*
X117791038Y-67121503D01*
X117791038Y-67121503D02*
X117943419Y-67083407D01*
X117943419Y-67083407D02*
X118019609Y-67045312D01*
X118019609Y-67045312D02*
X118095800Y-66969122D01*
X118095800Y-66969122D02*
X118133895Y-66854836D01*
X118133895Y-66854836D02*
X118133895Y-66664360D01*
X112824544Y-76561244D02*
X112824544Y-75761244D01*
X112824544Y-75761244D02*
X112519782Y-75761244D01*
X112519782Y-75761244D02*
X112443592Y-75799339D01*
X112443592Y-75799339D02*
X112405497Y-75837434D01*
X112405497Y-75837434D02*
X112367401Y-75913625D01*
X112367401Y-75913625D02*
X112367401Y-76027910D01*
X112367401Y-76027910D02*
X112405497Y-76104101D01*
X112405497Y-76104101D02*
X112443592Y-76142196D01*
X112443592Y-76142196D02*
X112519782Y-76180291D01*
X112519782Y-76180291D02*
X112824544Y-76180291D01*
X112024544Y-76142196D02*
X111757878Y-76142196D01*
X111643592Y-76561244D02*
X112024544Y-76561244D01*
X112024544Y-76561244D02*
X112024544Y-75761244D01*
X112024544Y-75761244D02*
X111643592Y-75761244D01*
X111148353Y-75761244D02*
X111072163Y-75761244D01*
X111072163Y-75761244D02*
X110995972Y-75799339D01*
X110995972Y-75799339D02*
X110957877Y-75837434D01*
X110957877Y-75837434D02*
X110919782Y-75913625D01*
X110919782Y-75913625D02*
X110881687Y-76066006D01*
X110881687Y-76066006D02*
X110881687Y-76256482D01*
X110881687Y-76256482D02*
X110919782Y-76408863D01*
X110919782Y-76408863D02*
X110957877Y-76485053D01*
X110957877Y-76485053D02*
X110995972Y-76523149D01*
X110995972Y-76523149D02*
X111072163Y-76561244D01*
X111072163Y-76561244D02*
X111148353Y-76561244D01*
X111148353Y-76561244D02*
X111224544Y-76523149D01*
X111224544Y-76523149D02*
X111262639Y-76485053D01*
X111262639Y-76485053D02*
X111300734Y-76408863D01*
X111300734Y-76408863D02*
X111338830Y-76256482D01*
X111338830Y-76256482D02*
X111338830Y-76066006D01*
X111338830Y-76066006D02*
X111300734Y-75913625D01*
X111300734Y-75913625D02*
X111262639Y-75837434D01*
X111262639Y-75837434D02*
X111224544Y-75799339D01*
X111224544Y-75799339D02*
X111148353Y-75761244D01*
X122679734Y-71524895D02*
X122679734Y-70724895D01*
X122679734Y-70724895D02*
X122374972Y-70724895D01*
X122374972Y-70724895D02*
X122298782Y-70762990D01*
X122298782Y-70762990D02*
X122260687Y-70801085D01*
X122260687Y-70801085D02*
X122222591Y-70877276D01*
X122222591Y-70877276D02*
X122222591Y-70991561D01*
X122222591Y-70991561D02*
X122260687Y-71067752D01*
X122260687Y-71067752D02*
X122298782Y-71105847D01*
X122298782Y-71105847D02*
X122374972Y-71143942D01*
X122374972Y-71143942D02*
X122679734Y-71143942D01*
X121422591Y-71448704D02*
X121460687Y-71486800D01*
X121460687Y-71486800D02*
X121574972Y-71524895D01*
X121574972Y-71524895D02*
X121651163Y-71524895D01*
X121651163Y-71524895D02*
X121765449Y-71486800D01*
X121765449Y-71486800D02*
X121841639Y-71410609D01*
X121841639Y-71410609D02*
X121879734Y-71334419D01*
X121879734Y-71334419D02*
X121917830Y-71182038D01*
X121917830Y-71182038D02*
X121917830Y-71067752D01*
X121917830Y-71067752D02*
X121879734Y-70915371D01*
X121879734Y-70915371D02*
X121841639Y-70839180D01*
X121841639Y-70839180D02*
X121765449Y-70762990D01*
X121765449Y-70762990D02*
X121651163Y-70724895D01*
X121651163Y-70724895D02*
X121574972Y-70724895D01*
X121574972Y-70724895D02*
X121460687Y-70762990D01*
X121460687Y-70762990D02*
X121422591Y-70801085D01*
X120927353Y-70724895D02*
X120851163Y-70724895D01*
X120851163Y-70724895D02*
X120774972Y-70762990D01*
X120774972Y-70762990D02*
X120736877Y-70801085D01*
X120736877Y-70801085D02*
X120698782Y-70877276D01*
X120698782Y-70877276D02*
X120660687Y-71029657D01*
X120660687Y-71029657D02*
X120660687Y-71220133D01*
X120660687Y-71220133D02*
X120698782Y-71372514D01*
X120698782Y-71372514D02*
X120736877Y-71448704D01*
X120736877Y-71448704D02*
X120774972Y-71486800D01*
X120774972Y-71486800D02*
X120851163Y-71524895D01*
X120851163Y-71524895D02*
X120927353Y-71524895D01*
X120927353Y-71524895D02*
X121003544Y-71486800D01*
X121003544Y-71486800D02*
X121041639Y-71448704D01*
X121041639Y-71448704D02*
X121079734Y-71372514D01*
X121079734Y-71372514D02*
X121117830Y-71220133D01*
X121117830Y-71220133D02*
X121117830Y-71029657D01*
X121117830Y-71029657D02*
X121079734Y-70877276D01*
X121079734Y-70877276D02*
X121041639Y-70801085D01*
X121041639Y-70801085D02*
X121003544Y-70762990D01*
X121003544Y-70762990D02*
X120927353Y-70724895D01*
X122679734Y-58824895D02*
X122679734Y-58024895D01*
X122679734Y-58024895D02*
X122374972Y-58024895D01*
X122374972Y-58024895D02*
X122298782Y-58062990D01*
X122298782Y-58062990D02*
X122260687Y-58101085D01*
X122260687Y-58101085D02*
X122222591Y-58177276D01*
X122222591Y-58177276D02*
X122222591Y-58291561D01*
X122222591Y-58291561D02*
X122260687Y-58367752D01*
X122260687Y-58367752D02*
X122298782Y-58405847D01*
X122298782Y-58405847D02*
X122374972Y-58443942D01*
X122374972Y-58443942D02*
X122679734Y-58443942D01*
X121422591Y-58748704D02*
X121460687Y-58786800D01*
X121460687Y-58786800D02*
X121574972Y-58824895D01*
X121574972Y-58824895D02*
X121651163Y-58824895D01*
X121651163Y-58824895D02*
X121765449Y-58786800D01*
X121765449Y-58786800D02*
X121841639Y-58710609D01*
X121841639Y-58710609D02*
X121879734Y-58634419D01*
X121879734Y-58634419D02*
X121917830Y-58482038D01*
X121917830Y-58482038D02*
X121917830Y-58367752D01*
X121917830Y-58367752D02*
X121879734Y-58215371D01*
X121879734Y-58215371D02*
X121841639Y-58139180D01*
X121841639Y-58139180D02*
X121765449Y-58062990D01*
X121765449Y-58062990D02*
X121651163Y-58024895D01*
X121651163Y-58024895D02*
X121574972Y-58024895D01*
X121574972Y-58024895D02*
X121460687Y-58062990D01*
X121460687Y-58062990D02*
X121422591Y-58101085D01*
X120698782Y-58024895D02*
X121079734Y-58024895D01*
X121079734Y-58024895D02*
X121117830Y-58405847D01*
X121117830Y-58405847D02*
X121079734Y-58367752D01*
X121079734Y-58367752D02*
X121003544Y-58329657D01*
X121003544Y-58329657D02*
X120813068Y-58329657D01*
X120813068Y-58329657D02*
X120736877Y-58367752D01*
X120736877Y-58367752D02*
X120698782Y-58405847D01*
X120698782Y-58405847D02*
X120660687Y-58482038D01*
X120660687Y-58482038D02*
X120660687Y-58672514D01*
X120660687Y-58672514D02*
X120698782Y-58748704D01*
X120698782Y-58748704D02*
X120736877Y-58786800D01*
X120736877Y-58786800D02*
X120813068Y-58824895D01*
X120813068Y-58824895D02*
X121003544Y-58824895D01*
X121003544Y-58824895D02*
X121079734Y-58786800D01*
X121079734Y-58786800D02*
X121117830Y-58748704D01*
X112786448Y-96846323D02*
X112786448Y-96046323D01*
X112786448Y-96046323D02*
X112481686Y-96046323D01*
X112481686Y-96046323D02*
X112405496Y-96084418D01*
X112405496Y-96084418D02*
X112367401Y-96122513D01*
X112367401Y-96122513D02*
X112329305Y-96198704D01*
X112329305Y-96198704D02*
X112329305Y-96312989D01*
X112329305Y-96312989D02*
X112367401Y-96389180D01*
X112367401Y-96389180D02*
X112405496Y-96427275D01*
X112405496Y-96427275D02*
X112481686Y-96465370D01*
X112481686Y-96465370D02*
X112786448Y-96465370D01*
X111719782Y-96427275D02*
X111986448Y-96427275D01*
X111986448Y-96846323D02*
X111986448Y-96046323D01*
X111986448Y-96046323D02*
X111605496Y-96046323D01*
X111376925Y-96046323D02*
X110881687Y-96046323D01*
X110881687Y-96046323D02*
X111148353Y-96351085D01*
X111148353Y-96351085D02*
X111034068Y-96351085D01*
X111034068Y-96351085D02*
X110957877Y-96389180D01*
X110957877Y-96389180D02*
X110919782Y-96427275D01*
X110919782Y-96427275D02*
X110881687Y-96503466D01*
X110881687Y-96503466D02*
X110881687Y-96693942D01*
X110881687Y-96693942D02*
X110919782Y-96770132D01*
X110919782Y-96770132D02*
X110957877Y-96808228D01*
X110957877Y-96808228D02*
X111034068Y-96846323D01*
X111034068Y-96846323D02*
X111262639Y-96846323D01*
X111262639Y-96846323D02*
X111338830Y-96808228D01*
X111338830Y-96808228D02*
X111376925Y-96770132D01*
X122679734Y-76604895D02*
X122679734Y-75804895D01*
X122679734Y-75804895D02*
X122374972Y-75804895D01*
X122374972Y-75804895D02*
X122298782Y-75842990D01*
X122298782Y-75842990D02*
X122260687Y-75881085D01*
X122260687Y-75881085D02*
X122222591Y-75957276D01*
X122222591Y-75957276D02*
X122222591Y-76071561D01*
X122222591Y-76071561D02*
X122260687Y-76147752D01*
X122260687Y-76147752D02*
X122298782Y-76185847D01*
X122298782Y-76185847D02*
X122374972Y-76223942D01*
X122374972Y-76223942D02*
X122679734Y-76223942D01*
X121613068Y-76185847D02*
X121498782Y-76223942D01*
X121498782Y-76223942D02*
X121460687Y-76262038D01*
X121460687Y-76262038D02*
X121422591Y-76338228D01*
X121422591Y-76338228D02*
X121422591Y-76452514D01*
X121422591Y-76452514D02*
X121460687Y-76528704D01*
X121460687Y-76528704D02*
X121498782Y-76566800D01*
X121498782Y-76566800D02*
X121574972Y-76604895D01*
X121574972Y-76604895D02*
X121879734Y-76604895D01*
X121879734Y-76604895D02*
X121879734Y-75804895D01*
X121879734Y-75804895D02*
X121613068Y-75804895D01*
X121613068Y-75804895D02*
X121536877Y-75842990D01*
X121536877Y-75842990D02*
X121498782Y-75881085D01*
X121498782Y-75881085D02*
X121460687Y-75957276D01*
X121460687Y-75957276D02*
X121460687Y-76033466D01*
X121460687Y-76033466D02*
X121498782Y-76109657D01*
X121498782Y-76109657D02*
X121536877Y-76147752D01*
X121536877Y-76147752D02*
X121613068Y-76185847D01*
X121613068Y-76185847D02*
X121879734Y-76185847D01*
X120736877Y-76071561D02*
X120736877Y-76604895D01*
X120927353Y-75766800D02*
X121117830Y-76338228D01*
X121117830Y-76338228D02*
X120622591Y-76338228D01*
X112900734Y-61347435D02*
X112900734Y-60547435D01*
X112900734Y-60547435D02*
X112595972Y-60547435D01*
X112595972Y-60547435D02*
X112519782Y-60585530D01*
X112519782Y-60585530D02*
X112481687Y-60623625D01*
X112481687Y-60623625D02*
X112443591Y-60699816D01*
X112443591Y-60699816D02*
X112443591Y-60814101D01*
X112443591Y-60814101D02*
X112481687Y-60890292D01*
X112481687Y-60890292D02*
X112519782Y-60928387D01*
X112519782Y-60928387D02*
X112595972Y-60966482D01*
X112595972Y-60966482D02*
X112900734Y-60966482D01*
X112100734Y-61347435D02*
X112100734Y-60547435D01*
X112100734Y-60547435D02*
X111910258Y-60547435D01*
X111910258Y-60547435D02*
X111795972Y-60585530D01*
X111795972Y-60585530D02*
X111719782Y-60661720D01*
X111719782Y-60661720D02*
X111681687Y-60737911D01*
X111681687Y-60737911D02*
X111643591Y-60890292D01*
X111643591Y-60890292D02*
X111643591Y-61004578D01*
X111643591Y-61004578D02*
X111681687Y-61156959D01*
X111681687Y-61156959D02*
X111719782Y-61233149D01*
X111719782Y-61233149D02*
X111795972Y-61309340D01*
X111795972Y-61309340D02*
X111910258Y-61347435D01*
X111910258Y-61347435D02*
X112100734Y-61347435D01*
X111376925Y-60547435D02*
X110881687Y-60547435D01*
X110881687Y-60547435D02*
X111148353Y-60852197D01*
X111148353Y-60852197D02*
X111034068Y-60852197D01*
X111034068Y-60852197D02*
X110957877Y-60890292D01*
X110957877Y-60890292D02*
X110919782Y-60928387D01*
X110919782Y-60928387D02*
X110881687Y-61004578D01*
X110881687Y-61004578D02*
X110881687Y-61195054D01*
X110881687Y-61195054D02*
X110919782Y-61271244D01*
X110919782Y-61271244D02*
X110957877Y-61309340D01*
X110957877Y-61309340D02*
X111034068Y-61347435D01*
X111034068Y-61347435D02*
X111262639Y-61347435D01*
X111262639Y-61347435D02*
X111338830Y-61309340D01*
X111338830Y-61309340D02*
X111376925Y-61271244D01*
X122679734Y-66444895D02*
X122679734Y-65644895D01*
X122679734Y-65644895D02*
X122374972Y-65644895D01*
X122374972Y-65644895D02*
X122298782Y-65682990D01*
X122298782Y-65682990D02*
X122260687Y-65721085D01*
X122260687Y-65721085D02*
X122222591Y-65797276D01*
X122222591Y-65797276D02*
X122222591Y-65911561D01*
X122222591Y-65911561D02*
X122260687Y-65987752D01*
X122260687Y-65987752D02*
X122298782Y-66025847D01*
X122298782Y-66025847D02*
X122374972Y-66063942D01*
X122374972Y-66063942D02*
X122679734Y-66063942D01*
X121422591Y-66368704D02*
X121460687Y-66406800D01*
X121460687Y-66406800D02*
X121574972Y-66444895D01*
X121574972Y-66444895D02*
X121651163Y-66444895D01*
X121651163Y-66444895D02*
X121765449Y-66406800D01*
X121765449Y-66406800D02*
X121841639Y-66330609D01*
X121841639Y-66330609D02*
X121879734Y-66254419D01*
X121879734Y-66254419D02*
X121917830Y-66102038D01*
X121917830Y-66102038D02*
X121917830Y-65987752D01*
X121917830Y-65987752D02*
X121879734Y-65835371D01*
X121879734Y-65835371D02*
X121841639Y-65759180D01*
X121841639Y-65759180D02*
X121765449Y-65682990D01*
X121765449Y-65682990D02*
X121651163Y-65644895D01*
X121651163Y-65644895D02*
X121574972Y-65644895D01*
X121574972Y-65644895D02*
X121460687Y-65682990D01*
X121460687Y-65682990D02*
X121422591Y-65721085D01*
X121117830Y-65721085D02*
X121079734Y-65682990D01*
X121079734Y-65682990D02*
X121003544Y-65644895D01*
X121003544Y-65644895D02*
X120813068Y-65644895D01*
X120813068Y-65644895D02*
X120736877Y-65682990D01*
X120736877Y-65682990D02*
X120698782Y-65721085D01*
X120698782Y-65721085D02*
X120660687Y-65797276D01*
X120660687Y-65797276D02*
X120660687Y-65873466D01*
X120660687Y-65873466D02*
X120698782Y-65987752D01*
X120698782Y-65987752D02*
X121155925Y-66444895D01*
X121155925Y-66444895D02*
X120660687Y-66444895D01*
X112900734Y-66418704D02*
X112900734Y-65618704D01*
X112900734Y-65618704D02*
X112595972Y-65618704D01*
X112595972Y-65618704D02*
X112519782Y-65656799D01*
X112519782Y-65656799D02*
X112481687Y-65694894D01*
X112481687Y-65694894D02*
X112443591Y-65771085D01*
X112443591Y-65771085D02*
X112443591Y-65885370D01*
X112443591Y-65885370D02*
X112481687Y-65961561D01*
X112481687Y-65961561D02*
X112519782Y-65999656D01*
X112519782Y-65999656D02*
X112595972Y-66037751D01*
X112595972Y-66037751D02*
X112900734Y-66037751D01*
X112100734Y-66418704D02*
X112100734Y-65618704D01*
X112100734Y-65618704D02*
X111910258Y-65618704D01*
X111910258Y-65618704D02*
X111795972Y-65656799D01*
X111795972Y-65656799D02*
X111719782Y-65732989D01*
X111719782Y-65732989D02*
X111681687Y-65809180D01*
X111681687Y-65809180D02*
X111643591Y-65961561D01*
X111643591Y-65961561D02*
X111643591Y-66075847D01*
X111643591Y-66075847D02*
X111681687Y-66228228D01*
X111681687Y-66228228D02*
X111719782Y-66304418D01*
X111719782Y-66304418D02*
X111795972Y-66380609D01*
X111795972Y-66380609D02*
X111910258Y-66418704D01*
X111910258Y-66418704D02*
X112100734Y-66418704D01*
X110919782Y-65618704D02*
X111300734Y-65618704D01*
X111300734Y-65618704D02*
X111338830Y-65999656D01*
X111338830Y-65999656D02*
X111300734Y-65961561D01*
X111300734Y-65961561D02*
X111224544Y-65923466D01*
X111224544Y-65923466D02*
X111034068Y-65923466D01*
X111034068Y-65923466D02*
X110957877Y-65961561D01*
X110957877Y-65961561D02*
X110919782Y-65999656D01*
X110919782Y-65999656D02*
X110881687Y-66075847D01*
X110881687Y-66075847D02*
X110881687Y-66266323D01*
X110881687Y-66266323D02*
X110919782Y-66342513D01*
X110919782Y-66342513D02*
X110957877Y-66380609D01*
X110957877Y-66380609D02*
X111034068Y-66418704D01*
X111034068Y-66418704D02*
X111224544Y-66418704D01*
X111224544Y-66418704D02*
X111300734Y-66380609D01*
X111300734Y-66380609D02*
X111338830Y-66342513D01*
X112786448Y-99381958D02*
X112786448Y-98581958D01*
X112786448Y-98581958D02*
X112481686Y-98581958D01*
X112481686Y-98581958D02*
X112405496Y-98620053D01*
X112405496Y-98620053D02*
X112367401Y-98658148D01*
X112367401Y-98658148D02*
X112329305Y-98734339D01*
X112329305Y-98734339D02*
X112329305Y-98848624D01*
X112329305Y-98848624D02*
X112367401Y-98924815D01*
X112367401Y-98924815D02*
X112405496Y-98962910D01*
X112405496Y-98962910D02*
X112481686Y-99001005D01*
X112481686Y-99001005D02*
X112786448Y-99001005D01*
X111719782Y-98962910D02*
X111986448Y-98962910D01*
X111986448Y-99381958D02*
X111986448Y-98581958D01*
X111986448Y-98581958D02*
X111605496Y-98581958D01*
X110957877Y-98848624D02*
X110957877Y-99381958D01*
X111148353Y-98543863D02*
X111338830Y-99115291D01*
X111338830Y-99115291D02*
X110843591Y-99115291D01*
X122679734Y-91844895D02*
X122679734Y-91044895D01*
X122679734Y-91044895D02*
X122374972Y-91044895D01*
X122374972Y-91044895D02*
X122298782Y-91082990D01*
X122298782Y-91082990D02*
X122260687Y-91121085D01*
X122260687Y-91121085D02*
X122222591Y-91197276D01*
X122222591Y-91197276D02*
X122222591Y-91311561D01*
X122222591Y-91311561D02*
X122260687Y-91387752D01*
X122260687Y-91387752D02*
X122298782Y-91425847D01*
X122298782Y-91425847D02*
X122374972Y-91463942D01*
X122374972Y-91463942D02*
X122679734Y-91463942D01*
X121917830Y-91616323D02*
X121536877Y-91616323D01*
X121994020Y-91844895D02*
X121727353Y-91044895D01*
X121727353Y-91044895D02*
X121460687Y-91844895D01*
X120851163Y-91044895D02*
X121003544Y-91044895D01*
X121003544Y-91044895D02*
X121079735Y-91082990D01*
X121079735Y-91082990D02*
X121117830Y-91121085D01*
X121117830Y-91121085D02*
X121194020Y-91235371D01*
X121194020Y-91235371D02*
X121232116Y-91387752D01*
X121232116Y-91387752D02*
X121232116Y-91692514D01*
X121232116Y-91692514D02*
X121194020Y-91768704D01*
X121194020Y-91768704D02*
X121155925Y-91806800D01*
X121155925Y-91806800D02*
X121079735Y-91844895D01*
X121079735Y-91844895D02*
X120927354Y-91844895D01*
X120927354Y-91844895D02*
X120851163Y-91806800D01*
X120851163Y-91806800D02*
X120813068Y-91768704D01*
X120813068Y-91768704D02*
X120774973Y-91692514D01*
X120774973Y-91692514D02*
X120774973Y-91502038D01*
X120774973Y-91502038D02*
X120813068Y-91425847D01*
X120813068Y-91425847D02*
X120851163Y-91387752D01*
X120851163Y-91387752D02*
X120927354Y-91349657D01*
X120927354Y-91349657D02*
X121079735Y-91349657D01*
X121079735Y-91349657D02*
X121155925Y-91387752D01*
X121155925Y-91387752D02*
X121194020Y-91425847D01*
X121194020Y-91425847D02*
X121232116Y-91502038D01*
X112557877Y-85941879D02*
X112634067Y-85903784D01*
X112634067Y-85903784D02*
X112748353Y-85903784D01*
X112748353Y-85903784D02*
X112862639Y-85941879D01*
X112862639Y-85941879D02*
X112938829Y-86018069D01*
X112938829Y-86018069D02*
X112976924Y-86094260D01*
X112976924Y-86094260D02*
X113015020Y-86246641D01*
X113015020Y-86246641D02*
X113015020Y-86360927D01*
X113015020Y-86360927D02*
X112976924Y-86513308D01*
X112976924Y-86513308D02*
X112938829Y-86589498D01*
X112938829Y-86589498D02*
X112862639Y-86665689D01*
X112862639Y-86665689D02*
X112748353Y-86703784D01*
X112748353Y-86703784D02*
X112672162Y-86703784D01*
X112672162Y-86703784D02*
X112557877Y-86665689D01*
X112557877Y-86665689D02*
X112519781Y-86627593D01*
X112519781Y-86627593D02*
X112519781Y-86360927D01*
X112519781Y-86360927D02*
X112672162Y-86360927D01*
X112176924Y-86703784D02*
X112176924Y-85903784D01*
X112176924Y-85903784D02*
X111719781Y-86703784D01*
X111719781Y-86703784D02*
X111719781Y-85903784D01*
X111338829Y-86703784D02*
X111338829Y-85903784D01*
X111338829Y-85903784D02*
X111148353Y-85903784D01*
X111148353Y-85903784D02*
X111034067Y-85941879D01*
X111034067Y-85941879D02*
X110957877Y-86018069D01*
X110957877Y-86018069D02*
X110919782Y-86094260D01*
X110919782Y-86094260D02*
X110881686Y-86246641D01*
X110881686Y-86246641D02*
X110881686Y-86360927D01*
X110881686Y-86360927D02*
X110919782Y-86513308D01*
X110919782Y-86513308D02*
X110957877Y-86589498D01*
X110957877Y-86589498D02*
X111034067Y-86665689D01*
X111034067Y-86665689D02*
X111148353Y-86703784D01*
X111148353Y-86703784D02*
X111338829Y-86703784D01*
X112900734Y-71489974D02*
X112900734Y-70689974D01*
X112900734Y-70689974D02*
X112595972Y-70689974D01*
X112595972Y-70689974D02*
X112519782Y-70728069D01*
X112519782Y-70728069D02*
X112481687Y-70766164D01*
X112481687Y-70766164D02*
X112443591Y-70842355D01*
X112443591Y-70842355D02*
X112443591Y-70956640D01*
X112443591Y-70956640D02*
X112481687Y-71032831D01*
X112481687Y-71032831D02*
X112519782Y-71070926D01*
X112519782Y-71070926D02*
X112595972Y-71109021D01*
X112595972Y-71109021D02*
X112900734Y-71109021D01*
X112100734Y-71489974D02*
X112100734Y-70689974D01*
X112100734Y-70689974D02*
X111910258Y-70689974D01*
X111910258Y-70689974D02*
X111795972Y-70728069D01*
X111795972Y-70728069D02*
X111719782Y-70804259D01*
X111719782Y-70804259D02*
X111681687Y-70880450D01*
X111681687Y-70880450D02*
X111643591Y-71032831D01*
X111643591Y-71032831D02*
X111643591Y-71147117D01*
X111643591Y-71147117D02*
X111681687Y-71299498D01*
X111681687Y-71299498D02*
X111719782Y-71375688D01*
X111719782Y-71375688D02*
X111795972Y-71451879D01*
X111795972Y-71451879D02*
X111910258Y-71489974D01*
X111910258Y-71489974D02*
X112100734Y-71489974D01*
X111376925Y-70689974D02*
X110843591Y-70689974D01*
X110843591Y-70689974D02*
X111186449Y-71489974D01*
X112938829Y-50404895D02*
X112672162Y-51204895D01*
X112672162Y-51204895D02*
X112405496Y-50404895D01*
X111681686Y-51128704D02*
X111719782Y-51166800D01*
X111719782Y-51166800D02*
X111834067Y-51204895D01*
X111834067Y-51204895D02*
X111910258Y-51204895D01*
X111910258Y-51204895D02*
X112024544Y-51166800D01*
X112024544Y-51166800D02*
X112100734Y-51090609D01*
X112100734Y-51090609D02*
X112138829Y-51014419D01*
X112138829Y-51014419D02*
X112176925Y-50862038D01*
X112176925Y-50862038D02*
X112176925Y-50747752D01*
X112176925Y-50747752D02*
X112138829Y-50595371D01*
X112138829Y-50595371D02*
X112100734Y-50519180D01*
X112100734Y-50519180D02*
X112024544Y-50442990D01*
X112024544Y-50442990D02*
X111910258Y-50404895D01*
X111910258Y-50404895D02*
X111834067Y-50404895D01*
X111834067Y-50404895D02*
X111719782Y-50442990D01*
X111719782Y-50442990D02*
X111681686Y-50481085D01*
X110881686Y-51128704D02*
X110919782Y-51166800D01*
X110919782Y-51166800D02*
X111034067Y-51204895D01*
X111034067Y-51204895D02*
X111110258Y-51204895D01*
X111110258Y-51204895D02*
X111224544Y-51166800D01*
X111224544Y-51166800D02*
X111300734Y-51090609D01*
X111300734Y-51090609D02*
X111338829Y-51014419D01*
X111338829Y-51014419D02*
X111376925Y-50862038D01*
X111376925Y-50862038D02*
X111376925Y-50747752D01*
X111376925Y-50747752D02*
X111338829Y-50595371D01*
X111338829Y-50595371D02*
X111300734Y-50519180D01*
X111300734Y-50519180D02*
X111224544Y-50442990D01*
X111224544Y-50442990D02*
X111110258Y-50404895D01*
X111110258Y-50404895D02*
X111034067Y-50404895D01*
X111034067Y-50404895D02*
X110919782Y-50442990D01*
X110919782Y-50442990D02*
X110881686Y-50481085D01*
X112824544Y-81632514D02*
X112824544Y-80832514D01*
X112824544Y-80832514D02*
X112519782Y-80832514D01*
X112519782Y-80832514D02*
X112443592Y-80870609D01*
X112443592Y-80870609D02*
X112405497Y-80908704D01*
X112405497Y-80908704D02*
X112367401Y-80984895D01*
X112367401Y-80984895D02*
X112367401Y-81099180D01*
X112367401Y-81099180D02*
X112405497Y-81175371D01*
X112405497Y-81175371D02*
X112443592Y-81213466D01*
X112443592Y-81213466D02*
X112519782Y-81251561D01*
X112519782Y-81251561D02*
X112824544Y-81251561D01*
X112024544Y-81213466D02*
X111757878Y-81213466D01*
X111643592Y-81632514D02*
X112024544Y-81632514D01*
X112024544Y-81632514D02*
X112024544Y-80832514D01*
X112024544Y-80832514D02*
X111643592Y-80832514D01*
X111338830Y-80908704D02*
X111300734Y-80870609D01*
X111300734Y-80870609D02*
X111224544Y-80832514D01*
X111224544Y-80832514D02*
X111034068Y-80832514D01*
X111034068Y-80832514D02*
X110957877Y-80870609D01*
X110957877Y-80870609D02*
X110919782Y-80908704D01*
X110919782Y-80908704D02*
X110881687Y-80984895D01*
X110881687Y-80984895D02*
X110881687Y-81061085D01*
X110881687Y-81061085D02*
X110919782Y-81175371D01*
X110919782Y-81175371D02*
X111376925Y-81632514D01*
X111376925Y-81632514D02*
X110881687Y-81632514D01*
X110856895Y-105412265D02*
X111504514Y-105412265D01*
X111504514Y-105412265D02*
X111580704Y-105450360D01*
X111580704Y-105450360D02*
X111618800Y-105488455D01*
X111618800Y-105488455D02*
X111656895Y-105564646D01*
X111656895Y-105564646D02*
X111656895Y-105717027D01*
X111656895Y-105717027D02*
X111618800Y-105793217D01*
X111618800Y-105793217D02*
X111580704Y-105831312D01*
X111580704Y-105831312D02*
X111504514Y-105869408D01*
X111504514Y-105869408D02*
X110856895Y-105869408D01*
X111656895Y-106250360D02*
X110856895Y-106250360D01*
X110856895Y-106250360D02*
X110856895Y-106440836D01*
X110856895Y-106440836D02*
X110894990Y-106555122D01*
X110894990Y-106555122D02*
X110971180Y-106631312D01*
X110971180Y-106631312D02*
X111047371Y-106669407D01*
X111047371Y-106669407D02*
X111199752Y-106707503D01*
X111199752Y-106707503D02*
X111314038Y-106707503D01*
X111314038Y-106707503D02*
X111466419Y-106669407D01*
X111466419Y-106669407D02*
X111542609Y-106631312D01*
X111542609Y-106631312D02*
X111618800Y-106555122D01*
X111618800Y-106555122D02*
X111656895Y-106440836D01*
X111656895Y-106440836D02*
X111656895Y-106250360D01*
X111656895Y-107050360D02*
X110856895Y-107050360D01*
X110856895Y-107050360D02*
X110856895Y-107355122D01*
X110856895Y-107355122D02*
X110894990Y-107431312D01*
X110894990Y-107431312D02*
X110933085Y-107469407D01*
X110933085Y-107469407D02*
X111009276Y-107507503D01*
X111009276Y-107507503D02*
X111123561Y-107507503D01*
X111123561Y-107507503D02*
X111199752Y-107469407D01*
X111199752Y-107469407D02*
X111237847Y-107431312D01*
X111237847Y-107431312D02*
X111275942Y-107355122D01*
X111275942Y-107355122D02*
X111275942Y-107050360D01*
X111656895Y-107850360D02*
X110856895Y-107850360D01*
X112900734Y-56276165D02*
X112900734Y-55476165D01*
X112900734Y-55476165D02*
X112595972Y-55476165D01*
X112595972Y-55476165D02*
X112519782Y-55514260D01*
X112519782Y-55514260D02*
X112481687Y-55552355D01*
X112481687Y-55552355D02*
X112443591Y-55628546D01*
X112443591Y-55628546D02*
X112443591Y-55742831D01*
X112443591Y-55742831D02*
X112481687Y-55819022D01*
X112481687Y-55819022D02*
X112519782Y-55857117D01*
X112519782Y-55857117D02*
X112595972Y-55895212D01*
X112595972Y-55895212D02*
X112900734Y-55895212D01*
X112100734Y-56276165D02*
X112100734Y-55476165D01*
X112100734Y-55476165D02*
X111910258Y-55476165D01*
X111910258Y-55476165D02*
X111795972Y-55514260D01*
X111795972Y-55514260D02*
X111719782Y-55590450D01*
X111719782Y-55590450D02*
X111681687Y-55666641D01*
X111681687Y-55666641D02*
X111643591Y-55819022D01*
X111643591Y-55819022D02*
X111643591Y-55933308D01*
X111643591Y-55933308D02*
X111681687Y-56085689D01*
X111681687Y-56085689D02*
X111719782Y-56161879D01*
X111719782Y-56161879D02*
X111795972Y-56238070D01*
X111795972Y-56238070D02*
X111910258Y-56276165D01*
X111910258Y-56276165D02*
X112100734Y-56276165D01*
X110881687Y-56276165D02*
X111338830Y-56276165D01*
X111110258Y-56276165D02*
X111110258Y-55476165D01*
X111110258Y-55476165D02*
X111186449Y-55590450D01*
X111186449Y-55590450D02*
X111262639Y-55666641D01*
X111262639Y-55666641D02*
X111338830Y-55704736D01*
D11*
X114537295Y-66125969D02*
X115337295Y-66316445D01*
X115337295Y-66316445D02*
X114765866Y-66468826D01*
X114765866Y-66468826D02*
X115337295Y-66621207D01*
X115337295Y-66621207D02*
X114537295Y-66811684D01*
X115337295Y-67459303D02*
X114918247Y-67459303D01*
X114918247Y-67459303D02*
X114842057Y-67421208D01*
X114842057Y-67421208D02*
X114803961Y-67345017D01*
X114803961Y-67345017D02*
X114803961Y-67192636D01*
X114803961Y-67192636D02*
X114842057Y-67116446D01*
X115299200Y-67459303D02*
X115337295Y-67383112D01*
X115337295Y-67383112D02*
X115337295Y-67192636D01*
X115337295Y-67192636D02*
X115299200Y-67116446D01*
X115299200Y-67116446D02*
X115223009Y-67078350D01*
X115223009Y-67078350D02*
X115146819Y-67078350D01*
X115146819Y-67078350D02*
X115070628Y-67116446D01*
X115070628Y-67116446D02*
X115032533Y-67192636D01*
X115032533Y-67192636D02*
X115032533Y-67383112D01*
X115032533Y-67383112D02*
X114994438Y-67459303D01*
X114803961Y-67764065D02*
X115337295Y-67954541D01*
X114803961Y-68145018D02*
X115337295Y-67954541D01*
X115337295Y-67954541D02*
X115527771Y-67878351D01*
X115527771Y-67878351D02*
X115565866Y-67840256D01*
X115565866Y-67840256D02*
X115603961Y-67764065D01*
X114537295Y-68373589D02*
X115337295Y-68564065D01*
X115337295Y-68564065D02*
X114765866Y-68716446D01*
X114765866Y-68716446D02*
X115337295Y-68868827D01*
X115337295Y-68868827D02*
X114537295Y-69059304D01*
X115337295Y-69706923D02*
X114918247Y-69706923D01*
X114918247Y-69706923D02*
X114842057Y-69668828D01*
X114842057Y-69668828D02*
X114803961Y-69592637D01*
X114803961Y-69592637D02*
X114803961Y-69440256D01*
X114803961Y-69440256D02*
X114842057Y-69364066D01*
X115299200Y-69706923D02*
X115337295Y-69630732D01*
X115337295Y-69630732D02*
X115337295Y-69440256D01*
X115337295Y-69440256D02*
X115299200Y-69364066D01*
X115299200Y-69364066D02*
X115223009Y-69325970D01*
X115223009Y-69325970D02*
X115146819Y-69325970D01*
X115146819Y-69325970D02*
X115070628Y-69364066D01*
X115070628Y-69364066D02*
X115032533Y-69440256D01*
X115032533Y-69440256D02*
X115032533Y-69630732D01*
X115032533Y-69630732D02*
X114994438Y-69706923D01*
X114803961Y-70011685D02*
X115337295Y-70202161D01*
X114803961Y-70392638D02*
X115337295Y-70202161D01*
X115337295Y-70202161D02*
X115527771Y-70125971D01*
X115527771Y-70125971D02*
X115565866Y-70087876D01*
X115565866Y-70087876D02*
X115603961Y-70011685D01*
X114537295Y-70621209D02*
X115337295Y-70811685D01*
X115337295Y-70811685D02*
X114765866Y-70964066D01*
X114765866Y-70964066D02*
X115337295Y-71116447D01*
X115337295Y-71116447D02*
X114537295Y-71306924D01*
X115337295Y-71954543D02*
X114918247Y-71954543D01*
X114918247Y-71954543D02*
X114842057Y-71916448D01*
X114842057Y-71916448D02*
X114803961Y-71840257D01*
X114803961Y-71840257D02*
X114803961Y-71687876D01*
X114803961Y-71687876D02*
X114842057Y-71611686D01*
X115299200Y-71954543D02*
X115337295Y-71878352D01*
X115337295Y-71878352D02*
X115337295Y-71687876D01*
X115337295Y-71687876D02*
X115299200Y-71611686D01*
X115299200Y-71611686D02*
X115223009Y-71573590D01*
X115223009Y-71573590D02*
X115146819Y-71573590D01*
X115146819Y-71573590D02*
X115070628Y-71611686D01*
X115070628Y-71611686D02*
X115032533Y-71687876D01*
X115032533Y-71687876D02*
X115032533Y-71878352D01*
X115032533Y-71878352D02*
X114994438Y-71954543D01*
X114803961Y-72259305D02*
X115337295Y-72449781D01*
X114803961Y-72640258D02*
X115337295Y-72449781D01*
X115337295Y-72449781D02*
X115527771Y-72373591D01*
X115527771Y-72373591D02*
X115565866Y-72335496D01*
X115565866Y-72335496D02*
X115603961Y-72259305D01*
D10*
X122260687Y-108862990D02*
X122336877Y-108824895D01*
X122336877Y-108824895D02*
X122451163Y-108824895D01*
X122451163Y-108824895D02*
X122565449Y-108862990D01*
X122565449Y-108862990D02*
X122641639Y-108939180D01*
X122641639Y-108939180D02*
X122679734Y-109015371D01*
X122679734Y-109015371D02*
X122717830Y-109167752D01*
X122717830Y-109167752D02*
X122717830Y-109282038D01*
X122717830Y-109282038D02*
X122679734Y-109434419D01*
X122679734Y-109434419D02*
X122641639Y-109510609D01*
X122641639Y-109510609D02*
X122565449Y-109586800D01*
X122565449Y-109586800D02*
X122451163Y-109624895D01*
X122451163Y-109624895D02*
X122374972Y-109624895D01*
X122374972Y-109624895D02*
X122260687Y-109586800D01*
X122260687Y-109586800D02*
X122222591Y-109548704D01*
X122222591Y-109548704D02*
X122222591Y-109282038D01*
X122222591Y-109282038D02*
X122374972Y-109282038D01*
X122679734Y-81684895D02*
X122679734Y-80884895D01*
X122679734Y-80884895D02*
X122374972Y-80884895D01*
X122374972Y-80884895D02*
X122298782Y-80922990D01*
X122298782Y-80922990D02*
X122260687Y-80961085D01*
X122260687Y-80961085D02*
X122222591Y-81037276D01*
X122222591Y-81037276D02*
X122222591Y-81151561D01*
X122222591Y-81151561D02*
X122260687Y-81227752D01*
X122260687Y-81227752D02*
X122298782Y-81265847D01*
X122298782Y-81265847D02*
X122374972Y-81303942D01*
X122374972Y-81303942D02*
X122679734Y-81303942D01*
X121613068Y-81265847D02*
X121498782Y-81303942D01*
X121498782Y-81303942D02*
X121460687Y-81342038D01*
X121460687Y-81342038D02*
X121422591Y-81418228D01*
X121422591Y-81418228D02*
X121422591Y-81532514D01*
X121422591Y-81532514D02*
X121460687Y-81608704D01*
X121460687Y-81608704D02*
X121498782Y-81646800D01*
X121498782Y-81646800D02*
X121574972Y-81684895D01*
X121574972Y-81684895D02*
X121879734Y-81684895D01*
X121879734Y-81684895D02*
X121879734Y-80884895D01*
X121879734Y-80884895D02*
X121613068Y-80884895D01*
X121613068Y-80884895D02*
X121536877Y-80922990D01*
X121536877Y-80922990D02*
X121498782Y-80961085D01*
X121498782Y-80961085D02*
X121460687Y-81037276D01*
X121460687Y-81037276D02*
X121460687Y-81113466D01*
X121460687Y-81113466D02*
X121498782Y-81189657D01*
X121498782Y-81189657D02*
X121536877Y-81227752D01*
X121536877Y-81227752D02*
X121613068Y-81265847D01*
X121613068Y-81265847D02*
X121879734Y-81265847D01*
X121117830Y-80961085D02*
X121079734Y-80922990D01*
X121079734Y-80922990D02*
X121003544Y-80884895D01*
X121003544Y-80884895D02*
X120813068Y-80884895D01*
X120813068Y-80884895D02*
X120736877Y-80922990D01*
X120736877Y-80922990D02*
X120698782Y-80961085D01*
X120698782Y-80961085D02*
X120660687Y-81037276D01*
X120660687Y-81037276D02*
X120660687Y-81113466D01*
X120660687Y-81113466D02*
X120698782Y-81227752D01*
X120698782Y-81227752D02*
X121155925Y-81684895D01*
X121155925Y-81684895D02*
X120660687Y-81684895D01*
X122679734Y-79144895D02*
X122679734Y-78344895D01*
X122679734Y-78344895D02*
X122374972Y-78344895D01*
X122374972Y-78344895D02*
X122298782Y-78382990D01*
X122298782Y-78382990D02*
X122260687Y-78421085D01*
X122260687Y-78421085D02*
X122222591Y-78497276D01*
X122222591Y-78497276D02*
X122222591Y-78611561D01*
X122222591Y-78611561D02*
X122260687Y-78687752D01*
X122260687Y-78687752D02*
X122298782Y-78725847D01*
X122298782Y-78725847D02*
X122374972Y-78763942D01*
X122374972Y-78763942D02*
X122679734Y-78763942D01*
X121613068Y-78725847D02*
X121498782Y-78763942D01*
X121498782Y-78763942D02*
X121460687Y-78802038D01*
X121460687Y-78802038D02*
X121422591Y-78878228D01*
X121422591Y-78878228D02*
X121422591Y-78992514D01*
X121422591Y-78992514D02*
X121460687Y-79068704D01*
X121460687Y-79068704D02*
X121498782Y-79106800D01*
X121498782Y-79106800D02*
X121574972Y-79144895D01*
X121574972Y-79144895D02*
X121879734Y-79144895D01*
X121879734Y-79144895D02*
X121879734Y-78344895D01*
X121879734Y-78344895D02*
X121613068Y-78344895D01*
X121613068Y-78344895D02*
X121536877Y-78382990D01*
X121536877Y-78382990D02*
X121498782Y-78421085D01*
X121498782Y-78421085D02*
X121460687Y-78497276D01*
X121460687Y-78497276D02*
X121460687Y-78573466D01*
X121460687Y-78573466D02*
X121498782Y-78649657D01*
X121498782Y-78649657D02*
X121536877Y-78687752D01*
X121536877Y-78687752D02*
X121613068Y-78725847D01*
X121613068Y-78725847D02*
X121879734Y-78725847D01*
X121155925Y-78344895D02*
X120660687Y-78344895D01*
X120660687Y-78344895D02*
X120927353Y-78649657D01*
X120927353Y-78649657D02*
X120813068Y-78649657D01*
X120813068Y-78649657D02*
X120736877Y-78687752D01*
X120736877Y-78687752D02*
X120698782Y-78725847D01*
X120698782Y-78725847D02*
X120660687Y-78802038D01*
X120660687Y-78802038D02*
X120660687Y-78992514D01*
X120660687Y-78992514D02*
X120698782Y-79068704D01*
X120698782Y-79068704D02*
X120736877Y-79106800D01*
X120736877Y-79106800D02*
X120813068Y-79144895D01*
X120813068Y-79144895D02*
X121041639Y-79144895D01*
X121041639Y-79144895D02*
X121117830Y-79106800D01*
X121117830Y-79106800D02*
X121155925Y-79068704D01*
X122679734Y-96924895D02*
X122679734Y-96124895D01*
X122679734Y-96124895D02*
X122374972Y-96124895D01*
X122374972Y-96124895D02*
X122298782Y-96162990D01*
X122298782Y-96162990D02*
X122260687Y-96201085D01*
X122260687Y-96201085D02*
X122222591Y-96277276D01*
X122222591Y-96277276D02*
X122222591Y-96391561D01*
X122222591Y-96391561D02*
X122260687Y-96467752D01*
X122260687Y-96467752D02*
X122298782Y-96505847D01*
X122298782Y-96505847D02*
X122374972Y-96543942D01*
X122374972Y-96543942D02*
X122679734Y-96543942D01*
X121917830Y-96696323D02*
X121536877Y-96696323D01*
X121994020Y-96924895D02*
X121727353Y-96124895D01*
X121727353Y-96124895D02*
X121460687Y-96924895D01*
X120851163Y-96391561D02*
X120851163Y-96924895D01*
X121041639Y-96086800D02*
X121232116Y-96658228D01*
X121232116Y-96658228D02*
X120736877Y-96658228D01*
X122679734Y-63904895D02*
X122679734Y-63104895D01*
X122679734Y-63104895D02*
X122374972Y-63104895D01*
X122374972Y-63104895D02*
X122298782Y-63142990D01*
X122298782Y-63142990D02*
X122260687Y-63181085D01*
X122260687Y-63181085D02*
X122222591Y-63257276D01*
X122222591Y-63257276D02*
X122222591Y-63371561D01*
X122222591Y-63371561D02*
X122260687Y-63447752D01*
X122260687Y-63447752D02*
X122298782Y-63485847D01*
X122298782Y-63485847D02*
X122374972Y-63523942D01*
X122374972Y-63523942D02*
X122679734Y-63523942D01*
X121422591Y-63828704D02*
X121460687Y-63866800D01*
X121460687Y-63866800D02*
X121574972Y-63904895D01*
X121574972Y-63904895D02*
X121651163Y-63904895D01*
X121651163Y-63904895D02*
X121765449Y-63866800D01*
X121765449Y-63866800D02*
X121841639Y-63790609D01*
X121841639Y-63790609D02*
X121879734Y-63714419D01*
X121879734Y-63714419D02*
X121917830Y-63562038D01*
X121917830Y-63562038D02*
X121917830Y-63447752D01*
X121917830Y-63447752D02*
X121879734Y-63295371D01*
X121879734Y-63295371D02*
X121841639Y-63219180D01*
X121841639Y-63219180D02*
X121765449Y-63142990D01*
X121765449Y-63142990D02*
X121651163Y-63104895D01*
X121651163Y-63104895D02*
X121574972Y-63104895D01*
X121574972Y-63104895D02*
X121460687Y-63142990D01*
X121460687Y-63142990D02*
X121422591Y-63181085D01*
X121155925Y-63104895D02*
X120660687Y-63104895D01*
X120660687Y-63104895D02*
X120927353Y-63409657D01*
X120927353Y-63409657D02*
X120813068Y-63409657D01*
X120813068Y-63409657D02*
X120736877Y-63447752D01*
X120736877Y-63447752D02*
X120698782Y-63485847D01*
X120698782Y-63485847D02*
X120660687Y-63562038D01*
X120660687Y-63562038D02*
X120660687Y-63752514D01*
X120660687Y-63752514D02*
X120698782Y-63828704D01*
X120698782Y-63828704D02*
X120736877Y-63866800D01*
X120736877Y-63866800D02*
X120813068Y-63904895D01*
X120813068Y-63904895D02*
X121041639Y-63904895D01*
X121041639Y-63904895D02*
X121117830Y-63866800D01*
X121117830Y-63866800D02*
X121155925Y-63828704D01*
X117333895Y-53862979D02*
X118133895Y-54129646D01*
X118133895Y-54129646D02*
X117333895Y-54396312D01*
X118057704Y-55120122D02*
X118095800Y-55082026D01*
X118095800Y-55082026D02*
X118133895Y-54967741D01*
X118133895Y-54967741D02*
X118133895Y-54891550D01*
X118133895Y-54891550D02*
X118095800Y-54777264D01*
X118095800Y-54777264D02*
X118019609Y-54701074D01*
X118019609Y-54701074D02*
X117943419Y-54662979D01*
X117943419Y-54662979D02*
X117791038Y-54624883D01*
X117791038Y-54624883D02*
X117676752Y-54624883D01*
X117676752Y-54624883D02*
X117524371Y-54662979D01*
X117524371Y-54662979D02*
X117448180Y-54701074D01*
X117448180Y-54701074D02*
X117371990Y-54777264D01*
X117371990Y-54777264D02*
X117333895Y-54891550D01*
X117333895Y-54891550D02*
X117333895Y-54967741D01*
X117333895Y-54967741D02*
X117371990Y-55082026D01*
X117371990Y-55082026D02*
X117410085Y-55120122D01*
X118057704Y-55920122D02*
X118095800Y-55882026D01*
X118095800Y-55882026D02*
X118133895Y-55767741D01*
X118133895Y-55767741D02*
X118133895Y-55691550D01*
X118133895Y-55691550D02*
X118095800Y-55577264D01*
X118095800Y-55577264D02*
X118019609Y-55501074D01*
X118019609Y-55501074D02*
X117943419Y-55462979D01*
X117943419Y-55462979D02*
X117791038Y-55424883D01*
X117791038Y-55424883D02*
X117676752Y-55424883D01*
X117676752Y-55424883D02*
X117524371Y-55462979D01*
X117524371Y-55462979D02*
X117448180Y-55501074D01*
X117448180Y-55501074D02*
X117371990Y-55577264D01*
X117371990Y-55577264D02*
X117333895Y-55691550D01*
X117333895Y-55691550D02*
X117333895Y-55767741D01*
X117333895Y-55767741D02*
X117371990Y-55882026D01*
X117371990Y-55882026D02*
X117410085Y-55920122D01*
X112900734Y-58811800D02*
X112900734Y-58011800D01*
X112900734Y-58011800D02*
X112595972Y-58011800D01*
X112595972Y-58011800D02*
X112519782Y-58049895D01*
X112519782Y-58049895D02*
X112481687Y-58087990D01*
X112481687Y-58087990D02*
X112443591Y-58164181D01*
X112443591Y-58164181D02*
X112443591Y-58278466D01*
X112443591Y-58278466D02*
X112481687Y-58354657D01*
X112481687Y-58354657D02*
X112519782Y-58392752D01*
X112519782Y-58392752D02*
X112595972Y-58430847D01*
X112595972Y-58430847D02*
X112900734Y-58430847D01*
X112100734Y-58811800D02*
X112100734Y-58011800D01*
X112100734Y-58011800D02*
X111910258Y-58011800D01*
X111910258Y-58011800D02*
X111795972Y-58049895D01*
X111795972Y-58049895D02*
X111719782Y-58126085D01*
X111719782Y-58126085D02*
X111681687Y-58202276D01*
X111681687Y-58202276D02*
X111643591Y-58354657D01*
X111643591Y-58354657D02*
X111643591Y-58468943D01*
X111643591Y-58468943D02*
X111681687Y-58621324D01*
X111681687Y-58621324D02*
X111719782Y-58697514D01*
X111719782Y-58697514D02*
X111795972Y-58773705D01*
X111795972Y-58773705D02*
X111910258Y-58811800D01*
X111910258Y-58811800D02*
X112100734Y-58811800D01*
X111338830Y-58087990D02*
X111300734Y-58049895D01*
X111300734Y-58049895D02*
X111224544Y-58011800D01*
X111224544Y-58011800D02*
X111034068Y-58011800D01*
X111034068Y-58011800D02*
X110957877Y-58049895D01*
X110957877Y-58049895D02*
X110919782Y-58087990D01*
X110919782Y-58087990D02*
X110881687Y-58164181D01*
X110881687Y-58164181D02*
X110881687Y-58240371D01*
X110881687Y-58240371D02*
X110919782Y-58354657D01*
X110919782Y-58354657D02*
X111376925Y-58811800D01*
X111376925Y-58811800D02*
X110881687Y-58811800D01*
X122260687Y-104544895D02*
X122717830Y-104544895D01*
X122489258Y-104544895D02*
X122489258Y-103744895D01*
X122489258Y-103744895D02*
X122565449Y-103859180D01*
X122565449Y-103859180D02*
X122641639Y-103935371D01*
X122641639Y-103935371D02*
X122717830Y-103973466D01*
X112824544Y-84168149D02*
X112824544Y-83368149D01*
X112824544Y-83368149D02*
X112519782Y-83368149D01*
X112519782Y-83368149D02*
X112443592Y-83406244D01*
X112443592Y-83406244D02*
X112405497Y-83444339D01*
X112405497Y-83444339D02*
X112367401Y-83520530D01*
X112367401Y-83520530D02*
X112367401Y-83634815D01*
X112367401Y-83634815D02*
X112405497Y-83711006D01*
X112405497Y-83711006D02*
X112443592Y-83749101D01*
X112443592Y-83749101D02*
X112519782Y-83787196D01*
X112519782Y-83787196D02*
X112824544Y-83787196D01*
X112024544Y-83749101D02*
X111757878Y-83749101D01*
X111643592Y-84168149D02*
X112024544Y-84168149D01*
X112024544Y-84168149D02*
X112024544Y-83368149D01*
X112024544Y-83368149D02*
X111643592Y-83368149D01*
X111376925Y-83368149D02*
X110881687Y-83368149D01*
X110881687Y-83368149D02*
X111148353Y-83672911D01*
X111148353Y-83672911D02*
X111034068Y-83672911D01*
X111034068Y-83672911D02*
X110957877Y-83711006D01*
X110957877Y-83711006D02*
X110919782Y-83749101D01*
X110919782Y-83749101D02*
X110881687Y-83825292D01*
X110881687Y-83825292D02*
X110881687Y-84015768D01*
X110881687Y-84015768D02*
X110919782Y-84091958D01*
X110919782Y-84091958D02*
X110957877Y-84130054D01*
X110957877Y-84130054D02*
X111034068Y-84168149D01*
X111034068Y-84168149D02*
X111262639Y-84168149D01*
X111262639Y-84168149D02*
X111338830Y-84130054D01*
X111338830Y-84130054D02*
X111376925Y-84091958D01*
X122679734Y-94384895D02*
X122679734Y-93584895D01*
X122679734Y-93584895D02*
X122374972Y-93584895D01*
X122374972Y-93584895D02*
X122298782Y-93622990D01*
X122298782Y-93622990D02*
X122260687Y-93661085D01*
X122260687Y-93661085D02*
X122222591Y-93737276D01*
X122222591Y-93737276D02*
X122222591Y-93851561D01*
X122222591Y-93851561D02*
X122260687Y-93927752D01*
X122260687Y-93927752D02*
X122298782Y-93965847D01*
X122298782Y-93965847D02*
X122374972Y-94003942D01*
X122374972Y-94003942D02*
X122679734Y-94003942D01*
X121917830Y-94156323D02*
X121536877Y-94156323D01*
X121994020Y-94384895D02*
X121727353Y-93584895D01*
X121727353Y-93584895D02*
X121460687Y-94384895D01*
X120813068Y-93584895D02*
X121194020Y-93584895D01*
X121194020Y-93584895D02*
X121232116Y-93965847D01*
X121232116Y-93965847D02*
X121194020Y-93927752D01*
X121194020Y-93927752D02*
X121117830Y-93889657D01*
X121117830Y-93889657D02*
X120927354Y-93889657D01*
X120927354Y-93889657D02*
X120851163Y-93927752D01*
X120851163Y-93927752D02*
X120813068Y-93965847D01*
X120813068Y-93965847D02*
X120774973Y-94042038D01*
X120774973Y-94042038D02*
X120774973Y-94232514D01*
X120774973Y-94232514D02*
X120813068Y-94308704D01*
X120813068Y-94308704D02*
X120851163Y-94346800D01*
X120851163Y-94346800D02*
X120927354Y-94384895D01*
X120927354Y-94384895D02*
X121117830Y-94384895D01*
X121117830Y-94384895D02*
X121194020Y-94346800D01*
X121194020Y-94346800D02*
X121232116Y-94308704D01*
X110856895Y-108218979D02*
X111656895Y-108485646D01*
X111656895Y-108485646D02*
X110856895Y-108752312D01*
X111580704Y-109476122D02*
X111618800Y-109438026D01*
X111618800Y-109438026D02*
X111656895Y-109323741D01*
X111656895Y-109323741D02*
X111656895Y-109247550D01*
X111656895Y-109247550D02*
X111618800Y-109133264D01*
X111618800Y-109133264D02*
X111542609Y-109057074D01*
X111542609Y-109057074D02*
X111466419Y-109018979D01*
X111466419Y-109018979D02*
X111314038Y-108980883D01*
X111314038Y-108980883D02*
X111199752Y-108980883D01*
X111199752Y-108980883D02*
X111047371Y-109018979D01*
X111047371Y-109018979D02*
X110971180Y-109057074D01*
X110971180Y-109057074D02*
X110894990Y-109133264D01*
X110894990Y-109133264D02*
X110856895Y-109247550D01*
X110856895Y-109247550D02*
X110856895Y-109323741D01*
X110856895Y-109323741D02*
X110894990Y-109438026D01*
X110894990Y-109438026D02*
X110933085Y-109476122D01*
X111580704Y-110276122D02*
X111618800Y-110238026D01*
X111618800Y-110238026D02*
X111656895Y-110123741D01*
X111656895Y-110123741D02*
X111656895Y-110047550D01*
X111656895Y-110047550D02*
X111618800Y-109933264D01*
X111618800Y-109933264D02*
X111542609Y-109857074D01*
X111542609Y-109857074D02*
X111466419Y-109818979D01*
X111466419Y-109818979D02*
X111314038Y-109780883D01*
X111314038Y-109780883D02*
X111199752Y-109780883D01*
X111199752Y-109780883D02*
X111047371Y-109818979D01*
X111047371Y-109818979D02*
X110971180Y-109857074D01*
X110971180Y-109857074D02*
X110894990Y-109933264D01*
X110894990Y-109933264D02*
X110856895Y-110047550D01*
X110856895Y-110047550D02*
X110856895Y-110123741D01*
X110856895Y-110123741D02*
X110894990Y-110238026D01*
X110894990Y-110238026D02*
X110933085Y-110276122D01*
X112786448Y-101917593D02*
X112786448Y-101117593D01*
X112786448Y-101117593D02*
X112481686Y-101117593D01*
X112481686Y-101117593D02*
X112405496Y-101155688D01*
X112405496Y-101155688D02*
X112367401Y-101193783D01*
X112367401Y-101193783D02*
X112329305Y-101269974D01*
X112329305Y-101269974D02*
X112329305Y-101384259D01*
X112329305Y-101384259D02*
X112367401Y-101460450D01*
X112367401Y-101460450D02*
X112405496Y-101498545D01*
X112405496Y-101498545D02*
X112481686Y-101536640D01*
X112481686Y-101536640D02*
X112786448Y-101536640D01*
X111719782Y-101498545D02*
X111986448Y-101498545D01*
X111986448Y-101917593D02*
X111986448Y-101117593D01*
X111986448Y-101117593D02*
X111605496Y-101117593D01*
X110919782Y-101117593D02*
X111300734Y-101117593D01*
X111300734Y-101117593D02*
X111338830Y-101498545D01*
X111338830Y-101498545D02*
X111300734Y-101460450D01*
X111300734Y-101460450D02*
X111224544Y-101422355D01*
X111224544Y-101422355D02*
X111034068Y-101422355D01*
X111034068Y-101422355D02*
X110957877Y-101460450D01*
X110957877Y-101460450D02*
X110919782Y-101498545D01*
X110919782Y-101498545D02*
X110881687Y-101574736D01*
X110881687Y-101574736D02*
X110881687Y-101765212D01*
X110881687Y-101765212D02*
X110919782Y-101841402D01*
X110919782Y-101841402D02*
X110957877Y-101879498D01*
X110957877Y-101879498D02*
X111034068Y-101917593D01*
X111034068Y-101917593D02*
X111224544Y-101917593D01*
X111224544Y-101917593D02*
X111300734Y-101879498D01*
X111300734Y-101879498D02*
X111338830Y-101841402D01*
X122679734Y-99464895D02*
X122679734Y-98664895D01*
X122679734Y-98664895D02*
X122374972Y-98664895D01*
X122374972Y-98664895D02*
X122298782Y-98702990D01*
X122298782Y-98702990D02*
X122260687Y-98741085D01*
X122260687Y-98741085D02*
X122222591Y-98817276D01*
X122222591Y-98817276D02*
X122222591Y-98931561D01*
X122222591Y-98931561D02*
X122260687Y-99007752D01*
X122260687Y-99007752D02*
X122298782Y-99045847D01*
X122298782Y-99045847D02*
X122374972Y-99083942D01*
X122374972Y-99083942D02*
X122679734Y-99083942D01*
X121917830Y-99236323D02*
X121536877Y-99236323D01*
X121994020Y-99464895D02*
X121727353Y-98664895D01*
X121727353Y-98664895D02*
X121460687Y-99464895D01*
X121270211Y-98664895D02*
X120774973Y-98664895D01*
X120774973Y-98664895D02*
X121041639Y-98969657D01*
X121041639Y-98969657D02*
X120927354Y-98969657D01*
X120927354Y-98969657D02*
X120851163Y-99007752D01*
X120851163Y-99007752D02*
X120813068Y-99045847D01*
X120813068Y-99045847D02*
X120774973Y-99122038D01*
X120774973Y-99122038D02*
X120774973Y-99312514D01*
X120774973Y-99312514D02*
X120813068Y-99388704D01*
X120813068Y-99388704D02*
X120851163Y-99426800D01*
X120851163Y-99426800D02*
X120927354Y-99464895D01*
X120927354Y-99464895D02*
X121155925Y-99464895D01*
X121155925Y-99464895D02*
X121232116Y-99426800D01*
X121232116Y-99426800D02*
X121270211Y-99388704D01*
X112824544Y-79096879D02*
X112824544Y-78296879D01*
X112824544Y-78296879D02*
X112519782Y-78296879D01*
X112519782Y-78296879D02*
X112443592Y-78334974D01*
X112443592Y-78334974D02*
X112405497Y-78373069D01*
X112405497Y-78373069D02*
X112367401Y-78449260D01*
X112367401Y-78449260D02*
X112367401Y-78563545D01*
X112367401Y-78563545D02*
X112405497Y-78639736D01*
X112405497Y-78639736D02*
X112443592Y-78677831D01*
X112443592Y-78677831D02*
X112519782Y-78715926D01*
X112519782Y-78715926D02*
X112824544Y-78715926D01*
X112024544Y-78677831D02*
X111757878Y-78677831D01*
X111643592Y-79096879D02*
X112024544Y-79096879D01*
X112024544Y-79096879D02*
X112024544Y-78296879D01*
X112024544Y-78296879D02*
X111643592Y-78296879D01*
X110881687Y-79096879D02*
X111338830Y-79096879D01*
X111110258Y-79096879D02*
X111110258Y-78296879D01*
X111110258Y-78296879D02*
X111186449Y-78411164D01*
X111186449Y-78411164D02*
X111262639Y-78487355D01*
X111262639Y-78487355D02*
X111338830Y-78525450D01*
X122679734Y-84224895D02*
X122679734Y-83424895D01*
X122679734Y-83424895D02*
X122374972Y-83424895D01*
X122374972Y-83424895D02*
X122298782Y-83462990D01*
X122298782Y-83462990D02*
X122260687Y-83501085D01*
X122260687Y-83501085D02*
X122222591Y-83577276D01*
X122222591Y-83577276D02*
X122222591Y-83691561D01*
X122222591Y-83691561D02*
X122260687Y-83767752D01*
X122260687Y-83767752D02*
X122298782Y-83805847D01*
X122298782Y-83805847D02*
X122374972Y-83843942D01*
X122374972Y-83843942D02*
X122679734Y-83843942D01*
X121613068Y-83805847D02*
X121498782Y-83843942D01*
X121498782Y-83843942D02*
X121460687Y-83882038D01*
X121460687Y-83882038D02*
X121422591Y-83958228D01*
X121422591Y-83958228D02*
X121422591Y-84072514D01*
X121422591Y-84072514D02*
X121460687Y-84148704D01*
X121460687Y-84148704D02*
X121498782Y-84186800D01*
X121498782Y-84186800D02*
X121574972Y-84224895D01*
X121574972Y-84224895D02*
X121879734Y-84224895D01*
X121879734Y-84224895D02*
X121879734Y-83424895D01*
X121879734Y-83424895D02*
X121613068Y-83424895D01*
X121613068Y-83424895D02*
X121536877Y-83462990D01*
X121536877Y-83462990D02*
X121498782Y-83501085D01*
X121498782Y-83501085D02*
X121460687Y-83577276D01*
X121460687Y-83577276D02*
X121460687Y-83653466D01*
X121460687Y-83653466D02*
X121498782Y-83729657D01*
X121498782Y-83729657D02*
X121536877Y-83767752D01*
X121536877Y-83767752D02*
X121613068Y-83805847D01*
X121613068Y-83805847D02*
X121879734Y-83805847D01*
X120660687Y-84224895D02*
X121117830Y-84224895D01*
X120889258Y-84224895D02*
X120889258Y-83424895D01*
X120889258Y-83424895D02*
X120965449Y-83539180D01*
X120965449Y-83539180D02*
X121041639Y-83615371D01*
X121041639Y-83615371D02*
X121117830Y-83653466D01*
X122679734Y-56284895D02*
X122679734Y-55484895D01*
X122679734Y-55484895D02*
X122374972Y-55484895D01*
X122374972Y-55484895D02*
X122298782Y-55522990D01*
X122298782Y-55522990D02*
X122260687Y-55561085D01*
X122260687Y-55561085D02*
X122222591Y-55637276D01*
X122222591Y-55637276D02*
X122222591Y-55751561D01*
X122222591Y-55751561D02*
X122260687Y-55827752D01*
X122260687Y-55827752D02*
X122298782Y-55865847D01*
X122298782Y-55865847D02*
X122374972Y-55903942D01*
X122374972Y-55903942D02*
X122679734Y-55903942D01*
X121422591Y-56208704D02*
X121460687Y-56246800D01*
X121460687Y-56246800D02*
X121574972Y-56284895D01*
X121574972Y-56284895D02*
X121651163Y-56284895D01*
X121651163Y-56284895D02*
X121765449Y-56246800D01*
X121765449Y-56246800D02*
X121841639Y-56170609D01*
X121841639Y-56170609D02*
X121879734Y-56094419D01*
X121879734Y-56094419D02*
X121917830Y-55942038D01*
X121917830Y-55942038D02*
X121917830Y-55827752D01*
X121917830Y-55827752D02*
X121879734Y-55675371D01*
X121879734Y-55675371D02*
X121841639Y-55599180D01*
X121841639Y-55599180D02*
X121765449Y-55522990D01*
X121765449Y-55522990D02*
X121651163Y-55484895D01*
X121651163Y-55484895D02*
X121574972Y-55484895D01*
X121574972Y-55484895D02*
X121460687Y-55522990D01*
X121460687Y-55522990D02*
X121422591Y-55561085D01*
X120736877Y-55484895D02*
X120889258Y-55484895D01*
X120889258Y-55484895D02*
X120965449Y-55522990D01*
X120965449Y-55522990D02*
X121003544Y-55561085D01*
X121003544Y-55561085D02*
X121079734Y-55675371D01*
X121079734Y-55675371D02*
X121117830Y-55827752D01*
X121117830Y-55827752D02*
X121117830Y-56132514D01*
X121117830Y-56132514D02*
X121079734Y-56208704D01*
X121079734Y-56208704D02*
X121041639Y-56246800D01*
X121041639Y-56246800D02*
X120965449Y-56284895D01*
X120965449Y-56284895D02*
X120813068Y-56284895D01*
X120813068Y-56284895D02*
X120736877Y-56246800D01*
X120736877Y-56246800D02*
X120698782Y-56208704D01*
X120698782Y-56208704D02*
X120660687Y-56132514D01*
X120660687Y-56132514D02*
X120660687Y-55942038D01*
X120660687Y-55942038D02*
X120698782Y-55865847D01*
X120698782Y-55865847D02*
X120736877Y-55827752D01*
X120736877Y-55827752D02*
X120813068Y-55789657D01*
X120813068Y-55789657D02*
X120965449Y-55789657D01*
X120965449Y-55789657D02*
X121041639Y-55827752D01*
X121041639Y-55827752D02*
X121079734Y-55865847D01*
X121079734Y-55865847D02*
X121117830Y-55942038D01*
X122527353Y-106284895D02*
X122451163Y-106284895D01*
X122451163Y-106284895D02*
X122374972Y-106322990D01*
X122374972Y-106322990D02*
X122336877Y-106361085D01*
X122336877Y-106361085D02*
X122298782Y-106437276D01*
X122298782Y-106437276D02*
X122260687Y-106589657D01*
X122260687Y-106589657D02*
X122260687Y-106780133D01*
X122260687Y-106780133D02*
X122298782Y-106932514D01*
X122298782Y-106932514D02*
X122336877Y-107008704D01*
X122336877Y-107008704D02*
X122374972Y-107046800D01*
X122374972Y-107046800D02*
X122451163Y-107084895D01*
X122451163Y-107084895D02*
X122527353Y-107084895D01*
X122527353Y-107084895D02*
X122603544Y-107046800D01*
X122603544Y-107046800D02*
X122641639Y-107008704D01*
X122641639Y-107008704D02*
X122679734Y-106932514D01*
X122679734Y-106932514D02*
X122717830Y-106780133D01*
X122717830Y-106780133D02*
X122717830Y-106589657D01*
X122717830Y-106589657D02*
X122679734Y-106437276D01*
X122679734Y-106437276D02*
X122641639Y-106361085D01*
X122641639Y-106361085D02*
X122603544Y-106322990D01*
X122603544Y-106322990D02*
X122527353Y-106284895D01*
X122679734Y-74064895D02*
X122679734Y-73264895D01*
X122679734Y-73264895D02*
X122374972Y-73264895D01*
X122374972Y-73264895D02*
X122298782Y-73302990D01*
X122298782Y-73302990D02*
X122260687Y-73341085D01*
X122260687Y-73341085D02*
X122222591Y-73417276D01*
X122222591Y-73417276D02*
X122222591Y-73531561D01*
X122222591Y-73531561D02*
X122260687Y-73607752D01*
X122260687Y-73607752D02*
X122298782Y-73645847D01*
X122298782Y-73645847D02*
X122374972Y-73683942D01*
X122374972Y-73683942D02*
X122679734Y-73683942D01*
X121613068Y-73645847D02*
X121498782Y-73683942D01*
X121498782Y-73683942D02*
X121460687Y-73722038D01*
X121460687Y-73722038D02*
X121422591Y-73798228D01*
X121422591Y-73798228D02*
X121422591Y-73912514D01*
X121422591Y-73912514D02*
X121460687Y-73988704D01*
X121460687Y-73988704D02*
X121498782Y-74026800D01*
X121498782Y-74026800D02*
X121574972Y-74064895D01*
X121574972Y-74064895D02*
X121879734Y-74064895D01*
X121879734Y-74064895D02*
X121879734Y-73264895D01*
X121879734Y-73264895D02*
X121613068Y-73264895D01*
X121613068Y-73264895D02*
X121536877Y-73302990D01*
X121536877Y-73302990D02*
X121498782Y-73341085D01*
X121498782Y-73341085D02*
X121460687Y-73417276D01*
X121460687Y-73417276D02*
X121460687Y-73493466D01*
X121460687Y-73493466D02*
X121498782Y-73569657D01*
X121498782Y-73569657D02*
X121536877Y-73607752D01*
X121536877Y-73607752D02*
X121613068Y-73645847D01*
X121613068Y-73645847D02*
X121879734Y-73645847D01*
X120698782Y-73264895D02*
X121079734Y-73264895D01*
X121079734Y-73264895D02*
X121117830Y-73645847D01*
X121117830Y-73645847D02*
X121079734Y-73607752D01*
X121079734Y-73607752D02*
X121003544Y-73569657D01*
X121003544Y-73569657D02*
X120813068Y-73569657D01*
X120813068Y-73569657D02*
X120736877Y-73607752D01*
X120736877Y-73607752D02*
X120698782Y-73645847D01*
X120698782Y-73645847D02*
X120660687Y-73722038D01*
X120660687Y-73722038D02*
X120660687Y-73912514D01*
X120660687Y-73912514D02*
X120698782Y-73988704D01*
X120698782Y-73988704D02*
X120736877Y-74026800D01*
X120736877Y-74026800D02*
X120813068Y-74064895D01*
X120813068Y-74064895D02*
X121003544Y-74064895D01*
X121003544Y-74064895D02*
X121079734Y-74026800D01*
X121079734Y-74026800D02*
X121117830Y-73988704D01*
M02*
