%TF.GenerationSoftware,KiCad,Pcbnew,9.0.4*%
%TF.CreationDate,2025-09-22T14:36:08+02:00*%
%TF.ProjectId,ATmega4809A-breakout,41546d65-6761-4343-9830-39412d627265,rev?*%
%TF.SameCoordinates,Original*%
%TF.FileFunction,Soldermask,Bot*%
%TF.FilePolarity,Negative*%
%FSLAX46Y46*%
G04 Gerber Fmt 4.6, Leading zero omitted, Abs format (unit mm)*
G04 Created by KiCad (PCBNEW 9.0.4) date 2025-09-22 14:36:08*
%MOMM*%
%LPD*%
G01*
G04 APERTURE LIST*
%ADD10R,1.700000X1.700000*%
%ADD11C,1.700000*%
%ADD12R,1.727200X1.727200*%
%ADD13O,1.727200X1.727200*%
%ADD14O,1.204000X1.804000*%
G04 APERTURE END LIST*
D10*
%TO.C,J3*%
X124460000Y-50800000D03*
D11*
X124460000Y-53340000D03*
X124460000Y-55880000D03*
X124460000Y-58420000D03*
X124460000Y-60960000D03*
X124460000Y-63500000D03*
X124460000Y-66040000D03*
X124460000Y-68580000D03*
X124460000Y-71120000D03*
X124460000Y-73660000D03*
X124460000Y-76200000D03*
X124460000Y-78740000D03*
X124460000Y-81280000D03*
X124460000Y-83820000D03*
X124460000Y-86360000D03*
X124460000Y-88900000D03*
X124460000Y-91440000D03*
X124460000Y-93980000D03*
X124460000Y-96520000D03*
X124460000Y-99060000D03*
X124460000Y-101600000D03*
X124460000Y-104140000D03*
X124460000Y-106680000D03*
X124460000Y-109220000D03*
%TD*%
D12*
%TO.C,CONN1*%
X115189000Y-57785000D03*
D13*
X117729000Y-57785000D03*
X115189000Y-60325000D03*
X117729000Y-60325000D03*
X115189000Y-62865000D03*
X117729000Y-62865000D03*
%TD*%
D10*
%TO.C,J2*%
X109220000Y-50800000D03*
D11*
X109220000Y-53340000D03*
X109220000Y-55880000D03*
X109220000Y-58420000D03*
X109220000Y-60960000D03*
X109220000Y-63500000D03*
X109220000Y-66040000D03*
X109220000Y-68580000D03*
X109220000Y-71120000D03*
X109220000Y-73660000D03*
X109220000Y-76200000D03*
X109220000Y-78740000D03*
X109220000Y-81280000D03*
X109220000Y-83820000D03*
X109220000Y-86360000D03*
X109220000Y-88900000D03*
X109220000Y-91440000D03*
X109220000Y-93980000D03*
X109220000Y-96520000D03*
X109220000Y-99060000D03*
X109220000Y-101600000D03*
X109220000Y-104140000D03*
X109220000Y-106680000D03*
X109220000Y-109220000D03*
%TD*%
D14*
%TO.C,J1*%
X112520000Y-105372000D03*
X112520000Y-109172000D03*
X121160000Y-105372000D03*
X121160000Y-109172000D03*
%TD*%
M02*
