M48
; DRILL file {KiCad 9.0.4} date 2025-09-22T14:36:14+0200
; FORMAT={-:-/ absolute / inch / decimal}
; #@! TF.CreationDate,2025-09-22T14:36:14+02:00
; #@! TF.GenerationSoftware,Kicad,Pcbnew,9.0.4
; #@! TF.FileFunction,Plated,1,4,PTH
FMAT,2
INCH
; #@! TA.AperFunction,Plated,PTH,ViaDrill
T1C0.0118
; #@! TA.AperFunction,Plated,PTH,ComponentDrill
T2C0.0236
; #@! TA.AperFunction,Plated,PTH,ComponentDrill
T3C0.0394
; #@! TA.AperFunction,Plated,PTH,ComponentDrill
T4C0.0400
%
G90
G05
T1
X4.385Y-3.02
X4.395Y-2.0
X4.435Y-3.24
X4.44Y-3.965
X4.45Y-4.065
X4.46Y-2.7
X4.46Y-2.855
X4.475Y-2.135
X4.485Y-3.035
X4.49Y-4.195
X4.495Y-2.965
X4.5Y-3.91
X4.505Y-3.09
X4.505Y-3.165
X4.515Y-3.535
X4.515Y-3.735
X4.52Y-4.085
X4.52Y-4.305
X4.54Y-4.195
X4.545Y-3.41
X4.55Y-2.97
X4.551Y-3.904
X4.5703Y-3.2877
X4.59Y-2.135
X4.605Y-3.29
X4.61Y-3.185
X4.615Y-2.97
X4.615Y-3.61
X4.615Y-3.78
X4.62Y-2.56
X4.62Y-3.905
X4.645Y-3.41
X4.65Y-3.8
X4.6536Y-2.8573
X4.66Y-4.195
X4.67Y-2.955
X4.6812Y-4.0788
X4.685Y-4.3
X4.6891Y-2.85
X4.69Y-2.135
X4.695Y-3.0
X4.695Y-3.0689
X4.695Y-3.165
X4.71Y-3.965
X4.71Y-4.195
X4.72Y-2.805
X4.73Y-2.735
X4.74Y-2.27
X4.745Y-2.86
X4.7537Y-3.2427
X4.755Y-4.075
X4.76Y-2.055
T3
X4.3Y-2.0
X4.3Y-2.1
X4.3Y-2.2
X4.3Y-2.3
X4.3Y-2.4
X4.3Y-2.5
X4.3Y-2.6
X4.3Y-2.7
X4.3Y-2.8
X4.3Y-2.9
X4.3Y-3.0
X4.3Y-3.1
X4.3Y-3.2
X4.3Y-3.3
X4.3Y-3.4
X4.3Y-3.5
X4.3Y-3.6
X4.3Y-3.7
X4.3Y-3.8
X4.3Y-3.9
X4.3Y-4.0
X4.3Y-4.1
X4.3Y-4.2
X4.3Y-4.3
X4.9Y-2.0
X4.9Y-2.1
X4.9Y-2.2
X4.9Y-2.3
X4.9Y-2.4
X4.9Y-2.5
X4.9Y-2.6
X4.9Y-2.7
X4.9Y-2.8
X4.9Y-2.9
X4.9Y-3.0
X4.9Y-3.1
X4.9Y-3.2
X4.9Y-3.3
X4.9Y-3.4
X4.9Y-3.5
X4.9Y-3.6
X4.9Y-3.7
X4.9Y-3.8
X4.9Y-3.9
X4.9Y-4.0
X4.9Y-4.1
X4.9Y-4.2
X4.9Y-4.3
T4
X4.535Y-2.275
X4.535Y-2.375
X4.535Y-2.475
X4.635Y-2.275
X4.635Y-2.375
X4.635Y-2.475
T2
G00X4.4299Y-4.1367
M15
G01X4.4299Y-4.1603
M16
G05
G00X4.4299Y-4.2863
M15
G01X4.4299Y-4.3099
M16
G05
G00X4.7701Y-4.1367
M15
G01X4.7701Y-4.1603
M16
G05
G00X4.7701Y-4.2863
M15
G01X4.7701Y-4.3099
M16
G05
M30
